<?xml version="1.0" encoding="UTF-8"?>
<!-- Generator: Adobe Illustrator 27.8.1, SVG Export Plug-In . SVG Version: 6.00 Build 0)  -->
<svg xmlns="http://www.w3.org/2000/svg" xmlns:xlink="http://www.w3.org/1999/xlink" version="1.1" id="Layer_1" x="0px" y="0px" viewBox="0 0 146 30" style="enable-background:new 0 0 146 30;" xml:space="preserve">
<style type="text/css">
	.st0{fill:#FF4D00;}
</style>
<path class="st0" d="M110.6,29.7h5.6V0.3h-5.8l-12.7,20l-11.9-20h-5.3V24H62.6v-5.8h15.8v-6.3H62.7V6.6h15.7V0.3H57v29.5h29.2V13.9  l9.5,15.9h4.6l10.3-16.4C110.6,13.3,110.6,29.7,110.6,29.7z M55.8,29.7V0.3h-8.5L29.8,29.7H36l3.3-5.9H49v-5.6h-6.2l7.2-12.1h0.8  v23.6H55.8z M29.8,0.3v28l16.5-28H29.8z M31.8,2.3h11.6L31.8,21.6V2.3z"></path>
</svg>
