<?xml version="1.0" encoding="UTF-8"?>
<!-- Generator: Adobe Illustrator 27.8.1, SVG Export Plug-In . SVG Version: 6.00 Build 0)  -->
<svg xmlns="http://www.w3.org/2000/svg" xmlns:xlink="http://www.w3.org/1999/xlink" version="1.1" id="Layer_1" x="0px" y="0px" viewBox="0 0 146 30" style="enable-background:new 0 0 146 30;" xml:space="preserve">
<style type="text/css">
	.st0{fill:#018DAB;}
	.st1{fill:#EC6D12;}
</style>
<g>
	<path class="st0" d="M145.1,20c-0.2,0.4-0.4,0.8-0.7,1.2c-1.2,1.2-3,1.5-4.4,0.6c-0.6-0.3-1.1-0.8-1.5-1.2c-2-2-4-3.9-6-5.9   c-1-1-2-2-3-2.9c0,0-0.1-0.1-0.1-0.1c0,0-0.1-0.1-0.1-0.1c-0.1,0,0,0.1,0,0.2c0,3.3,0,6.6,0,9.9c0,0.3,0,0.3-0.3,0.3   c-1,0-2.1,0-3.1,0c-0.2,0-0.2-0.1-0.2-0.2c0-3.6,0-7.2,0-10.8c0-1,0.5-1.9,1.3-2.5c1.6-1.1,3.4-1,4.9,0.3c0.7,0.6,1.3,1.3,2,1.9   c1.4,1.4,2.8,2.8,4.2,4.2c1,1,2,1.9,3,2.9c0.2,0.2,0.4,0.4,0.7,0.7c0,0,0.1,0.1,0.1,0.1c0,0,0-0.1,0-0.1c0-0.1,0-0.1,0-0.2   c0-3.3,0-6.6,0-9.9c0-0.2,0.1-0.3,0.3-0.3c1,0,1.9,0,2.9,0c0.1,0,0.2,0,0.2,0C145.1,12,145.1,16,145.1,20z"></path>
	<path class="st0" d="M115.4,11.5c-2.6,0-5.2,0-7.8,0c-0.2,0-0.3,0.1-0.3,0.3c0,0.4,0,0.8,0,1.2c0,0.2,0.1,0.3,0.2,0.2   c0,0,0.1,0,0.2,0c5.2,0,10.3,0,15.5,0c0.4,0,0.3,0,0.3,0.3c0,1,0,2.1,0,3.1c0,0.2,0,0.2-0.2,0.2c-1.2,0-2.4,0-3.7,0   c-2.4,0-4.7,0-7.1,0c-1.7,0-3.3,0-5,0c-0.2,0-0.3,0-0.3,0.3c0,0.4,0,0.8,0,1.2c0,0.1,0,0.2,0.2,0.2c0.1,0,0.1,0,0.2,0   c5.2,0,10.4,0,15.6,0c0.2,0,0.3,0,0.3,0.3c0,1,0,2,0,3c0,0.2,0,0.2-0.2,0.2c-4.9,0-9.9,0-14.8,0c-1.1,0-2.2-0.2-3.1-1   c-0.8-0.7-1.5-1.5-1.7-2.6c0-0.2-0.1-0.5-0.1-0.8c0-1.7,0-3.5,0-5.2c0-1.5,0.7-2.7,1.9-3.6c0.7-0.5,1.4-0.7,2.2-0.8   c0.3,0,0.7,0,1,0c4.8,0,9.6,0,14.4,0c0.3,0,0.3,0,0.3,0.3c0,1,0,2,0,3c0,0.2-0.1,0.2-0.2,0.2C120.7,11.5,118.1,11.5,115.4,11.5z"></path>
	<path class="st0" d="M93.7,11.5c-2.7,0-5.3,0-8,0c-0.2,0-0.2,0.1-0.2,0.3c0,2.2,0,4.3,0,6.5c0,0.2,0.1,0.2,0.3,0.2   c4.1,0,8.2,0,12.4,0c0.2,0,0.3-0.1,0.2-0.2c0-0.4,0-0.9,0-1.3c0-0.2-0.1-0.2-0.2-0.2c-1.9,0-3.9,0-5.8,0c-0.2,0-0.3,0-0.3-0.3   c0-1,0-2,0-3c0-0.2,0-0.2,0.2-0.2c3.2,0,6.4,0,9.6,0c0.2,0,0.2,0.1,0.2,0.2c0,1.4,0,2.8,0,4.2c0,1.2-0.5,2.2-1.4,3   c-0.9,0.9-1.9,1.2-3.1,1.3c-0.3,0-0.6,0-0.9,0c-3.2,0-6.4,0-9.6,0c-0.5,0-1,0-1.5-0.1c-1.2-0.2-2.1-1-2.8-2   c-0.5-0.7-0.8-1.6-0.8-2.5c0-1.7,0-3.5,0-5.2c0-0.7,0.2-1.3,0.6-1.9c0.4-0.6,0.9-1.1,1.5-1.5c0.8-0.5,1.7-0.7,2.6-0.7   c0.3,0,0.6,0,0.9,0c4.8,0,9.6,0,14.4,0c0.2,0,0.3,0.1,0.3,0.3c0,1,0,2,0,3c0,0.2-0.1,0.2-0.2,0.2C99.1,11.5,96.4,11.5,93.7,11.5z"></path>
	<path class="st0" d="M29.5,8.4c2.4,0,4.8,0,7.2,0c1.6,0,2.7,0.6,3.6,1.9c0.8,1.1,1,2.3,0.7,3.6c-0.1,0.4-0.3,0.7-0.5,1.1   c-0.1,0.2-0.1,0.3,0,0.4c0.4,0.5,0.7,1.1,0.8,1.8c0,0.2,0,0.3,0,0.5c0,1.5,0,3,0,4.5c0,0.2,0,0.2-0.2,0.2c-1.1,0-2.1,0-3.2,0   c-0.2,0-0.2,0-0.2-0.2c0-1.6,0-3.2,0-4.8c0-0.2-0.1-0.2-0.3-0.2c-4,0-8.1,0-12.1,0c-0.2,0-0.3,0.1-0.3,0.3c0,1.6,0,3.2,0,4.8   c0,0.2-0.1,0.2-0.3,0.2c-1.1,0-2.1,0-3.2,0c-0.2,0-0.2,0-0.2-0.2c0-4.5,0-9,0-13.5c0-0.2,0.1-0.2,0.2-0.2   C24.2,8.4,26.9,8.4,29.5,8.4z M31.3,13.5c2,0,4,0,6.1,0c0.2,0,0.2,0,0.2-0.2c0-0.4,0-0.8,0-1.2c0-0.2-0.1-0.2-0.3-0.2   c-2.5,0-5,0-7.4,0c-1.6,0-3.1,0-4.7,0c-0.2,0-0.2,0-0.2,0.2c0,0.4,0,0.8,0,1.2c0,0.2,0.1,0.2,0.2,0.2   C27.3,13.5,29.3,13.5,31.3,13.5z"></path>
	<path class="st0" d="M55,11.9c-2.7,0-5.3,0-8,0c-0.2,0-0.3,0-0.3,0.2c0,2.2,0,4.3,0,6.5c0,0.2,0.1,0.2,0.2,0.2c5.3,0,10.7,0,16,0   c0.2,0,0.3,0,0.3,0.3c0,1,0,2,0,3c0,0.2,0,0.2-0.2,0.2c-5.2,0-10.3,0-15.5,0c-1.9,0-3.7-1.3-4.2-3.1c-0.1-0.3-0.1-0.7-0.1-1   c0-1.7,0-3.5,0-5.2c0-0.9,0.2-1.9,0.7-2.7c0.8-1.3,2.1-2,3.6-2c3.2-0.1,6.4,0,9.5,0c2,0,4,0,6,0c0.3,0,0.3,0,0.3,0.3c0,1,0,2,0,3   c0,0.2,0,0.3-0.3,0.3C60.4,11.9,57.7,11.9,55,11.9z"></path>
	<path class="st1" d="M69,2.9c1.7,0,3.3,0,5,0c0.1,0,0.2,0,0.3,0.2c1.1,2.1,2.3,4.1,3.4,6.2c0.4,0.8,0.9,1.6,1.4,2.4   c0.1,0.2,0.1,0.2-0.1,0.2c-1.3,0.1-2.5,0.2-3.8,0.3c-0.2,0-0.2,0.1-0.1,0.2c1.1,1.7,2.2,3.4,3.3,5.1c0.3,0.4,0.2,0.3-0.2,0.4   c-0.6,0.2-1.3,0.4-1.9,0.6c-0.2,0.1-0.2,0.1-0.1,0.3c0.9,1.7,1.8,3.5,2.7,5.2c0.5,0.9,1,1.9,1.4,2.8c0,0,0.1,0.1,0,0.1   c0,0-0.1-0.1-0.1-0.1c-1-1-2.1-2.1-3.1-3.1c-1.3-1.3-2.6-2.6-3.9-3.9c-0.8-0.8-1.6-1.5-2.3-2.3c0,0-0.1-0.1-0.1-0.1   c0-0.1,0.1,0,0.2-0.1c0.8-0.1,1.6-0.3,2.4-0.4c0.2,0,0.2-0.1,0.1-0.2c-1.3-1.5-2.5-2.9-3.8-4.4c-0.5-0.6-1-1.2-1.6-1.8   c0,0-0.1-0.1-0.1-0.1c0-0.1,0.1,0,0.2,0c1.3-0.1,2.6-0.3,3.9-0.4c0,0,0.1,0,0.1,0c0-0.1-0.1-0.1-0.1-0.1c-1.8-1.5-3.7-3-5.5-4.5   c-0.9-0.7-1.8-1.5-2.7-2.2c0,0-0.1-0.1-0.1-0.1c0-0.1,0.1,0,0.2,0C65.7,2.9,67.3,2.9,69,2.9z"></path>
	<path class="st0" d="M18.3,22.3c-0.6,0-1.2,0-1.9,0c-0.1,0-0.2,0-0.3-0.2c-0.6-1.2-1.2-2.3-1.8-3.4c-0.1-0.2-0.2-0.2-0.3-0.2   c-2.3,0-4.6,0-6.8,0c-0.2,0-0.3,0.1-0.3,0.2C6.2,19.9,5.6,21,5,22.1c-0.1,0.1-0.1,0.2-0.3,0.2c-1.1,0-2.2,0-3.4,0   c-0.1,0-0.3,0.1-0.3,0c-0.1-0.2-0.1-0.3,0-0.5c0.1-0.3,0.3-0.5,0.4-0.8c1.3-2.4,2.7-4.9,4-7.3c0.6-1,1.1-2,1.6-3   C7.5,9.9,8,9.3,8.6,8.8C10,7.6,11.8,7.8,13,9.2c0.6,0.7,1,1.4,1.4,2.2c0.9,1.7,1.8,3.4,2.8,5c0.8,1.4,1.6,2.9,2.4,4.3   c0.2,0.4,0.5,0.9,0.7,1.3c0.1,0.1,0.1,0.2-0.1,0.2C19.6,22.3,18.9,22.3,18.3,22.3z M10.6,14.9c0.5,0,1,0,1.5,0c0.1,0,0.2,0,0.1-0.1   c-0.5-0.9-1-1.8-1.5-2.7c-0.1-0.1-0.1-0.1-0.2,0C10,13,9.5,13.9,9,14.8c-0.1,0.1,0,0.2,0.1,0.2C9.6,14.9,10.1,14.9,10.6,14.9z"></path>
</g>
</svg>
