<?xml version="1.0" encoding="UTF-8"?>
<!-- Generator: Adobe Illustrator 27.8.1, SVG Export Plug-In . SVG Version: 6.00 Build 0)  -->
<svg xmlns="http://www.w3.org/2000/svg" xmlns:xlink="http://www.w3.org/1999/xlink" version="1.1" id="Layer_1" x="0px" y="0px" viewBox="0 0 146 30" style="enable-background:new 0 0 146 30;" xml:space="preserve">
<style type="text/css">
	.st0{fill:#EF6B0D;}
</style>
<g>
	<path class="st0" d="M6.6,0.2H19c6.8,0,11.1,0.6,13.6,3.9c1.3,1.7,1.9,4.5,1.1,8c-0.7,3.4-2.5,6.8-4.9,8.4   c-3.2,2.2-5.9,3.1-13.1,3.1h-14L6.6,0.2z M12.5,18.3h2.7c4.4,0,7.5-2,8.4-6.4c0.9-4.4-1.3-6.4-5.7-6.4h-2.7L12.5,18.3z"></path>
	<path class="st0" d="M44.7,16.7c-0.6,2.8,0.2,4,2.4,4c1.8,0,2.7-0.8,3.2-1.9h9.2c-0.9,2.7-4.7,5.3-13,5.3c-7.5,0-12.1-2.5-10.8-8.6   c1.3-6.3,7.1-8.8,14.2-8.8c6.1,0,11.9,2,10.4,9.2l-0.2,0.9H44.7L44.7,16.7z M51.6,13.6c0.4-2.1-0.3-3.5-2.4-3.5   c-2,0-3.4,1.4-3.9,3.5H51.6z"></path>
	<path class="st0" d="M64.1,13.7c0.5-2.2,0.9-4.3,1.1-6.4h9.3l-0.5,2.8h0.1c2-2.3,4.8-3.5,8.1-3.5c2.9,0,7.6,1,6.3,7.2l-2,9.7h-9.4   l1.8-8.7c0.5-2.4-0.2-3.2-1.9-3.2c-2.2,0-3.4,1.4-3.9,3.9l-1.7,8.1h-9.4L64.1,13.7L64.1,13.7z"></path>
	<path class="st0" d="M93.2,29.8l4.7-6.2L92,7.3h10.4l1.9,8.7l5.5-8.7h9.3L111,17.9c-4.6,6-6.9,9.3-8.4,11.9H93.2z"></path>
	<path class="st0" d="M133.2,6.7c7.7,0,12.3,2.1,10.9,8.7c-1.4,6.6-6.9,8.7-14.6,8.7s-12.3-2.1-10.9-8.7   C119.9,8.8,125.4,6.7,133.2,6.7z M130.4,20c2.3,0,3.5-2.1,4-4.6c0.5-2.5,0.2-4.6-2.1-4.6c-2.3,0-3.5,2.1-4,4.6   C127.8,17.9,128.1,20,130.4,20z"></path>
</g>
</svg>
