<svg width="64" height="22" viewBox="0 0 64 22" fill="none" xmlns="http://www.w3.org/2000/svg">
<g clip-path="url(#clip0_1099_111)">
<path d="M59.8223 22H64.0014V0H59.6776L50.3074 14.9278L41.5149 0H37.5641V17.7114H24.3044V13.3805H35.9716V8.69494H24.3671V4.76108H35.9925V0H20.1477V22H41.785V10.1592L48.8179 22H52.2313L59.8223 9.76067C59.8223 9.76067 59.8014 22 59.8223 22Z" fill="#FF4D00"/>
<path d="M19.2582 22V0H12.9701L0 22H4.61343L7.05373 17.5952H14.2522V13.3896H9.63881L14.9343 4.352H15.5343V22H19.2582Z" fill="#FF4D00"/>
<path d="M0 0V20.8799L12.2045 0H0ZM1.46866 1.54879H10.0328L1.46866 15.9V1.54879Z" fill="#FF4D00"/>
</g>
<defs>
<clipPath id="clip0_1099_111">
<rect width="64" height="22" fill="white"/>
</clipPath>
</defs>
</svg>
