<svg width="104" height="104" viewBox="0 0 104 104" fill="none" xmlns="http://www.w3.org/2000/svg">
<path d="M69.0654 86.3346L86.3318 86.3346C90.9111 86.3346 95.3029 84.5155 98.5409 81.2774C101.779 78.0393 103.598 73.6475 103.598 69.0682L103.598 51.8018C103.598 49.5122 102.689 47.3163 101.07 45.6973C99.4505 44.0782 97.2546 43.1687 94.965 43.1687L69.4539 43.1687C70.4781 37.1403 73.6001 31.6681 78.2682 27.7187C82.9364 23.7693 88.8503 21.597 94.965 21.5857C96.1098 21.5857 97.2077 21.1309 98.0173 20.3214C98.8268 19.5119 99.2816 18.4139 99.2816 17.2691C99.2816 16.1243 98.8268 15.0263 98.0173 14.2168C97.2077 13.4073 96.1098 12.9525 94.965 12.9525C85.8095 12.9628 77.0319 16.6043 70.558 23.0783C64.084 29.5522 60.4425 38.3297 60.4322 47.4852L60.4322 77.7014C60.4322 79.9911 61.3418 82.187 62.9608 83.806C64.5798 85.425 66.7757 86.3346 69.0654 86.3346V86.3346Z" fill="#E6E6E6"/>
<path d="M8.63252 86.3346L25.8989 86.3346C30.4782 86.3346 34.87 84.5155 38.1081 81.2774C41.3462 78.0393 43.1653 73.6475 43.1653 69.0682L43.1653 51.8018C43.1653 49.5122 42.2557 47.3163 40.6367 45.6973C39.0176 44.0782 36.8218 43.1687 34.5321 43.1687L9.02102 43.1687C10.0452 37.1403 13.1672 31.6681 17.8354 27.7187C22.5035 23.7693 28.4174 21.597 34.5321 21.5857C35.6769 21.5857 36.7749 21.1309 37.5844 20.3214C38.3939 19.5119 38.8487 18.4139 38.8487 17.2691C38.8487 16.1243 38.3939 15.0263 37.5844 14.2168C36.7749 13.4073 35.6769 12.9525 34.5321 12.9525C25.3766 12.9628 16.599 16.6043 10.1251 23.0783C3.65119 29.5522 0.00961922 38.3297 -0.000664176 47.4852L-0.000666817 77.7014C-0.000667017 79.9911 0.9089 82.187 2.52794 83.806C4.14697 85.425 6.34286 86.3346 8.63252 86.3346V86.3346Z" fill="#E6E6E6"/>
</svg>
