<svg width="100" height="22" viewBox="0 0 100 22" fill="none" xmlns="http://www.w3.org/2000/svg">
<path d="M3.44024 0.865967H12.1159C16.8907 0.865967 19.8946 1.29701 21.6385 3.56516C22.5509 4.7674 22.9435 6.74083 22.4289 9.19075C21.9234 11.5939 20.6492 13.9309 18.999 15.0656C16.7688 16.608 14.8414 17.2429 9.8421 17.2429H0L3.44024 0.865967ZM7.59651 13.5232H9.48024C12.574 13.5232 14.7298 12.1171 15.3739 9.05442C16.0168 5.9917 14.4513 4.58563 11.3576 4.58563H9.47382L7.59651 13.5232Z" fill="#EF6B0D"/>
<path d="M30.173 12.4573C29.7675 14.3853 30.345 15.2694 31.8476 15.2694C33.1257 15.2694 33.766 14.68 34.097 13.9542H40.5528C39.951 15.8588 37.2601 17.6739 31.4537 17.6739C26.1849 17.6739 22.9871 15.9276 23.8931 11.6185C24.8221 7.1952 28.8706 5.4256 33.8481 5.4256C38.1519 5.4256 42.212 6.8096 41.1533 11.8445L41.025 12.4573H30.1743H30.173ZM35.0248 10.28C35.3353 8.80511 34.8451 7.83007 33.3425 7.83007C31.931 7.83007 30.9455 8.78303 30.6311 10.28H35.0248Z" fill="#EF6B0D"/>
<path d="M43.7813 10.3241C44.1008 8.8051 44.3921 7.30815 44.5846 5.85664H51.0865L50.7568 7.85344H50.8017C52.217 6.24224 54.1585 5.4256 56.4464 5.4256C58.4636 5.4256 61.7961 6.10721 60.8863 10.4384L59.4555 17.2428H52.865L54.147 11.1408C54.4998 9.46205 53.9737 8.87132 52.8304 8.87132C51.306 8.87132 50.4783 9.82428 50.1113 11.5705L48.9205 17.2415H42.3287L43.7826 10.3228L43.7813 10.3241Z" fill="#EF6B0D"/>
<path d="M64.1276 21.5987L67.4408 17.2442L63.332 5.85669H70.6398L71.9538 11.9808L75.7752 5.85669H82.2989L76.6195 13.2519C73.4013 17.4701 71.8037 19.7382 70.7181 21.5987H64.1276Z" fill="#EF6B0D"/>
<path d="M92.168 5.42432C97.5933 5.42432 100.799 6.92127 99.8274 11.5485C98.8547 16.1769 95.0205 17.6726 89.5952 17.6726C84.1698 17.6726 80.9644 16.1769 81.9371 11.5485C82.9085 6.92127 86.7427 5.42432 92.168 5.42432ZM90.2047 14.7696C91.7959 14.7696 92.6441 13.2947 93.0111 11.5485C93.3781 9.80223 93.1496 8.32734 91.5585 8.32734C89.9673 8.32734 89.1191 9.80223 88.7509 11.5485C88.3839 13.2947 88.6135 14.7696 90.2047 14.7696Z" fill="#EF6B0D"/>
</svg>
