<svg width="116" height="16" viewBox="0 0 116 16" fill="none" xmlns="http://www.w3.org/2000/svg">
<g clip-path="url(#clip0_1099_60)">
<path d="M111.114 2.61053H4.29285V13.2716H111.114V2.61053Z" fill="white"/>
<path d="M108.952 7.69684H107.199V9.79368C107.199 9.92842 107.072 10.6189 107.775 10.6189C108.173 10.6189 108.588 10.6189 108.935 10.5853V11.781C108.249 11.8653 107.758 11.8821 107.309 11.8821C105.26 11.8821 104.016 11.6884 104.177 10.0632V7.69684H102.619V6.43368H104.177V5.63368L107.199 4.87578V6.43368H108.952V7.69684ZM101.366 11.7305H98.3428V8.61473C98.3089 8.10105 98.1226 7.53684 97.1828 7.53684C95.6841 7.53684 95.8788 8.62315 95.8788 8.69052V11.7305H92.856V7.78947C92.856 7.31789 92.8391 6.99789 92.7629 6.42526H95.8365L95.8873 7.00631C96.5731 6.47578 97.369 6.26526 98.3851 6.26526C100.104 6.26526 101.374 7.00631 101.374 8.17684V11.7305H101.366ZM87.7757 11.7305L87.7249 11.1495C87.0391 11.68 86.2432 11.8905 85.2271 11.8905C83.5083 11.8905 82.2382 11.1495 82.2382 9.97894V6.43368H85.261V9.54947C85.2949 10.0632 85.4811 10.6274 86.421 10.6274C87.9197 10.6274 87.7249 9.54105 87.7249 9.47368V6.43368H90.7477V10.3663C90.7477 10.8379 90.7646 11.1579 90.8409 11.7305H87.7757ZM80.1299 11.7305H76.9463V8.60631H73.0344V11.7305H69.8508V4.10947H73.0514V7.12421H76.9463V4.10947H80.1299V11.7305ZM63.0432 5.59157H58.0984V7.36842H62.696V8.8421H58.0984V11.7305H54.9147V4.10947H63.0432V5.59157ZM47.4298 11.7305H44.407V8.61473C44.3731 8.10105 44.1868 7.53684 43.247 7.53684C41.7483 7.53684 41.943 8.62315 41.943 8.69052V11.7305H38.9203V7.78947C38.9203 7.31789 38.9033 6.99789 38.8271 6.42526H41.9007L41.9515 7.00631C42.6373 6.47578 43.4333 6.26526 44.4493 6.26526C46.1681 6.26526 47.4382 7.00631 47.4382 8.17684V11.7305H47.4298ZM36.8119 11.7305H33.7892V8.61473C33.7553 8.10105 33.569 7.53684 32.6292 7.53684C31.1305 7.53684 31.3252 8.62315 31.3252 8.69052V11.7305H28.3025V4.10947H31.3252V7.01473C32.0111 6.48421 32.807 6.27368 33.823 6.27368C35.5419 6.27368 36.8119 7.01473 36.8119 8.18526V11.7305ZM21.9521 11.8905C19.4543 11.8905 17.3036 11.0316 17.3036 9.08631C17.3036 7.14105 19.4543 6.2821 21.9521 6.2821C24.4499 6.2821 26.6006 7.14105 26.6006 9.08631C26.6006 11.0316 24.4499 11.8905 21.9521 11.8905ZM15.5848 9.44842C15.5848 11.2421 13.341 11.8821 11.2242 11.8821C8.63325 11.8821 6.86362 11.1579 6.99062 9.28842H10.1573C10.1235 9.75157 10.3351 10.4084 11.2073 10.4084C12.4435 10.4084 12.3842 9.39789 12.4011 9.27157V4.10947H15.5848V9.44842ZM112.534 0.547363H3.40902C1.82566 0.547363 0.547119 1.82736 0.547119 3.39368V12.5979C0.547119 14.1726 1.82566 15.4442 3.40902 15.4442H112.542C114.126 15.4442 115.404 14.1726 115.404 12.5979V3.4021C115.404 1.82736 114.117 0.547363 112.534 0.547363Z" fill="#008EAA"/>
<path d="M21.9807 7.43579C20.7106 7.43579 20.4397 8.33684 20.4397 9.08632C20.4397 9.83579 20.7106 10.7368 21.9807 10.7368C23.2508 10.7368 23.5217 9.83579 23.5217 9.08632C23.5217 8.33684 23.2593 7.43579 21.9807 7.43579Z" fill="#008EAA"/>
</g>
<defs>
<clipPath id="clip0_1099_60">
<rect width="116" height="16" fill="white"/>
</clipPath>
</defs>
</svg>
