<svg width="32" height="31" viewBox="0 0 32 31" fill="none" xmlns="http://www.w3.org/2000/svg">
<path d="M25.1193 14.0908H12.3095L16.5239 9.87636C16.644 9.75728 16.7393 9.6156 16.8043 9.4595C16.8693 9.3034 16.9028 9.13597 16.9028 8.96687C16.9028 8.79776 16.8693 8.63033 16.8043 8.47423C16.7393 8.31814 16.644 8.17646 16.5239 8.05737C16.2839 7.81879 15.9592 7.68488 15.6208 7.68488C15.2824 7.68488 14.9577 7.81879 14.7177 8.05737L9.22233 13.5656C8.74121 14.0438 8.46941 14.6934 8.46655 15.3718C8.47279 16.0457 8.74433 16.69 9.22233 17.1651L14.7177 22.6733C14.8372 22.7919 14.9788 22.8858 15.1345 22.9497C15.2903 23.0136 15.457 23.0461 15.6254 23.0455C15.7937 23.0449 15.9602 23.0112 16.1155 22.9462C16.2708 22.8813 16.4117 22.7864 16.5303 22.6669C16.6489 22.5475 16.7428 22.4059 16.8067 22.2501C16.8706 22.0944 16.9031 21.9276 16.9025 21.7593C16.9019 21.591 16.8682 21.4245 16.8032 21.2692C16.7383 21.1139 16.6434 20.9729 16.5239 20.8544L12.3095 16.6527H25.1193C25.459 16.6527 25.7849 16.5178 26.0251 16.2776C26.2653 16.0373 26.4003 15.7115 26.4003 15.3718C26.4003 15.032 26.2653 14.7062 26.0251 14.466C25.7849 14.2257 25.459 14.0908 25.1193 14.0908Z" fill="#008EAA"/>
</svg>
