<svg width="587" height="615" viewBox="0 0 587 615" fill="none" xmlns="http://www.w3.org/2000/svg">
<g clip-path="url(#clip0_1602_8060)">
<path d="M377.036 475.706L385.256 615H303.911L300.021 558.187H293.499V452.076L377.036 475.706Z" fill="#051926"/>
<path d="M327.345 478.393C327.345 478.393 338.118 516.551 379.486 517.212" stroke="#373737" stroke-width="1.17" stroke-miterlimit="10"/>
<path d="M300.021 558.187C300.021 558.187 306.682 514.857 310.249 468.74" stroke="#373737" stroke-width="1.17" stroke-miterlimit="10"/>
<path d="M300.021 558.187H327.269" stroke="#373737" stroke-width="1.17" stroke-miterlimit="10"/>
<path d="M209.964 475.706L201.744 615H283.089L286.979 558.187H293.499V452.076L209.964 475.706Z" fill="#051926"/>
<path d="M259.653 478.393C259.653 478.393 248.88 516.551 207.512 517.212" stroke="#373737" stroke-width="1.17" stroke-miterlimit="10"/>
<path d="M286.979 558.187C286.979 558.187 280.319 514.857 276.751 468.74" stroke="#373737" stroke-width="1.17" stroke-miterlimit="10"/>
<path d="M286.979 558.187H259.731" stroke="#373737" stroke-width="1.17" stroke-miterlimit="10"/>
<path d="M327.269 468.739H251.674L240.259 222.366L262.432 210.112H324.566L359.783 305.086L327.269 468.739Z" fill="#008EAA"/>
<path d="M43.4484 249.682L33.7586 237.453L28.8252 217.439C28.2398 215.06 26.033 213.446 23.5909 213.608C20.7585 213.796 18.6393 216.287 18.9019 219.117L20.9263 240.898L43.4484 249.68V249.682Z" fill="#F7B284"/>
<path d="M43.4485 249.682L7.67457 223.307C5.75776 221.894 3.095 222.094 1.41164 223.78C-0.311858 225.505 -0.476 228.246 1.02681 230.164L14.3552 247.188L43.4485 249.682Z" fill="#F7B284"/>
<path d="M93.5373 266.593C93.5373 266.593 79.1402 251.24 71.9417 245.914C64.7431 240.588 54.7286 231.501 50.346 228.682C45.9653 225.861 39.7041 229.934 43.773 237.455C47.8419 244.974 52.8501 255.627 52.8501 255.627L93.5373 266.593Z" fill="#F7B284"/>
<path d="M20.1458 232.501L44.7124 250.299" stroke="#BC8464" stroke-width="0.62" stroke-miterlimit="10"/>
<path d="M138.605 305.444C138.605 305.444 142.778 334.27 189.307 356.201C186.177 334.688 161.14 301.267 138.605 305.444Z" fill="#1E2B3D"/>
<path d="M154.254 297.924L124.208 342.415C124.208 342.415 96.6671 270.352 93.5374 266.593C90.4078 262.834 69.7514 253.434 44.7142 250.299C16.5474 236.513 8.40963 234.634 5.90554 238.393C3.40146 242.153 12.1648 252.806 20.3026 257.192C28.4404 261.579 52.852 275.364 57.8602 277.245C89.1567 400.691 89.784 435.783 124.21 435.783C146.118 435.157 189.309 356.2 189.309 356.2C189.309 356.2 176.79 309.202 154.255 297.924H154.254Z" fill="#FFC89F"/>
<path d="M124.208 342.415L138.605 377.507" stroke="#BC8464" stroke-width="0.62" stroke-miterlimit="10"/>
<path d="M90.6704 405.097C95.6822 399.336 103.043 395.679 111.272 395.679C126.368 395.679 138.605 407.93 138.605 423.042C138.605 424.896 138.416 426.703 138.066 428.454C132.994 432.894 128.241 435.67 124.208 435.785C107.55 435.785 98.8046 427.567 90.6704 405.098V405.097Z" fill="#F7B284"/>
<path d="M154.254 297.924C176.788 309.204 189.307 356.2 189.307 356.2C189.307 356.2 183.969 365.957 176.097 378.635C174.018 341.455 149.738 318.115 144.002 313.103L154.254 297.922V297.924Z" fill="#F7B284"/>
<path d="M219.978 203.301C219.978 203.301 191.184 207.378 166.772 253.277C142.361 299.176 138.605 305.442 138.605 305.442C138.605 305.442 173.033 314.842 189.307 356.2L212.114 324.949C212.114 324.949 240.009 255.311 219.978 203.3V203.301Z" fill="#008EAA"/>
<path d="M262.432 210.112C262.432 210.112 239.381 203.928 219.978 203.301C224.986 294.791 215.595 314.842 204.33 348.681C195.566 474.008 193.062 485.288 193.062 485.288C193.062 485.288 257.94 494.687 283.089 480.274V265.965C283.089 265.965 262.434 250.634 262.434 210.112H262.432Z" fill="#EF6B0D"/>
<path d="M283.089 400.691H200.574C200.999 395.018 201.446 388.967 201.917 382.519H283.089V400.691Z" fill="#FEFEFE"/>
<path d="M283.089 440.796H197.432C197.879 435.405 198.364 429.378 198.895 422.624H283.091V440.796H283.089Z" fill="#FEFEFE"/>
<path d="M251.712 207.603C258.143 208.961 262.434 210.112 262.434 210.112C262.434 250.634 283.089 265.965 283.089 265.965V480.274C279.64 482.25 275.429 483.765 270.756 484.932C270.871 462.964 271.154 408.304 271.862 272.231C253.994 258.26 251.898 220.385 251.71 207.603H251.712Z" fill="#CC5809"/>
<path d="M252.095 216.88C252.095 216.88 238.957 212.825 220.496 213.599" stroke="#CC5809" stroke-width="1.17" stroke-miterlimit="10"/>
<path d="M201.744 339.161C198.627 343.432 194.583 348.971 189.307 356.202C173.031 314.843 138.605 305.444 138.605 305.444C138.605 305.444 140.411 302.432 149.61 285.368C162.729 291.185 184.976 305.493 201.742 339.163L201.744 339.161Z" fill="#051926"/>
<path d="M259.731 287.48C259.731 287.48 239.173 350.474 218.309 356.576C197.445 362.678 239.394 336.775 259.731 287.48Z" fill="#CC5809"/>
<path d="M543.552 249.682L553.241 237.453L558.175 217.439C558.76 215.06 560.967 213.446 563.409 213.608C566.241 213.796 568.361 216.287 568.098 219.117L566.074 240.898L543.552 249.68V249.682Z" fill="#F7B284"/>
<path d="M543.552 249.682L579.325 223.307C581.242 221.894 583.905 222.094 585.588 223.78C587.312 225.505 587.476 228.246 585.973 230.164L572.645 247.188L543.552 249.682Z" fill="#F7B284"/>
<path d="M493.463 266.593C493.463 266.593 507.86 251.24 515.058 245.914C522.257 240.588 532.271 231.501 536.654 228.682C541.035 225.861 547.296 229.934 543.227 237.455C539.158 244.974 534.152 255.627 534.152 255.627L493.464 266.593H493.463Z" fill="#F7B284"/>
<path d="M566.853 232.501L542.286 250.299" stroke="#BC8464" stroke-width="0.62" stroke-miterlimit="10"/>
<path d="M448.395 305.444C448.395 305.444 444.222 334.27 397.693 356.201C400.823 334.688 425.86 301.267 448.395 305.444Z" fill="#1E2B3D"/>
<path d="M432.746 297.924L462.792 342.415C462.792 342.415 490.333 270.352 493.463 266.593C496.592 262.834 517.249 253.434 542.286 250.299C570.453 236.513 578.59 234.634 581.095 238.393C583.599 242.153 574.835 252.806 566.697 257.192C558.56 261.579 534.148 275.364 529.14 277.245C497.843 400.691 497.216 435.783 462.79 435.783C440.882 435.157 397.691 356.2 397.691 356.2C397.691 356.2 410.21 309.202 432.745 297.924H432.746Z" fill="#FFC89F"/>
<path d="M462.792 342.415L448.395 377.507" stroke="#BC8464" stroke-width="0.62" stroke-miterlimit="10"/>
<path d="M496.33 405.097C491.32 399.336 483.957 395.679 475.728 395.679C460.632 395.679 448.395 407.93 448.395 423.042C448.395 424.896 448.584 426.703 448.934 428.454C454.006 432.894 458.759 435.67 462.792 435.785C479.45 435.785 488.195 427.567 496.33 405.098V405.097Z" fill="#F7B284"/>
<path d="M432.746 297.924C410.212 309.204 397.693 356.2 397.693 356.2C397.693 356.2 403.031 365.957 410.903 378.635C412.982 341.455 437.262 318.115 442.998 313.103L432.746 297.922V297.924Z" fill="#F7B284"/>
<path d="M367.022 203.301C367.022 203.301 395.816 207.378 420.228 253.277C444.639 299.176 448.395 305.442 448.395 305.442C448.395 305.442 413.967 314.842 397.693 356.2L374.886 324.949C374.886 324.949 346.991 255.311 367.022 203.3V203.301Z" fill="#008EAA"/>
<path d="M350.763 71.7139C349.858 19.1472 293.501 19.8264 293.499 19.8264C293.497 19.8264 237.142 19.1472 236.237 71.7139C235.331 124.281 233.974 163.254 224.92 178.436H254.568C255.642 174.669 257.174 168.365 257.738 161.441C259.193 169.042 259.728 174.611 259.885 178.436H327.114C327.27 174.613 327.805 169.044 329.26 161.441C329.824 168.363 331.356 174.667 332.43 178.436H362.078C353.024 163.254 351.666 124.282 350.761 71.7139H350.763Z" fill="#051926"/>
<path d="M342.01 178.434C342.01 178.434 335.879 129.999 335.284 103.779" stroke="#53575A" stroke-width="0.42" stroke-miterlimit="10"/>
<path d="M309.352 160.987L293.499 164.914L277.648 160.987C277.648 160.987 283.063 196.173 262.432 210.112C277.971 230.835 309.027 230.835 324.566 210.112C303.937 196.175 309.35 160.987 309.35 160.987H309.352Z" fill="#FFC89F"/>
<path opacity="0.62" d="M308.728 169.327L308.731 169.316C308.841 164.313 309.35 160.987 309.35 160.987L293.497 164.914L277.647 160.987C277.647 160.987 279.928 175.861 275.859 190.099C301.057 185.193 308.726 169.327 308.726 169.327H308.728Z" fill="#051926"/>
<path d="M229.619 117.311C232.819 125.732 240.861 130.485 247.578 127.925C254.295 125.365 257.147 116.464 253.946 108.044C250.746 99.6231 242.704 94.8705 235.987 97.4303C229.27 99.9901 226.418 108.891 229.62 117.311H229.619Z" fill="#F7B284"/>
<path d="M250.299 121.33L235.557 104.794" stroke="#BC8464" stroke-opacity="0.74" stroke-width="0.62" stroke-miterlimit="10"/>
<path d="M357.381 117.311C354.181 125.732 346.14 130.485 339.422 127.925C332.705 125.365 329.853 116.464 333.054 108.044C336.255 99.6231 344.296 94.8705 351.013 97.4303C357.73 99.9901 360.582 108.891 357.381 117.311Z" fill="#F7B284"/>
<path d="M322.337 56.8683C316.187 67.7026 296.585 95.705 259.097 93.6911L270.187 75.3381C270.187 75.3381 261.953 83.4063 249.617 86.6216C248.174 93.2073 247.656 100.463 248.459 108.42C251.654 137.034 257.913 151.569 275.867 167.443C285.927 176.336 301.073 176.336 311.132 167.443C329.085 151.569 335.344 137.036 338.54 108.42C340.821 85.7835 332.456 68.8054 322.337 56.8683Z" fill="#FFC89F"/>
<path d="M336.699 121.33L351.441 104.794" stroke="#BC8464" stroke-opacity="0.74" stroke-width="0.62" stroke-miterlimit="10"/>
<path d="M291.01 118.843C291.01 118.843 290.444 135.383 291.01 140.37C296.441 137.764 298.704 135.046 298.704 135.046" stroke="#BC8464" stroke-opacity="0.74" stroke-width="0.62" stroke-miterlimit="10"/>
<path d="M332.204 124.224C332.204 127.196 327.289 129.605 321.226 129.605C315.164 129.605 310.249 127.196 310.249 124.224C310.249 121.252 315.164 118.843 321.226 118.843C327.289 118.843 332.204 121.253 332.204 124.224Z" fill="#F7B284"/>
<path d="M254.796 124.224C254.796 127.196 259.711 129.605 265.774 129.605C271.836 129.605 276.751 127.196 276.751 124.224C276.751 121.252 271.836 118.843 265.774 118.843C259.711 118.843 254.796 121.253 254.796 124.224Z" fill="#F7B284"/>
<path d="M306.143 148.245C306.143 148.245 293.178 145.555 283 151.588" stroke="#BC8464" stroke-opacity="0.74" stroke-width="0.62" stroke-miterlimit="10"/>
<path d="M301.494 153.939C301.494 153.939 292.215 154.731 288.932 155.639C292.215 151.334 298.664 151.447 301.494 153.939Z" fill="#BC8464"/>
<path d="M308.844 91.651C308.844 91.651 325.431 94.9364 333.418 101.725C333.328 98.645 329.516 92.8916 310.493 88.2271C309.266 90.1216 308.844 91.651 308.844 91.651Z" fill="#051926"/>
<path d="M280.399 93.7752C280.399 93.7752 263.612 93.8856 254.563 99.0525C255.222 96.0443 260.006 91.1098 279.426 90.1026C280.271 92.1938 280.399 93.7752 280.399 93.7752Z" fill="#051926"/>
<path d="M301.794 105.999C301.794 105.999 312.25 91.7126 332.097 109.808L326.441 111.003L301.794 105.999Z" fill="#051926"/>
<path d="M301.794 105.999C301.794 105.999 314.479 95.0853 326.441 111.003C317.896 117.486 308.089 113.556 301.794 105.999Z" fill="white"/>
<path d="M312.122 113.638C315.237 115.207 319.036 113.952 320.608 110.834C322.18 107.716 320.929 103.915 317.814 102.345C314.699 100.775 310.9 102.031 309.328 105.149C307.756 108.267 309.007 112.068 312.122 113.638Z" fill="#051926"/>
<path d="M305.541 99.5704C309.892 97.9031 314.818 97.8546 319.277 99.1166C322.067 99.9235 324.713 101.294 327.033 103.038C328.439 104.061 329.723 105.279 330.926 106.529C329.502 105.084 327.955 103.737 326.288 102.578C326.038 102.414 325.434 102.019 325.194 101.864C324.961 101.727 324.309 101.348 324.065 101.207C322.283 100.241 320.373 99.4845 318.406 98.9942C314.193 97.9565 309.633 98.0811 305.539 99.5695L305.541 99.5704Z" fill="#680301"/>
<path d="M285.229 106.466C285.229 106.466 275.206 91.8732 254.826 109.366L260.444 110.731L285.229 106.466Z" fill="#051926"/>
<path d="M285.229 106.466C285.229 106.466 272.876 95.1779 260.443 110.731C268.79 117.467 278.711 113.831 285.229 106.466Z" fill="white"/>
<path d="M266.278 110.737C267.756 113.901 271.516 115.269 274.676 113.793C277.835 112.317 279.201 108.556 277.723 105.392C276.245 102.227 272.484 100.86 269.325 102.335C266.165 103.811 264.8 107.572 266.278 110.737Z" fill="#051926"/>
<path d="M281.267 100.119C277.221 98.5109 272.664 98.2491 268.423 99.1595C266.444 99.59 264.511 100.29 262.7 101.202C262.453 101.335 261.793 101.694 261.552 101.825C261.307 101.973 260.688 102.353 260.437 102.506C258.736 103.613 257.149 104.913 255.683 106.317C256.926 105.103 258.243 103.924 259.679 102.943C262.05 101.271 264.734 99.9796 267.548 99.2558C272.044 98.1252 276.966 98.3235 281.267 100.119Z" fill="#680301"/>
<path d="M319.118 24.9296C319.118 24.9296 306.552 82.5903 259.097 93.693" stroke="#53575A" stroke-width="0.42" stroke-miterlimit="10"/>
<path d="M290.758 19.9177C290.758 19.9177 285.857 73.0614 236.075 80.6202" stroke="#9F4941" stroke-width="0.42" stroke-miterlimit="10"/>
<path d="M324.566 210.112C324.566 210.112 347.617 203.928 367.02 203.301C362.012 294.791 371.403 314.842 382.669 348.681C391.432 474.008 393.936 485.288 393.936 485.288C393.936 485.288 329.058 494.687 303.909 480.274V265.965C303.909 265.965 324.564 250.634 324.564 210.112H324.566Z" fill="#EF6B0D"/>
<path d="M303.911 400.691H386.425C386 395.018 385.554 388.967 385.083 382.519H303.911V400.691Z" fill="#FEFEFE"/>
<path d="M303.911 440.796H389.568C389.121 435.405 388.636 429.378 388.105 422.624H303.911V440.796Z" fill="#FEFEFE"/>
<path d="M335.288 207.603C328.857 208.961 324.566 210.112 324.566 210.112C324.566 250.634 303.911 265.965 303.911 265.965V480.274C307.358 482.25 311.571 483.765 316.244 484.932C316.129 462.964 315.844 408.304 315.138 272.231C333.006 258.26 335.102 220.385 335.29 207.603H335.288Z" fill="#CC5809"/>
<path d="M334.905 216.88C334.905 216.88 348.044 212.825 366.504 213.599" stroke="#CC5809" stroke-width="1.17" stroke-miterlimit="10"/>
<path d="M385.256 339.161C388.373 343.432 392.417 348.971 397.693 356.202C413.969 314.843 448.395 305.444 448.395 305.444C448.395 305.444 446.589 302.432 437.39 285.368C424.271 291.185 402.025 305.493 385.258 339.163L385.256 339.161Z" fill="#051926"/>
<path d="M327.269 287.48C327.269 287.48 347.827 350.474 368.691 356.576C389.555 362.678 347.606 336.775 327.269 287.48Z" fill="#CC5809"/>
<g style="mix-blend-mode:multiply" opacity="0.37">
<path d="M236.237 71.7139C236.102 79.5301 235.956 87.0378 235.779 94.2187C247.118 90.0139 292.534 75.9534 351.226 94.3703C351.046 87.1437 350.9 79.5849 350.765 71.7139C350.573 60.5692 347.872 51.84 343.761 44.9677L262.675 27.2738C249.352 34.0512 236.664 46.9925 236.237 71.712V71.7139Z" fill="#75170A"/>
</g>
<path d="M293.422 5.06847C293.422 5.06847 356.09 1.90071 354.817 73.8538C324.028 70.319 293.422 62.9282 293.422 62.9282V5.06847Z" fill="#EF6B0D"/>
<path d="M293.422 5.06847C293.422 5.06847 230.755 1.90071 232.028 73.8538C262.817 70.319 293.422 62.9282 293.422 62.9282V5.06847Z" fill="#EF6B0D"/>
<path d="M344.726 84.8013L350.486 86.5814C354.427 87.8011 358.525 85.2084 359.118 81.1204C359.572 77.9855 357.786 74.9529 354.817 73.8519C343.623 69.7019 316.003 60.3921 293.499 60.3921V68.6283C293.499 68.6283 330.409 70.3519 344.726 84.7994V84.8013Z" fill="#A84F13"/>
<path d="M242.272 84.8013L236.514 86.5814C232.573 87.8011 228.475 85.2084 227.882 81.1204C227.428 77.9855 229.214 74.9529 232.183 73.8519C243.377 69.7019 270.997 60.3921 293.499 60.3921V68.6283C293.499 68.6283 256.589 70.3519 242.272 84.7994V84.8013Z" fill="#A84F13"/>
<path d="M287.067 5.30212C283.736 5.60521 279.343 6.25702 274.482 7.62637C271.395 16.9599 264.382 40.5493 262.715 66.7295L286.671 64.2701L287.067 5.30212Z" fill="#CC5809"/>
<path d="M309.158 6.80842C306.479 2.11063 299.348 0 293.423 0C287.497 0 280.364 2.11063 277.687 6.80842C275.008 11.5044 267.069 64.0273 267.069 64.0273L293.424 62.9281L319.78 64.0273C319.78 64.0273 311.839 11.5044 309.162 6.80842H309.158Z" fill="#A84F13"/>
<path d="M293.499 60.3939C256.421 60.3939 241.194 78.1316 242.117 84.8013C266.689 72.9737 292.642 72.751 293.461 72.7473C294.278 72.751 320.154 72.9719 344.726 84.8013C345.649 78.1316 330.577 60.3939 293.499 60.3939Z" fill="#F27B2C"/>
<g style="mix-blend-mode:overlay" opacity="0.69">
<path d="M309.158 6.80842C306.479 2.11063 299.348 0 293.422 0C289.085 0 284.119 1.14478 280.711 3.59136C289.948 1.58115 302.352 5.90465 303.78 11.8257C305.257 17.9495 307.787 47.3029 309.891 52.5813C311.505 56.6328 316.455 56.9523 318.675 56.8811C316.399 42.3605 311.223 10.4235 309.16 6.80842H309.158Z" fill="#FFF6E7"/>
</g>
<path d="M353.238 53.5727C348.383 27.8672 333.249 15.7494 319.415 10.0583C323.008 21.1665 332.758 44.4638 353.238 53.5727Z" fill="#CC5809"/>
<path d="M233.76 53.5727C238.615 27.8672 253.749 15.7494 267.583 10.0583C263.99 21.1665 254.24 44.4638 233.76 53.5727Z" fill="#CC5809"/>
</g>
<defs>
<clipPath id="clip0_1602_8060">
<rect width="587" height="615" fill="white"/>
</clipPath>
</defs>
</svg>
