<svg width="1728" height="922" viewBox="0 0 1728 922" fill="none" xmlns="http://www.w3.org/2000/svg">
<g opacity="0.6">
<path style="mix-blend-mode:multiply" opacity="0.5" d="M863.986 582.825C270.45 585.394 0 207.451 0 207.451V921.732H1728V207.451C1728 207.451 1457.55 580.255 864.014 582.825H863.986Z" fill="url(#paint0_radial_1602_7838)"/>
<path d="M650.668 417.489H648.18V550.031H650.668V417.489Z" fill="#E3E3E3"/>
<path d="M608.52 419.504H606.032V552.046H608.52V419.504Z" fill="#E3E3E3"/>
<path d="M566.371 417.116H563.883V549.658H566.371V417.116Z" fill="#E3E3E3"/>
<path d="M524.222 419.504H521.734V552.046H524.222V419.504Z" fill="#E3E3E3"/>
<path d="M822.498 522.488H520.191V921.209H822.498V522.488Z" fill="#F1F1F1"/>
<path d="M822.498 522.488H680.75V921.209H822.498V522.488Z" fill="#E3E3E3"/>
<path d="M610.734 576.455H583.564V642.49H610.734V576.455Z" fill="#F7F7F7"/>
<path d="M610.734 834.921H583.564V900.956H610.734V834.921Z" fill="#F7F7F7"/>
<path d="M680.75 668.416C680.75 669.162 644.796 669.76 600.483 669.76C556.17 669.76 520.191 669.162 520.191 668.416C520.191 667.669 556.12 667.072 600.483 667.072C644.846 667.072 680.75 667.669 680.75 668.416Z" fill="#F7F7F7"/>
<path d="M610.734 706.658H583.564V772.693H610.734V706.658Z" fill="#F7F7F7"/>
<path d="M680.75 798.619C680.75 799.366 644.796 799.963 600.483 799.963C556.17 799.963 520.191 799.366 520.191 798.619C520.191 797.873 556.12 797.276 600.483 797.276C644.846 797.276 680.75 797.873 680.75 798.619Z" fill="#F7F7F7"/>
<path d="M738.026 576.455H710.856V642.49H738.026V576.455Z" fill="#F7F7F7"/>
<path d="M796.995 576.455H769.825V642.49H796.995V576.455Z" fill="#F7F7F7"/>
<path d="M738.026 701.757H710.856V767.791H738.026V701.757Z" fill="#F7F7F7"/>
<path d="M796.995 701.757H769.825V767.791H796.995V701.757Z" fill="#F7F7F7"/>
<path d="M738.026 827.083H710.856V893.118H738.026V827.083Z" fill="#F7F7F7"/>
<path d="M796.995 827.083H769.825V893.118H796.995V827.083Z" fill="#F7F7F7"/>
<path d="M680.75 529.305V493.377H710.856V473.646H751.612V456.03H822.498V526.494L680.75 529.305Z" fill="#E3E3E3"/>
<path d="M681.894 397.509H679.406V530.051H681.894V397.509Z" fill="#E3E3E3"/>
<path d="M712.1 397.509H709.612V530.051H712.1V397.509Z" fill="#E3E3E3"/>
<path d="M752.856 378.848H750.367V511.391H752.856V378.848Z" fill="#E3E3E3"/>
<path d="M821.652 378.848H819.164V511.391H821.652V378.848Z" fill="#E3E3E3"/>
<path d="M787.241 378.848H784.753V511.391H787.241V378.848Z" fill="#E3E3E3"/>
<path d="M680.725 487.107H524.098V489.595H680.725V487.107Z" fill="#E3E3E3"/>
<path d="M751.96 454.786H524.446V457.274H751.96V454.786Z" fill="#E3E3E3"/>
<path d="M357.536 217.618H359.377L360.124 206.422L367.389 215.727L365.971 217.618H367.414L368.135 216.673L368.882 217.618H370.325L368.857 215.727L375.873 206.472L376.595 217.618H378.436L375.177 166.886H375.326C375.326 166.886 375.45 166.885 375.5 166.861C375.674 166.786 375.774 166.637 375.774 166.438V166.064V157.854L381.944 150.514C382.84 150.588 383.786 150.414 384.607 149.892C386.597 148.648 387.194 146.01 385.95 144.02C384.706 142.029 382.069 141.432 380.078 142.676C379.207 143.223 378.61 144.045 378.312 144.94L372.34 146.259C371.121 145.463 369.678 144.99 368.086 144.99C363.831 144.99 360.372 148.424 360.372 152.678V166.04V166.413C360.372 166.662 360.547 166.836 360.795 166.861C360.795 166.861 360.82 166.861 360.845 166.861H360.895L357.561 217.593L357.536 217.618ZM368.459 166.886L373.36 176.863H362.985L367.737 166.886H368.484H368.459ZM362.114 175.967L362.711 166.886H366.443L362.114 175.967ZM373.311 166.886L373.858 175.295L369.753 166.886H371.693H373.335H373.311ZM375.475 200.774L368.658 190.05L374.206 181.043L375.475 200.774ZM367.986 188.955L362.313 179.998H373.51L367.986 188.955ZM367.314 190.05L360.447 201.172L361.741 181.317L367.289 190.05H367.314ZM374.878 201.943H361.343L368.011 191.12L374.878 201.943ZM368.11 214.782L360.522 205.078H375.45L368.11 214.782Z" fill="#E3E3E3"/>
<path d="M352.087 250.437V513.257H355.446V511.017H372.838V513.257H376.197V250.437H372.838V261.434L364.478 252.502L372.241 243.943H373.535V241.38H354.276V243.943H355.222L363.234 252.527L355.446 261.111V250.437H352.087ZM372.863 470.038V487.53L364.503 478.597L372.266 470.038H372.863ZM363.881 477.901L356.516 470.013H371.022L363.881 477.901ZM356.043 467.45L363.905 458.792L372.017 467.475H356.043V467.45ZM364.528 458.095L372.29 449.536H372.888V467.027L364.528 458.095ZM363.881 457.423L356.516 449.536H371.022L363.881 457.423ZM356.043 446.973L363.905 438.315L372.017 446.998H356.043V446.973ZM364.528 437.618L372.29 429.059H372.888V446.55L364.528 437.618ZM363.881 436.946L356.516 429.059H371.022L363.881 436.946ZM356.043 426.496L363.905 417.837L372.017 426.521H356.043V426.496ZM364.528 417.141L372.29 408.582H372.888V426.073L364.528 417.141ZM363.881 416.469L356.516 408.582H371.022L363.881 416.469ZM356.043 406.019L363.905 397.36L372.017 406.044H356.043V406.019ZM364.528 396.663L372.29 388.104H372.888V405.596L364.528 396.663ZM363.881 395.992L356.516 388.104H371.022L363.881 395.992ZM356.043 385.541L363.905 376.883L372.017 385.566H356.043V385.541ZM364.528 376.186L372.29 367.627H372.888V385.118L364.528 376.186ZM363.881 375.514L356.516 367.627H371.022L363.881 375.514ZM356.043 365.064L363.905 356.406L372.017 365.089H356.043V365.064ZM364.528 355.709L372.29 347.15H372.888V364.641L364.528 355.709ZM363.881 355.037L356.516 347.15H371.022L363.881 355.037ZM356.043 344.587L363.905 335.928L372.017 344.612H356.043V344.587ZM364.528 335.232L372.29 326.673H372.888V344.164L364.528 335.232ZM363.881 334.56L356.516 326.673H371.022L363.881 334.56ZM356.043 324.11L363.905 315.451L372.017 324.135H356.043V324.11ZM364.528 314.754L372.29 306.195H372.888V323.687L364.528 314.754ZM363.881 314.083L356.516 306.195H371.022L363.881 314.083ZM356.043 303.633L363.905 294.974L372.017 303.657H356.043V303.633ZM364.528 294.277L372.29 285.718H372.888V303.21L364.528 294.277ZM363.881 293.605L356.516 285.718H371.022L363.881 293.605ZM356.043 488.077L363.905 479.418L372.017 488.102H356.043V488.077ZM355.471 487.306V470.362L363.259 478.697L355.471 487.281V487.306ZM355.471 466.804V449.859L363.259 458.195L355.471 466.779V466.804ZM355.471 446.301V429.357L363.259 437.693L355.471 446.277V446.301ZM355.471 425.799V408.855L363.259 417.19L355.471 425.774V425.799ZM355.471 405.297V388.353L363.259 396.688L355.471 405.272V405.297ZM355.471 384.795V367.851L363.259 376.186L355.471 384.77V384.795ZM355.471 364.293V347.349L363.259 355.684L355.471 364.268V364.293ZM355.471 343.791V326.847L363.259 335.182L355.471 343.766V343.791ZM355.471 323.289V306.345L363.259 314.68L355.471 323.264V323.289ZM355.471 302.787V285.842L363.259 294.178L355.471 302.762V302.787ZM363.905 274.024L372.34 283.056H355.72L363.905 274.024ZM355.471 281.936V264.992L363.259 273.327L355.471 281.911V281.936ZM364.528 273.327L372.29 264.768H372.888V282.26L364.528 273.327ZM372.888 508.007L364.528 499.074L372.29 490.515H372.888V508.007ZM363.905 498.378L356.541 490.49H371.046L363.905 498.378ZM363.283 499.074L355.496 507.658V490.714L363.283 499.05V499.074ZM356.541 264.743H371.046L363.905 272.631L356.541 264.743ZM372.017 508.43H356.043L363.905 499.746L372.017 508.43ZM363.905 251.78L356.541 243.893H371.046L363.905 251.78ZM363.905 253.149L372.34 262.18H355.72L363.905 253.149Z" fill="#E3E3E3"/>
<path d="M98 240.036V240.36C98 241.479 98.8957 242.375 100.015 242.375H459.922V239.016H458.379V221.624H459.922V218.265H128.405C126.862 218.265 125.369 218.763 124.15 219.683L98.846 238.444C98.3235 238.817 98.0249 239.439 98.0249 240.061L98 240.036ZM131.316 221.624H148.26L139.925 229.412L131.341 221.624H131.316ZM139.228 230.059L130.545 238.17V222.196L139.228 230.059ZM148.484 237.175L140.622 230.034L148.509 222.669V237.175H148.484ZM151.818 221.624H168.762L160.427 229.412L151.843 221.624H151.818ZM159.73 230.059L151.047 238.17V222.196L159.73 230.059ZM168.986 237.175L161.124 230.034L169.011 222.669V237.15L168.986 237.175ZM172.32 221.624H189.264L180.929 229.412L172.345 221.624H172.32ZM180.232 230.059L171.549 238.17V222.196L180.232 230.059ZM189.488 237.175L181.626 230.034L189.513 222.669V237.15L189.488 237.175ZM192.822 221.624H209.766L201.431 229.412L192.847 221.624H192.822ZM200.735 230.059L192.051 238.17V222.196L200.735 230.059ZM209.99 237.175L202.128 230.034L210.015 222.669V237.175H209.99ZM213.324 221.624H230.269L221.933 229.412L213.349 221.624H213.324ZM221.237 230.059L212.553 238.17V222.196L221.237 230.059ZM230.492 237.175L222.63 230.034L230.517 222.669V237.175H230.492ZM233.827 221.624H250.771L242.435 229.412L233.851 221.624H233.827ZM241.739 230.059L233.055 238.17V222.196L241.739 230.059ZM250.995 237.175L243.132 230.034L251.019 222.669V237.15L250.995 237.175ZM254.329 221.624H271.273L262.938 229.412L254.354 221.624H254.329ZM262.241 230.059L253.557 238.17V222.196L262.241 230.059ZM271.497 237.175L263.634 230.034L271.522 222.669V237.15L271.497 237.175ZM274.831 221.624H291.775L283.44 229.412L274.856 221.624H274.831ZM282.743 230.059L274.059 238.17V222.196L282.743 230.059ZM291.999 237.175L284.136 230.034L292.024 222.669V237.175H291.999ZM294.562 222.196L303.22 230.059L294.537 238.17V222.196H294.562ZM291.999 239.041H274.507L283.44 230.681L291.999 238.444V239.041ZM271.497 239.041H254.005L262.938 230.681L271.497 238.444V239.041ZM250.995 239.041H233.503L242.435 230.681L250.995 238.444V239.041ZM230.492 239.041H213.001L221.933 230.681L230.492 238.444V239.041ZM209.99 239.041H192.499L201.431 230.681L209.99 238.444V239.041ZM189.488 239.041H171.997L180.929 230.681L189.488 238.444V239.041ZM168.986 239.041H151.495L160.427 230.681L168.986 238.444V239.041ZM148.484 239.041H130.992L139.925 230.681L148.484 238.444V239.041ZM296.03 221.649H312.202L303.867 229.437L295.283 221.649H296.054H296.03ZM455.866 237.2L448.004 230.059L455.891 222.694V237.2H455.866ZM447.307 229.437L438.723 221.649H455.667L447.332 229.437H447.307ZM315.76 221.649H332.704L324.369 229.437L315.785 221.649H315.76ZM323.673 230.084L314.989 238.195V222.221L323.673 230.084ZM332.928 237.2L325.066 230.059L332.953 222.694V237.175L332.928 237.2ZM336.262 221.649H353.207L344.871 229.437L336.287 221.649H336.262ZM344.175 230.084L335.491 238.195V222.221L344.175 230.084ZM353.43 237.2L345.568 230.059L353.455 222.694V237.175L353.43 237.2ZM356.765 221.649H373.709L365.373 229.437L356.789 221.649H356.765ZM364.677 230.084L355.993 238.195V222.221L364.677 230.084ZM373.933 237.2L366.07 230.059L373.957 222.694V237.2H373.933ZM377.267 221.649H394.211L385.876 229.437L377.292 221.649H377.267ZM385.179 230.084L376.495 238.195V222.221L385.179 230.084ZM394.435 237.2L386.572 230.059L394.46 222.694V237.2H394.435ZM397.769 221.649H414.713L406.378 229.437L397.794 221.649H397.769ZM405.681 230.084L396.997 238.195V222.221L405.681 230.084ZM414.937 237.2L407.074 230.059L414.962 222.694V237.175L414.937 237.2ZM418.271 221.649H435.215L426.88 229.437L418.296 221.649H418.271ZM426.183 230.084L417.5 238.195V222.221L426.183 230.084ZM435.439 237.2L427.576 230.059L435.464 222.694V237.175L435.439 237.2ZM446.685 230.084L438.002 238.195V222.221L446.685 230.084ZM435.439 239.066H417.947L426.88 230.706L435.439 238.469V239.066ZM414.937 239.066H397.445L406.378 230.706L414.937 238.469V239.066ZM394.435 239.066H376.943L385.876 230.706L394.435 238.469V239.066ZM373.933 239.066H356.441L365.373 230.706L373.933 238.469V239.066ZM353.43 239.066H335.939L344.871 230.706L353.43 238.469V239.066ZM332.928 239.066H315.437L324.369 230.706L332.928 238.469V239.066ZM312.451 237.2L304.589 230.059L312.476 222.694V237.2H312.451ZM455.891 239.066H438.4L447.332 230.706L455.891 238.469V239.066ZM296.054 239.066H294.96L303.892 230.706L312.451 238.469V239.066H296.054ZM101.06 239.066L124.1 223.042C125.27 222.221 126.638 221.773 128.032 221.699V239.066H101.06Z" fill="#E3E3E3"/>
<path d="M386.05 217.942C385.851 229.163 386.224 263.026 386.224 263.026H345.568L346.663 256.333C346.762 255.637 346.762 254.94 346.613 254.268L343.627 239.514L350.917 216.822C351.39 215.379 352.709 214.409 354.227 214.409H382.541C384.482 214.409 386.075 216.001 386.025 217.942H386.05Z" fill="#F1F1F1"/>
<path d="M367.389 217.618V242.4H347.932L345.916 239.713L353.48 217.618H367.389Z" fill="#F7F7F7"/>
<path d="M128.405 218.265C128.405 218.265 128.703 218.141 129.301 217.942C129.947 217.743 130.818 217.469 131.938 217.121C134.327 216.399 137.76 215.379 142.114 214.06C151.047 211.423 163.836 207.666 179.61 203.013C211.359 193.782 255.125 181.068 303.469 167.035C331.311 159.023 357.61 151.434 380.65 144.816L380.974 144.716L381.223 144.94C424.84 185.895 451.985 211.373 455.667 214.832C455.667 214.832 455.12 214.483 454.15 213.687C453.204 212.866 451.786 211.672 449.994 210.054C446.387 206.845 441.137 202.068 434.543 195.996C421.331 183.854 402.621 166.487 380.451 145.786L380.999 145.911C357.984 152.579 331.684 160.192 303.867 168.254C255.498 182.163 211.707 194.728 179.909 203.859C164.084 208.338 151.246 211.97 142.288 214.508C137.885 215.727 134.451 216.673 132.037 217.345C130.918 217.643 130.022 217.867 129.375 218.041C128.778 218.191 128.455 218.265 128.455 218.24L128.405 218.265Z" fill="#E3E3E3"/>
<path d="M472.686 213.438C473.905 213.438 475.05 213.986 475.821 214.956C477.712 217.295 480.549 221.599 480.822 222.022C481.096 222.47 480.947 236.851 480.872 243.992C480.847 246.182 479.056 247.948 476.866 247.948H440.838C438.624 247.948 436.832 246.157 436.832 243.943V217.419C436.832 215.205 438.624 213.413 440.838 213.413H472.686V213.438Z" fill="#F1F1F1"/>
<path d="M362.537 153.474C362.537 156.435 364.926 158.824 367.886 158.824C370.847 158.824 373.236 156.435 373.236 153.474C373.236 150.514 370.847 148.125 367.886 148.125C364.926 148.125 362.537 150.514 362.537 153.474Z" fill="#F1F1F1"/>
<path d="M382.143 149.419C383.792 149.419 385.129 148.082 385.129 146.433C385.129 144.784 383.792 143.447 382.143 143.447C380.494 143.447 379.158 144.784 379.158 146.433C379.158 148.082 380.494 149.419 382.143 149.419Z" fill="#F1F1F1"/>
<path d="M1625.22 292.311H1418.15V920.91H1625.22V292.311Z" fill="#F7F7F7"/>
<path d="M1625.24 292.311H1521.71V919.094H1625.24V292.311Z" fill="#F1F1F1"/>
<path d="M1514.94 227.894H1441.82V292.311H1514.94V227.894Z" fill="#F7F7F7"/>
<path d="M1514.92 227.894H1497.5V292.311H1514.92V227.894Z" fill="#F1F1F1"/>
<path d="M1400.91 292.311V288.554H1631.29V292.311" fill="#E3E3E3"/>
<path d="M1476.55 320.402H1459.03V357.351H1476.55V320.402Z" fill="#FAFAFA"/>
<path d="M1521.71 371.881C1521.71 372.28 1498.52 372.578 1469.96 372.578C1441.39 372.578 1418.18 372.255 1418.18 371.881C1418.18 371.508 1441.34 371.185 1469.96 371.185C1498.57 371.185 1521.71 371.508 1521.71 371.881Z" fill="#E3E3E3"/>
<path d="M1580.98 320.402H1563.46V357.351H1580.98V320.402Z" fill="#E3E3E3"/>
<path d="M1626.14 371.881C1626.14 372.28 1602.95 372.578 1574.38 372.578C1545.82 372.578 1522.61 372.255 1522.61 371.881C1522.61 371.508 1545.77 371.185 1574.38 371.185C1603 371.185 1626.14 371.508 1626.14 371.881Z" fill="#E3E3E3"/>
<path d="M1580.98 393.777H1563.46V430.725H1580.98V393.777Z" fill="#E3E3E3"/>
<path d="M1626.14 445.256C1626.14 445.654 1602.95 445.953 1574.38 445.953C1545.82 445.953 1522.61 445.629 1522.61 445.256C1522.61 444.883 1545.77 444.559 1574.38 444.559C1603 444.559 1626.14 444.883 1626.14 445.256Z" fill="#E3E3E3"/>
<path d="M1580.98 469.366H1563.46V506.315H1580.98V469.366Z" fill="#E3E3E3"/>
<path d="M1626.14 520.845C1626.14 521.243 1602.95 521.542 1574.38 521.542C1545.82 521.542 1522.61 521.219 1522.61 520.845C1522.61 520.472 1545.77 520.149 1574.38 520.149C1603 520.149 1626.14 520.472 1626.14 520.845Z" fill="#E3E3E3"/>
<path d="M1580.98 544.955H1563.46V581.904H1580.98V544.955Z" fill="#E3E3E3"/>
<path d="M1626.14 596.434C1626.14 596.832 1602.95 597.131 1574.38 597.131C1545.82 597.131 1522.61 596.808 1522.61 596.434C1522.61 596.061 1545.77 595.738 1574.38 595.738C1603 595.738 1626.14 596.061 1626.14 596.434Z" fill="#E3E3E3"/>
<path d="M1580.98 618.404H1563.46V655.353H1580.98V618.404Z" fill="#E3E3E3"/>
<path d="M1626.14 669.859C1626.14 670.257 1602.95 670.556 1574.38 670.556C1545.82 670.556 1522.61 670.232 1522.61 669.859C1522.61 669.486 1545.77 669.162 1574.38 669.162C1603 669.162 1626.14 669.486 1626.14 669.859Z" fill="#E3E3E3"/>
<path d="M1580.98 692.128H1563.46V729.076H1580.98V692.128Z" fill="#E3E3E3"/>
<path d="M1580.98 766.821H1563.46V803.769H1580.98V766.821Z" fill="#E3E3E3"/>
<path d="M1626.14 743.582C1626.14 743.98 1602.95 744.278 1574.38 744.278C1545.82 744.278 1522.61 743.955 1522.61 743.582C1522.61 743.209 1545.77 742.885 1574.38 742.885C1603 742.885 1626.14 743.209 1626.14 743.582Z" fill="#E3E3E3"/>
<path d="M1476.55 394.897H1459.03V431.845H1476.55V394.897Z" fill="#FAFAFA"/>
<path d="M1521.71 446.376C1521.71 446.774 1498.52 447.073 1469.96 447.073C1441.39 447.073 1418.18 446.749 1418.18 446.376C1418.18 446.003 1441.34 445.679 1469.96 445.679C1498.57 445.679 1521.71 446.003 1521.71 446.376Z" fill="#E3E3E3"/>
<path d="M1476.55 469.391H1459.03V506.34H1476.55V469.391Z" fill="#FAFAFA"/>
<path d="M1521.71 520.87C1521.71 521.268 1498.52 521.567 1469.96 521.567C1441.39 521.567 1418.18 521.243 1418.18 520.87C1418.18 520.497 1441.34 520.173 1469.96 520.173C1498.57 520.173 1521.71 520.497 1521.71 520.87Z" fill="#E3E3E3"/>
<path d="M1476.55 543.91H1459.03V580.859H1476.55V543.91Z" fill="#FAFAFA"/>
<path d="M1521.71 595.365C1521.71 595.763 1498.52 596.061 1469.96 596.061C1441.39 596.061 1418.18 595.738 1418.18 595.365C1418.18 594.991 1441.34 594.668 1469.96 594.668C1498.57 594.668 1521.71 594.991 1521.71 595.365Z" fill="#E3E3E3"/>
<path d="M1476.55 618.404H1459.03V655.353H1476.55V618.404Z" fill="#FAFAFA"/>
<path d="M1521.71 669.859C1521.71 670.257 1498.52 670.556 1469.96 670.556C1441.39 670.556 1418.18 670.232 1418.18 669.859C1418.18 669.486 1441.34 669.162 1469.96 669.162C1498.57 669.162 1521.71 669.486 1521.71 669.859Z" fill="#E3E3E3"/>
<path d="M1476.55 692.899H1459.03V729.847H1476.55V692.899Z" fill="#FAFAFA"/>
<path d="M1521.71 744.353C1521.71 744.751 1498.52 745.05 1469.96 745.05C1441.39 745.05 1418.18 744.726 1418.18 744.353C1418.18 743.98 1441.34 743.656 1469.96 743.656C1498.57 743.656 1521.71 743.98 1521.71 744.353Z" fill="#E3E3E3"/>
<path d="M1476.55 767.393H1459.03V804.342H1476.55V767.393Z" fill="#FAFAFA"/>
<path d="M445.342 340.88H139.576V921.184H445.342V340.88Z" fill="#E3E3E3"/>
<path d="M445.342 340.88H301.976V921.184H445.342V340.88Z" fill="#F1F1F1"/>
<path d="M231.164 395.494H203.67V462.3H231.164V395.494Z" fill="#F7F7F7"/>
<path d="M231.164 656.921H203.67V723.727H231.164V656.921Z" fill="#F7F7F7"/>
<path d="M301.976 488.5C301.976 489.072 265.625 489.545 220.789 489.545C175.953 489.545 139.576 489.072 139.576 488.5C139.576 487.927 175.928 487.455 220.789 487.455C265.649 487.455 301.976 487.927 301.976 488.5Z" fill="#F7F7F7"/>
<path d="M231.164 527.19H203.67V593.996H231.164V527.19Z" fill="#F7F7F7"/>
<path d="M301.976 620.196C301.976 620.768 265.625 621.241 220.789 621.241C175.953 621.241 139.576 620.768 139.576 620.196C139.576 619.624 175.928 619.151 220.789 619.151C265.649 619.151 301.976 619.624 301.976 620.196Z" fill="#F7F7F7"/>
<path d="M359.899 395.494H332.406V462.3H359.899V395.494Z" fill="#E3E3E3"/>
<path d="M419.565 395.494H392.071V462.3H419.565V395.494Z" fill="#E3E3E3"/>
<path d="M359.899 522.239H332.406V589.045H359.899V522.239Z" fill="#E3E3E3"/>
<path d="M419.565 522.239H392.071V589.045H419.565V522.239Z" fill="#E3E3E3"/>
<path d="M359.899 648.984H332.406V715.79H359.899V648.984Z" fill="#E3E3E3"/>
<path d="M419.565 648.984H392.071V715.79H419.565V648.984Z" fill="#E3E3E3"/>
<path d="M468.332 326.847H116.586V341.377H468.332V326.847Z" fill="#E3E3E3"/>
<path d="M447.481 342.746C447.481 343.318 379.133 343.791 294.86 343.791C210.587 343.791 142.214 343.318 142.214 342.746C142.214 342.173 210.538 341.701 294.86 341.701C379.183 341.701 447.481 342.173 447.481 342.746Z" fill="#F1F1F1"/>
<path d="M1303.48 415.374H1300.99V547.916H1303.48V415.374Z" fill="#E3E3E3"/>
<path d="M1261.33 417.414H1258.84V549.957H1261.33V417.414Z" fill="#E3E3E3"/>
<path d="M1219.18 415.026H1216.69V547.568H1219.18V415.026Z" fill="#E3E3E3"/>
<path d="M1177.03 417.414H1174.54V549.957H1177.03V417.414Z" fill="#E3E3E3"/>
<path d="M1475.31 520.373H1173V919.094H1475.31V520.373Z" fill="#F1F1F1"/>
<path d="M1475.31 520.373H1333.56V919.094H1475.31V520.373Z" fill="#E3E3E3"/>
<path d="M1263.57 574.365H1236.4V640.4H1263.57V574.365Z" fill="#F7F7F7"/>
<path d="M1263.57 832.831H1236.4V898.866H1263.57V832.831Z" fill="#F7F7F7"/>
<path d="M1333.56 666.326C1333.56 667.072 1297.61 667.67 1253.29 667.67C1208.98 667.67 1173 667.072 1173 666.326C1173 665.58 1208.93 664.982 1253.29 664.982C1297.65 664.982 1333.56 665.58 1333.56 666.326Z" fill="#F7F7F7"/>
<path d="M1263.57 704.568H1236.4V770.603H1263.57V704.568Z" fill="#F7F7F7"/>
<path d="M1333.56 796.529C1333.56 797.276 1297.61 797.873 1253.29 797.873C1208.98 797.873 1173 797.276 1173 796.529C1173 795.783 1208.93 795.186 1253.29 795.186C1297.65 795.186 1333.56 795.783 1333.56 796.529Z" fill="#F7F7F7"/>
<path d="M1390.84 574.365H1363.66V640.4H1390.84V574.365Z" fill="#F7F7F7"/>
<path d="M1449.8 574.365H1422.63V640.4H1449.8V574.365Z" fill="#F7F7F7"/>
<path d="M1390.84 699.667H1363.66V765.702H1390.84V699.667Z" fill="#F7F7F7"/>
<path d="M1449.8 699.667H1422.63V765.702H1449.8V699.667Z" fill="#F7F7F7"/>
<path d="M1390.84 824.969H1363.66V891.003H1390.84V824.969Z" fill="#F7F7F7"/>
<path d="M1449.8 824.969H1422.63V891.003H1449.8V824.969Z" fill="#F7F7F7"/>
<path d="M1333.56 527.215V491.262H1363.66V471.556H1404.45V453.915H1475.31V524.403L1333.56 527.215Z" fill="#E3E3E3"/>
<path d="M1334.7 395.419H1332.22V527.962H1334.7V395.419Z" fill="#E3E3E3"/>
<path d="M1364.91 395.419H1362.42V527.962H1364.91V395.419Z" fill="#E3E3E3"/>
<path d="M1405.69 376.734H1403.2V509.276H1405.69V376.734Z" fill="#E3E3E3"/>
<path d="M1474.46 376.734H1471.97V509.276H1474.46V376.734Z" fill="#E3E3E3"/>
<path d="M1440.08 376.734H1437.59V509.276H1440.08V376.734Z" fill="#E3E3E3"/>
<path d="M1333.56 485.017H1176.93V487.505H1333.56V485.017Z" fill="#E3E3E3"/>
<path d="M1404.77 452.671H1177.25V455.159H1404.77V452.671Z" fill="#E3E3E3"/>
<path d="M1728 921.209C1728 921.557 1341.15 921.856 864.05 921.856C386.953 921.856 0 921.557 0 921.209C0 920.861 386.778 920.562 864.05 920.562C1341.32 920.562 1728 920.861 1728 921.209Z" fill="#1A2E35"/>
<path d="M360.438 809.144H354.367V920.885H360.438V809.144Z" fill="#1A2E35"/>
<path d="M363.548 805.312C363.548 808.696 360.811 811.433 357.428 811.433C354.044 811.433 351.307 808.696 351.307 805.312C351.307 801.928 354.044 799.191 357.428 799.191C360.811 799.191 363.548 801.928 363.548 805.312Z" fill="#EF6B0D"/>
<path d="M481.212 809.144H475.141V920.885H481.212V809.144Z" fill="#1A2E35"/>
<path d="M484.322 805.312C484.322 808.696 481.585 811.433 478.201 811.433C474.817 811.433 472.08 808.696 472.08 805.312C472.08 801.928 474.817 799.191 478.201 799.191C481.585 799.191 484.322 801.928 484.322 805.312Z" fill="#EF6B0D"/>
<path d="M492.732 819.918H337V847.784H492.732V819.918Z" fill="#EF6B0D"/>
<path d="M354.616 819.918L354.367 820.39L338.368 847.784H337V819.918H354.616Z" fill="#F7F7F7"/>
<path d="M393.978 819.918L377.706 847.784H356.432L362.901 836.712L372.705 819.918H393.978Z" fill="#F7F7F7"/>
<path d="M433.34 819.918L417.043 847.784H395.769L412.042 819.918H433.34Z" fill="#F7F7F7"/>
<path d="M472.677 819.942L456.38 847.784H435.107L451.404 819.942H472.677Z" fill="#F7F7F7"/>
<path d="M492.732 819.942V847.784H474.444L490.741 819.942H492.732Z" fill="#F7F7F7"/>
<path d="M492.732 862.962H337V890.829H492.732V862.962Z" fill="#EF6B0D"/>
<path d="M354.616 862.962L354.367 863.435L338.368 890.829H337V862.962H354.616Z" fill="#F7F7F7"/>
<path d="M393.978 862.962L377.706 890.829H356.432L362.901 879.757L372.705 862.962H393.978Z" fill="#F7F7F7"/>
<path d="M433.34 862.962L417.043 890.829H395.769L412.042 862.962H433.34Z" fill="#F7F7F7"/>
<path d="M472.677 862.962L456.38 890.829H435.107L451.404 862.962H472.677Z" fill="#F7F7F7"/>
<path d="M492.732 862.962V890.829H474.444L490.741 862.962H492.732Z" fill="#F7F7F7"/>
<path d="M1177.05 204.178H1177.13C1177.13 204.178 1177.18 204.178 1177.2 204.178C1177.63 204.129 1177.95 203.805 1177.95 203.382V202.71V179.198C1177.95 171.733 1171.88 165.662 1164.39 165.687C1161.63 165.687 1159.06 166.508 1156.93 167.926L1146.43 165.613C1145.9 164.02 1144.86 162.577 1143.34 161.607C1139.83 159.392 1135.2 160.462 1133.01 163.946C1130.8 167.454 1131.87 172.082 1135.35 174.271C1136.8 175.192 1138.44 175.515 1140.03 175.366L1150.85 188.279V202.686V203.357C1150.85 203.706 1151.05 203.979 1151.35 204.104C1151.45 204.154 1151.55 204.178 1151.68 204.178H1151.92L1146.2 293.328H1149.44L1150.7 273.721L1163.05 289.994L1160.46 293.328H1163.02L1164.31 291.661L1165.58 293.328H1168.12L1165.61 290.019L1178.4 273.647L1179.69 293.328H1182.93L1177.08 204.178H1177.05ZM1165.04 204.178L1173.37 221.72H1155.13L1163.72 204.178H1165.04ZM1167.28 204.178H1173.82L1174.86 220.152L1167.28 204.178ZM1158.07 204.178H1161.48L1154.24 218.958L1155.18 204.203H1158.04L1158.07 204.178ZM1153.62 229.035L1163.37 244.859L1151.4 263.719L1153.64 229.06L1153.62 229.035ZM1154.88 227.243H1174.57L1164.59 242.943L1154.91 227.243H1154.88ZM1175.51 229.507L1177.8 264.416L1165.76 244.884L1175.51 229.532V229.507ZM1164.56 246.75L1176.28 265.759H1152.5L1164.59 246.75H1164.56ZM1151.48 271.308H1177.7L1164.39 288.352L1151.48 271.308Z" fill="#E3E3E3"/>
<path d="M1189.74 351.027H1186.53V369.763L1172.85 354.66L1186.93 339.582H1188.6V335.078H1154.76V339.607H1157.02L1170.63 354.635L1155.95 370.335V351.002H1150.03V812.848H1155.95V808.916H1186.53V812.848H1192.46V351.027H1189.74ZM1157 736.91L1170.61 751.938L1155.93 767.638V736.91H1156.97H1157ZM1159.21 736.91H1184.69L1171.75 750.744L1159.21 736.91ZM1157.47 732.407L1171.73 717.154L1185.54 732.382H1157.5L1157.47 732.407ZM1155.95 731.635V700.907H1157L1170.61 715.935L1155.93 731.635H1155.95ZM1159.21 700.907H1184.69L1171.75 714.741L1159.21 700.907ZM1157.47 696.403L1171.73 681.151L1185.54 696.379H1157.5L1157.47 696.403ZM1155.95 695.632V664.904H1157L1170.61 679.932L1155.93 695.632H1155.95ZM1159.21 664.904H1184.69L1171.75 678.738L1159.21 664.904ZM1157.47 660.4L1171.73 645.148L1185.54 660.375H1157.5L1157.47 660.4ZM1155.95 659.629V628.901H1157L1170.61 643.929L1155.93 659.629H1155.95ZM1159.21 628.901H1184.69L1171.75 642.735L1159.21 628.901ZM1157.47 624.397L1171.73 609.145L1185.54 624.372H1157.5L1157.47 624.397ZM1155.95 623.626V592.898H1157L1170.61 607.926L1155.93 623.626H1155.95ZM1159.21 592.898H1184.69L1171.75 606.732L1159.21 592.898ZM1157.47 588.394L1171.73 573.142L1185.54 588.369H1157.5L1157.47 588.394ZM1155.95 587.623V556.894H1157L1170.61 571.923L1155.93 587.623H1155.95ZM1159.21 556.894H1184.69L1171.75 570.728L1159.21 556.894ZM1157.47 552.391L1171.73 537.139L1185.54 552.366H1157.5L1157.47 552.391ZM1155.95 551.62V520.891H1157L1170.61 535.92L1155.93 551.62H1155.95ZM1159.21 520.891H1184.69L1171.75 534.725L1159.21 520.891ZM1157.47 516.388L1171.73 501.136L1185.54 516.363H1157.5L1157.47 516.388ZM1155.95 515.617V484.888H1157L1170.61 499.916L1155.93 515.617H1155.95ZM1159.21 484.888H1184.69L1171.75 498.722L1159.21 484.888ZM1157.47 480.385L1171.73 465.133L1185.54 480.36H1157.5L1157.47 480.385ZM1155.95 479.613V448.885H1157L1170.61 463.913L1155.93 479.613H1155.95ZM1159.21 448.885H1184.69L1171.75 462.719L1159.21 448.885ZM1157.47 444.382L1171.73 429.129L1185.54 444.357H1157.5L1157.47 444.382ZM1155.95 443.61V412.882H1157L1170.61 427.91L1155.93 443.61H1155.95ZM1159.21 412.882H1184.69L1171.75 426.716L1159.21 412.882ZM1157.47 768.459L1171.73 753.207L1185.54 768.435H1157.5L1157.47 768.459ZM1172.85 752.013L1186.53 737.358V767.116L1172.85 752.013ZM1172.85 716.01L1186.53 701.355V731.113L1172.85 716.01ZM1172.85 680.007L1186.53 665.352V695.11L1172.85 680.007ZM1172.85 644.004L1186.53 629.349V659.107L1172.85 644.004ZM1172.85 608L1186.53 593.345V623.103L1172.85 608ZM1172.85 571.997L1186.53 557.342V587.1L1172.85 571.997ZM1172.85 535.994L1186.53 521.339V551.097L1172.85 535.994ZM1172.85 499.991L1186.53 485.336V515.094L1172.85 499.991ZM1172.85 463.988L1186.53 449.333V479.091L1172.85 463.988ZM1172.85 427.985L1186.53 413.33V443.088L1172.85 427.985ZM1186.09 408.403H1156.9L1171.73 392.554L1186.09 408.403ZM1172.85 391.36L1186.53 376.705V406.463L1172.85 391.36ZM1155.95 407.06V376.332H1157L1170.61 391.36L1155.93 407.06H1155.95ZM1155.95 773.013H1157L1170.61 788.041L1155.93 803.741V773.013H1155.95ZM1159.21 773.013H1184.69L1171.75 786.847L1159.21 773.013ZM1186.53 773.411V803.169L1172.85 788.066L1186.53 773.411ZM1171.75 390.141L1159.21 376.307H1184.69L1171.75 390.141ZM1171.75 789.26L1185.56 804.487H1157.52L1171.78 789.26H1171.75ZM1159.24 339.682H1184.72L1171.78 353.515L1159.24 339.682ZM1186.11 371.778H1156.93L1171.75 355.929L1186.11 371.778Z" fill="#E3E3E3"/>
<path d="M1637.51 329.878L1593.04 296.911C1590.88 295.293 1588.27 294.448 1585.55 294.448H1002.96V300.369H1005.65V330.948H1002.96V336.87H1635.42C1637.38 336.87 1638.97 335.278 1638.97 333.312V332.74C1638.97 331.62 1638.45 330.55 1637.53 329.878H1637.51ZM1565.3 314.054L1550.65 300.369H1580.4L1565.3 314.054ZM1581.75 301.364V329.406L1566.52 315.149L1581.75 301.34V301.364ZM1550.25 302.21L1564.11 315.149L1550.27 327.689V302.21H1550.25ZM1529.3 314.054L1514.64 300.369H1544.4L1529.3 314.054ZM1545.74 301.364V329.406L1530.52 315.149L1545.74 301.34V301.364ZM1514.24 302.21L1528.1 315.149L1514.27 327.689V302.21H1514.24ZM1493.29 314.054L1478.64 300.369H1508.4L1493.29 314.054ZM1509.74 301.364V329.406L1494.51 315.149L1509.74 301.34V301.364ZM1478.24 302.21L1492.1 315.149L1478.27 327.689V302.21H1478.24ZM1457.29 314.054L1442.64 300.369H1472.39L1457.29 314.054ZM1473.74 301.364V329.406L1458.51 315.149L1473.74 301.34V301.364ZM1442.24 302.21L1456.1 315.149L1442.26 327.689V302.21H1442.24ZM1421.29 314.054L1406.63 300.369H1436.39L1421.29 314.054ZM1437.73 301.364V329.406L1422.51 315.149L1437.73 301.34V301.364ZM1406.23 302.21L1420.09 315.149L1406.26 327.689V302.21H1406.23ZM1385.28 314.054L1370.63 300.369H1400.39L1385.28 314.054ZM1401.73 301.364V329.406L1386.5 315.149L1401.73 301.34V301.364ZM1370.23 302.21L1384.09 315.149L1370.26 327.689V302.21H1370.23ZM1349.28 314.054L1334.63 300.369H1364.38L1349.28 314.054ZM1365.73 301.364V329.406L1350.5 315.149L1365.73 301.34V301.364ZM1334.23 302.21L1348.09 315.149L1334.25 327.689V302.21H1334.23ZM1313.28 314.054L1298.62 300.369H1328.38L1313.28 314.054ZM1329.73 301.364V329.406L1314.5 315.149L1329.73 301.34V301.364ZM1298.23 302.21L1312.08 315.149L1298.25 327.689V302.21H1298.23ZM1293.75 329.406L1278.49 315.149L1293.72 301.34V329.381L1293.75 329.406ZM1298.25 329.878L1313.28 316.268L1328.98 330.948H1298.25V329.903V329.878ZM1334.25 329.878L1349.28 316.268L1364.98 330.948H1334.25V329.903V329.878ZM1370.26 329.878L1385.28 316.268L1400.98 330.948H1370.26V329.903V329.878ZM1406.26 329.878L1421.29 316.268L1436.99 330.948H1406.26V329.903V329.878ZM1442.26 329.878L1457.29 316.268L1472.99 330.948H1442.26V329.903V329.878ZM1478.27 329.878L1493.29 316.268L1508.99 330.948H1478.27V329.903V329.878ZM1514.27 329.878L1529.3 316.268L1545 330.948H1514.27V329.903V329.878ZM1550.27 329.878L1565.3 316.268L1581 330.948H1550.27V329.903V329.878ZM1292.38 300.344L1277.28 314.029L1262.62 300.344H1292.38ZM1010.15 302.21L1024.01 315.149L1010.18 327.689V302.21H1010.15ZM1010.57 300.344H1040.33L1025.23 314.029L1010.57 300.344ZM1241.27 314.029L1226.62 300.344H1256.38L1241.27 314.029ZM1257.72 301.34V329.381L1242.49 315.124L1257.72 301.315V301.34ZM1226.22 302.186L1240.08 315.124L1226.24 327.664V302.186H1226.22ZM1205.27 314.029L1190.61 300.344H1220.37L1205.27 314.029ZM1221.72 301.34V329.381L1206.49 315.124L1221.72 301.315V301.34ZM1190.22 302.186L1204.08 315.124L1190.24 327.664V302.186H1190.22ZM1169.27 314.029L1154.61 300.344H1184.37L1169.27 314.029ZM1185.71 301.34V329.381L1170.49 315.124L1185.71 301.315V301.34ZM1154.21 302.186L1168.07 315.124L1154.24 327.664V302.186H1154.21ZM1133.26 314.029L1118.61 300.344H1148.37L1133.26 314.029ZM1149.71 301.34V329.381L1134.48 315.124L1149.71 301.315V301.34ZM1118.21 302.186L1132.07 315.124L1118.23 327.664V302.186H1118.21ZM1097.26 314.029L1082.6 300.344H1112.36L1097.26 314.029ZM1113.71 301.34V329.381L1098.48 315.124L1113.71 301.315V301.34ZM1082.21 302.186L1096.07 315.124L1082.23 327.664V302.186H1082.21ZM1061.26 314.029L1046.6 300.344H1076.36L1061.26 314.029ZM1077.7 301.34V329.381L1062.48 315.124L1077.7 301.315V301.34ZM1046.2 302.186L1060.06 315.124L1046.23 327.664V302.186H1046.2ZM1041.7 301.34V329.381L1026.47 315.124L1041.7 301.315V301.34ZM1046.23 329.878L1061.26 316.268L1076.96 330.948H1046.23V329.903V329.878ZM1082.23 329.878L1097.26 316.268L1112.96 330.948H1082.23V329.903V329.878ZM1118.23 329.878L1133.26 316.268L1148.96 330.948H1118.23V329.903V329.878ZM1154.24 329.878L1169.27 316.268L1184.97 330.948H1154.24V329.903V329.878ZM1190.24 329.878L1205.27 316.268L1220.97 330.948H1190.24V329.903V329.878ZM1226.24 329.878L1241.27 316.268L1256.97 330.948H1226.24V329.903V329.878ZM1262.25 302.21L1276.11 315.149L1262.27 327.689V302.21H1262.25ZM1010.23 329.878L1025.25 316.268L1040.95 330.948H1010.23V329.903V329.878ZM1262.27 330.923V329.878L1277.3 316.268L1293 330.948H1262.27V330.923ZM1586.33 330.923V300.394C1588.79 300.543 1591.18 301.315 1593.22 302.733L1633.7 330.898H1586.3L1586.33 330.923Z" fill="#E3E3E3"/>
<path d="M1132.79 293.9C1133.14 313.606 1132.49 373.122 1132.49 373.122H1203.95L1202.03 361.378C1201.84 360.184 1201.86 358.94 1202.11 357.745L1207.33 331.844L1194.52 291.959C1193.7 289.422 1191.36 287.705 1188.7 287.705H1138.94C1135.5 287.705 1132.74 290.491 1132.82 293.925L1132.79 293.9Z" fill="#F1F1F1"/>
<path d="M1165.58 293.328V336.87H1199.77L1203.3 332.167L1190.04 293.328H1165.58Z" fill="#F7F7F7"/>
<path d="M1585.55 294.447C1585.55 294.447 1585.01 294.323 1583.94 294.049C1582.84 293.751 1581.27 293.328 1579.26 292.755C1575.1 291.586 1569.06 289.869 1561.27 287.68C1545.64 283.201 1523.08 276.757 1495.21 268.82C1439.43 252.746 1362.44 230.577 1277.42 206.094C1228.53 191.937 1182.3 178.551 1141.87 166.857L1142.42 166.732C1103.51 203.133 1070.66 233.687 1047.47 255.06C1035.88 265.759 1026.72 274.144 1020.4 279.842C1017.27 282.703 1014.8 284.843 1013.14 286.286C1011.47 287.729 1010.52 288.376 1010.52 288.376C1010.52 288.376 1010.72 288.177 1011.15 287.804C1011.57 287.431 1012.22 286.933 1013.01 286.162C1014.65 284.644 1017.04 282.455 1020.15 279.593C1026.4 273.771 1035.48 265.312 1047 254.588C1070.04 232.991 1102.76 202.337 1141.62 165.911L1141.87 165.687L1142.2 165.787C1182.63 177.456 1228.88 190.792 1277.8 204.9C1362.79 229.532 1439.73 251.826 1495.48 267.999C1523.3 276.135 1545.82 282.703 1561.42 287.257C1569.16 289.546 1575.18 291.337 1579.33 292.556C1581.35 293.178 1582.89 293.626 1583.99 293.975C1585.03 294.298 1585.55 294.497 1585.55 294.497V294.447Z" fill="#E3E3E3"/>
<path d="M980.567 285.988C978.427 285.988 976.412 286.958 975.068 288.65C971.759 292.78 966.758 300.295 966.285 301.066C965.813 301.837 966.036 327.141 966.186 339.682C966.236 343.538 969.371 346.623 973.202 346.623H1036.5C1040.38 346.623 1043.52 343.488 1043.52 339.607V292.98C1043.52 289.098 1040.38 285.963 1036.5 285.963L980.542 286.013L980.567 285.988Z" fill="#F1F1F1"/>
<path d="M713.021 8.61604C713.021 13.8162 708.816 18.0211 703.616 18.0211C698.416 18.0211 694.211 13.8162 694.211 8.61604C694.211 3.41586 698.416 -0.789062 703.616 -0.789062C708.816 -0.789062 713.021 3.41586 713.021 8.61604Z" fill="#F1F1F1"/>
<path d="M683.81 -3.75006C683.81 -0.863844 681.472 1.49987 678.56 1.49987C675.649 1.49987 673.31 -0.838963 673.31 -3.75006C673.31 -6.66117 675.649 -9 678.56 -9C681.472 -9 683.81 -6.66117 683.81 -3.75006Z" fill="#F1F1F1"/>
</g>
<defs>
<radialGradient id="paint0_radial_1602_7838" cx="0" cy="0" r="1" gradientUnits="userSpaceOnUse" gradientTransform="translate(863.986 564.436) scale(1417.97 1035.11)">
<stop stop-color="white"/>
<stop offset="0.17" stop-color="#FFFDFB"/>
<stop offset="0.3" stop-color="#FFF7F2"/>
<stop offset="0.42" stop-color="#FFECE1"/>
<stop offset="0.53" stop-color="#FFDEC9"/>
<stop offset="0.64" stop-color="#FFCBAB"/>
<stop offset="0.74" stop-color="#FFB586"/>
<stop offset="0.84" stop-color="#FF9A59"/>
<stop offset="0.93" stop-color="#FF7B28"/>
<stop offset="1" stop-color="#FF6300"/>
</radialGradient>
</defs>
</svg>
