<?xml version="1.0" encoding="UTF-8"?>
<!-- Generator: Adobe Illustrator 28.0.0, SVG Export Plug-In . SVG Version: 6.00 Build 0)  -->
<svg xmlns="http://www.w3.org/2000/svg" xmlns:xlink="http://www.w3.org/1999/xlink" version="1.1" id="Layer_1" x="0px" y="0px" viewBox="0 0 175 30" style="enable-background:new 0 0 175 30;" xml:space="preserve">
<style type="text/css">
	.st0{fill:#FF4D00;}
</style>
<path class="st0" d="M125.1,29.7h5.6V0.3h-5.8l-12.7,20l-11.9-20H95V24H77.1v-5.8h15.8v-6.3H77.2V6.6h15.7V0.3H71.5v29.5h29.2V13.9  l9.5,15.9h4.6l10.3-16.4C125.1,13.3,125.1,29.7,125.1,29.7z M70.3,29.7V0.3h-8.5L44.3,29.7h6.2l3.3-5.9h9.7v-5.6h-6.2l7.2-12.1h0.8  v23.6H70.3z M44.3,0.3v28l16.5-28C60.8,0.3,44.3,0.3,44.3,0.3z M46.3,2.3h11.6L46.3,21.6V2.3z"></path>
</svg>
