<?xml version="1.0" encoding="UTF-8"?>
<!-- Generator: Adobe Illustrator 28.0.0, SVG Export Plug-In . SVG Version: 6.00 Build 0)  -->
<svg xmlns="http://www.w3.org/2000/svg" xmlns:xlink="http://www.w3.org/1999/xlink" version="1.1" id="Layer_1" x="0px" y="0px" viewBox="0 0 175 30" style="enable-background:new 0 0 175 30;" xml:space="preserve">
<style type="text/css">
	.st0{fill:#018DAB;}
	.st1{fill:#EC6D12;}
</style>
<g>
	<path class="st0" d="M174.4,21.1c-0.2,0.5-0.5,1-0.8,1.4c-1.4,1.4-3.6,1.8-5.3,0.7c-0.7-0.4-1.3-1-1.8-1.4   c-2.4-2.4-4.8-4.7-7.2-7.1c-1.2-1.2-2.4-2.4-3.6-3.5l-0.1-0.1l-0.1-0.1c-0.1,0,0,0.1,0,0.2c0,4,0,8,0,11.9c0,0.4,0,0.4-0.4,0.4   c-1.2,0-2.5,0-3.7,0c-0.2,0-0.2-0.1-0.2-0.2c0-4.3,0-8.7,0-13c0-1.2,0.6-2.3,1.6-3c1.9-1.3,4.1-1.2,5.9,0.4   c0.8,0.7,1.6,1.6,2.4,2.3c1.7,1.7,3.4,3.4,5.1,5.1c1.2,1.2,2.4,2.3,3.6,3.5c0.2,0.2,0.5,0.5,0.8,0.8l0.1,0.1v-0.1   c0-0.1,0-0.1,0-0.2c0-4,0-8,0-11.9c0-0.2,0.1-0.4,0.4-0.4c1.2,0,2.3,0,3.5,0c0.1,0,0.2,0,0.2,0C174.4,11.4,174.4,16.2,174.4,21.1z"></path>
	<path class="st0" d="M138.6,10.8c-3.1,0-6.3,0-9.4,0c-0.2,0-0.4,0.1-0.4,0.4c0,0.5,0,1,0,1.4c0,0.2,0.1,0.4,0.2,0.2   c0,0,0.1,0,0.2,0c6.3,0,12.4,0,18.7,0c0.5,0,0.4,0,0.4,0.4c0,1.2,0,2.5,0,3.7c0,0.2,0,0.2-0.2,0.2c-1.4,0-2.9,0-4.5,0   c-2.9,0-5.7,0-8.6,0c-2,0-4,0-6,0c-0.2,0-0.4,0-0.4,0.4c0,0.5,0,1,0,1.4c0,0.1,0,0.2,0.2,0.2c0.1,0,0.1,0,0.2,0   c6.3,0,12.5,0,18.8,0c0.2,0,0.4,0,0.4,0.4c0,1.2,0,2.4,0,3.6c0,0.2,0,0.2-0.2,0.2c-5.9,0-11.9,0-17.8,0c-1.3,0-2.7-0.2-3.7-1.2   c-1-0.8-1.8-1.8-2-3.1c0-0.2-0.1-0.6-0.1-1c0-2,0-4.2,0-6.3c0-1.8,0.8-3.3,2.3-4.3c0.8-0.6,1.7-0.8,2.7-1c0.4,0,0.8,0,1.2,0   c5.8,0,11.6,0,17.4,0c0.4,0,0.4,0,0.4,0.4c0,1.2,0,2.4,0,3.6c0,0.2-0.1,0.2-0.2,0.2C145,10.8,141.9,10.8,138.6,10.8z"></path>
	<path class="st0" d="M112.4,10.8c-3.3,0-6.4,0-9.6,0c-0.2,0-0.2,0.1-0.2,0.4c0,2.7,0,5.2,0,7.8c0,0.2,0.1,0.2,0.4,0.2   c4.9,0,9.9,0,15,0c0.2,0,0.4-0.1,0.2-0.2c0-0.5,0-1.1,0-1.6c0-0.2-0.1-0.2-0.2-0.2c-2.3,0-4.7,0-7,0c-0.2,0-0.4,0-0.4-0.4   c0-1.2,0-2.4,0-3.6c0-0.2,0-0.2,0.2-0.2c3.9,0,7.7,0,11.6,0c0.2,0,0.2,0.1,0.2,0.2c0,1.7,0,3.4,0,5.1c0,1.4-0.6,2.7-1.7,3.6   c-1.1,1.1-2.3,1.4-3.7,1.6c-0.4,0-0.7,0-1.1,0c-3.9,0-7.7,0-11.6,0c-0.6,0-1.2,0-1.8-0.1c-1.4-0.2-2.5-1.2-3.4-2.4   c-0.6-0.8-1-1.9-1-3c0-2,0-4.2,0-6.3c0-0.8,0.2-1.6,0.7-2.3c0.5-0.7,1.1-1.3,1.8-1.8c1-0.6,2-0.8,3.1-0.8c0.4,0,0.7,0,1.1,0   c5.8,0,11.6,0,17.4,0c0.2,0,0.4,0.1,0.4,0.4c0,1.2,0,2.4,0,3.6c0,0.2-0.1,0.2-0.2,0.2C118.9,10.8,115.7,10.8,112.4,10.8z"></path>
	<path class="st0" d="M35,7.1c2.9,0,5.8,0,8.7,0c1.9,0,3.3,0.7,4.3,2.3c1,1.3,1.2,2.8,0.8,4.3c-0.1,0.5-0.4,0.8-0.6,1.3   c-0.1,0.2-0.1,0.4,0,0.5c0.5,0.6,0.8,1.3,1,2.2c0,0.2,0,0.4,0,0.6c0,1.8,0,3.6,0,5.4c0,0.2,0,0.2-0.2,0.2c-1.3,0-2.5,0-3.9,0   c-0.2,0-0.2,0-0.2-0.2c0-1.9,0-3.9,0-5.8c0-0.2-0.1-0.2-0.4-0.2c-4.8,0-9.8,0-14.6,0c-0.2,0-0.4,0.1-0.4,0.4c0,1.9,0,3.9,0,5.8   c0,0.2-0.1,0.2-0.4,0.2c-1.3,0-2.5,0-3.9,0c-0.2,0-0.2,0-0.2-0.2c0-5.4,0-10.9,0-16.3c0-0.2,0.1-0.2,0.2-0.2   C28.6,7.1,31.9,7.1,35,7.1z M37.2,13.2c2.4,0,4.8,0,7.4,0c0.2,0,0.2,0,0.2-0.2c0-0.5,0-1,0-1.4c0-0.2-0.1-0.2-0.4-0.2   c-3,0-6,0-8.9,0c-1.9,0-3.7,0-5.7,0c-0.2,0-0.2,0-0.2,0.2c0,0.5,0,1,0,1.4c0,0.2,0.1,0.2,0.2,0.2C32.4,13.2,34.8,13.2,37.2,13.2z"></path>
	<path class="st0" d="M65.8,11.3c-3.3,0-6.4,0-9.6,0c-0.2,0-0.4,0-0.4,0.2c0,2.7,0,5.2,0,7.8c0,0.2,0.1,0.2,0.2,0.2   c6.4,0,12.9,0,19.3,0c0.2,0,0.4,0,0.4,0.4c0,1.2,0,2.4,0,3.6c0,0.2,0,0.2-0.2,0.2c-6.3,0-12.4,0-18.7,0c-2.3,0-4.5-1.6-5.1-3.7   c-0.1-0.4-0.1-0.8-0.1-1.2c0-2,0-4.2,0-6.3c0-1.1,0.2-2.3,0.8-3.3c1-1.6,2.5-2.4,4.3-2.4c3.9-0.1,7.7,0,11.5,0c2.4,0,4.8,0,7.2,0   c0.4,0,0.4,0,0.4,0.4c0,1.2,0,2.4,0,3.6c0,0.2,0,0.4-0.4,0.4C72.3,11.3,69,11.3,65.8,11.3z"></path>
	<path class="st1" d="M89.2,0c0,0,5.4,9.8,6.1,10.9c0.1,0.3,0.1,0.3-0.1,0.3c-1.6,0.1-3.2,0.3-4.8,0.4c-0.3,0-0.3,0.1-0.1,0.3   c1.4,2.1,2.8,4.3,4.2,6.4c0.4,0.5,0.3,0.4-0.3,0.5c-0.8,0.3-1.6,0.5-2.4,0.8c-0.3,0.1-0.3,0.1-0.1,0.4c1.1,2.1,2.3,4.4,3.4,6.6   c0.6,1.1,1.3,2.4,1.8,3.5c0,0,0.1,0.1,0,0.1l-0.1-0.1c-1.3-1.3-2.7-2.7-3.9-3.9c-1.6-1.6-3.3-3.3-4.9-4.9c-1-1-2-1.9-2.9-2.9   L84.7,18c0-0.1,0.1,0,0.3-0.1c1-0.1,2-0.4,3-0.5c0.3,0,0.3-0.1,0.1-0.3c-1.6-1.9-3.2-3.7-4.8-5.6c-0.6-0.8-1.3-1.5-2-2.3l-0.1-0.1   c0-0.1,0.1,0,0.3,0c1.6-0.1,3.3-0.4,4.9-0.5h0.1c0-0.1-0.1-0.1-0.1-0.1C84.1,6.7,76,0,76,0H89.2z"></path>
	<path class="st0" d="M21.5,23.8c-0.7,0-1.4,0-2.3,0c-0.1,0-0.2,0-0.4-0.2c-0.7-1.4-1.4-2.8-2.2-4.1c-0.1-0.2-0.2-0.2-0.4-0.2   c-2.8,0-5.5,0-8.2,0c-0.2,0-0.4,0.1-0.4,0.2c-0.8,1.4-1.6,2.8-2.3,4.1c-0.1,0.1-0.1,0.2-0.4,0.2c-1.3,0-2.7,0-4.1,0   c-0.1,0-0.4,0.1-0.4,0c-0.1-0.2-0.1-0.4,0-0.6c0.1-0.4,0.4-0.6,0.5-1c1.6-2.9,3.3-5.9,4.8-8.8c0.7-1.2,1.3-2.4,1.9-3.6   c0.6-1,1.2-1.7,1.9-2.3c1.7-1.4,3.9-1.2,5.3,0.5c0.7,0.8,1.2,1.7,1.7,2.7c1.1,2,2.2,4.1,3.4,6c1,1.7,1.9,3.5,2.9,5.2   c0.2,0.5,0.6,1.1,0.8,1.6c0.1,0.1,0.1,0.2-0.1,0.2C23.1,23.8,22.2,23.8,21.5,23.8z M12.2,14.9c0.6,0,1.2,0,1.8,0   c0.1,0,0.2,0,0.1-0.1c-0.6-1.1-1.2-2.2-1.8-3.3c-0.1-0.1-0.1-0.1-0.2,0c-0.6,1.1-1.2,2.2-1.8,3.3c-0.1,0.1,0,0.2,0.1,0.2   C11,14.9,11.6,14.9,12.2,14.9z"></path>
</g>
</svg>
