<?xml version="1.0" encoding="UTF-8"?>
<!-- Generator: Adobe Illustrator 28.0.0, SVG Export Plug-In . SVG Version: 6.00 Build 0)  -->
<svg xmlns="http://www.w3.org/2000/svg" xmlns:xlink="http://www.w3.org/1999/xlink" version="1.1" id="Layer_1" x="0px" y="0px" viewBox="0 0 175 30" style="enable-background:new 0 0 175 30;" xml:space="preserve">
<style type="text/css">
	.st0{fill:#EF6B0D;}
</style>
<g>
	<path class="st0" d="M21.1,0.2h12.4c6.8,0,11.1,0.6,13.6,3.9c1.3,1.7,1.9,4.5,1.1,8c-0.7,3.4-2.5,6.8-4.9,8.4   c-3.2,2.2-5.9,3.1-13.1,3.1h-14L21.1,0.2z M27,18.3h2.7c4.4,0,7.5-2,8.4-6.4c0.9-4.4-1.3-6.4-5.7-6.4h-2.7L27,18.3z"></path>
	<path class="st0" d="M59.2,16.7c-0.6,2.8,0.2,4,2.4,4c1.8,0,2.7-0.8,3.2-1.9H74c-0.9,2.7-4.7,5.3-13,5.3c-7.5,0-12.1-2.5-10.8-8.6   c1.3-6.3,7.1-8.8,14.2-8.8c6.1,0,11.9,2,10.4,9.2l-0.2,0.9H59.2V16.7z M66.1,13.6c0.4-2.1-0.3-3.5-2.4-3.5c-2,0-3.4,1.4-3.9,3.5   H66.1z"></path>
	<path class="st0" d="M78.6,13.7c0.5-2.2,0.9-4.3,1.1-6.4H89l-0.5,2.8h0.1c2-2.3,4.8-3.5,8.1-3.5c2.9,0,7.6,1,6.3,7.2l-2,9.7h-9.4   l1.8-8.7c0.5-2.4-0.2-3.2-1.9-3.2c-2.2,0-3.4,1.4-3.9,3.9l-1.7,8.1h-9.4L78.6,13.7L78.6,13.7z"></path>
	<path class="st0" d="M107.7,29.8l4.7-6.2l-5.9-16.3h10.4l1.9,8.7l5.5-8.7h9.3l-8.1,10.6c-4.6,6-6.9,9.3-8.4,11.9H107.7z"></path>
	<path class="st0" d="M147.7,6.7c7.7,0,12.3,2.1,10.9,8.7c-1.4,6.6-6.9,8.7-14.6,8.7s-12.3-2.1-10.9-8.7   C134.4,8.8,139.9,6.7,147.7,6.7z M144.9,20c2.3,0,3.5-2.1,4-4.6s0.2-4.6-2.1-4.6s-3.5,2.1-4,4.6C142.3,17.9,142.6,20,144.9,20z"></path>
</g>
</svg>
