<?xml version="1.0" encoding="UTF-8"?>
<!-- Generator: Adobe Illustrator 28.0.0, SVG Export Plug-In . SVG Version: 6.00 Build 0)  -->
<svg xmlns="http://www.w3.org/2000/svg" xmlns:xlink="http://www.w3.org/1999/xlink" version="1.1" id="Layer_1" x="0px" y="0px" viewBox="0 0 175 30" style="enable-background:new 0 0 175 30;" xml:space="preserve">
<style type="text/css">
	.st0{fill:#018DAB;}
	.st1{fill:#ED6E12;}
</style>
<g>
	<path class="st0" d="M159.2,25.4c-1.1-2-2.2-4-3.3-6c-1.2-2.1-2.3-4.2-3.5-6.3c-0.8-1.4-1.6-2.9-2.3-4.3c-0.5-0.9-1.1-1.8-1.9-2.5   l0,0c-0.5-0.5-1.1-0.9-1.8-1.1c-0.4-0.1-0.8-0.1-1.2-0.1s-0.8,0-1.2,0.1c-0.7,0.2-1.3,0.6-1.8,1.1l0,0c-0.8,0.7-1.4,1.6-1.9,2.5   c-0.8,1.5-1.5,2.9-2.3,4.3c-1.2,2.1-2.3,4.2-3.5,6.3c-1.1,2-2.2,4-3.3,6c0,0.1-0.1,0.1-0.1,0.2c0.1,0,0.1,0,0.2,0c1,0,1.9,0,2.9,0   c0.4,0,0.8,0,1.3,0l0,0c0.1,0,0.1,0,0.2,0c0.4,0,0.8,0,1.2,0h0.1h0.1c0.1,0,0.2,0,0.2-0.1c0,0,0,0,0-0.1c0.5-1,1.1-2,1.6-3   c0.4-0.7,0.8-1.4,1.1-2.1c0.1-0.1,0.2-0.2,0.3-0.2c1.7,0,3.3,0,5,0h0.1h0.1c1.7,0,3.3,0,5,0c0.2,0,0.2,0,0.3,0.2   c0.4,0.7,0.8,1.4,1.1,2.1c0.5,1,1.1,2,1.6,3c0,0,0,0,0,0.1c0.1,0.1,0.1,0.1,0.2,0.1h0.1h0.1c0.4,0,0.8,0,1.2,0c0.1,0,0.1,0,0.2,0   l0,0c0.4,0,0.8,0,1.3,0c1,0,1.9,0,2.9,0c0.1,0,0.1,0,0.2,0C159.3,25.5,159.3,25.4,159.2,25.4z M145.1,10.5c0.8,1.5,1.6,2.9,2.4,4.3   c-1.6,0-3.1,0-4.7,0C143.5,13.4,144.3,12,145.1,10.5z"></path>
	<path class="st1" d="M32.1,0.2c1,0.1,1.9,0.3,2.9,0.6c3.3,1,6,2.9,8,5.7c1.2,1.8,2,3.8,2.3,5.9c0.1,1.1,0.1,2.3,0,3.4   c0,0,0,0,0,0.1c-0.1-0.1-0.1-0.2-0.1-0.3c-0.7-3.4-2.3-6.3-5-8.4c-1.8-1.4-3.9-2.3-6.3-2.6c-3.6-0.4-6.8,0.5-9.5,2.9   c-2.4,2-3.7,4.5-4.2,7.5c-0.4,2.6,0,5.1,1.2,7.4c1.5,2.9,3.7,5,6.7,6.3c1,0.4,2.1,0.7,3.1,0.9c0.1,0,0.1,0,0.1,0.1   c-0.1,0.1-0.2,0-0.3,0.1c-1.1,0-2.3,0-3.4,0c-0.1-0.1-0.2-0.1-0.3-0.1c-2.2-0.4-4.2-1.3-6-2.6c-1.6-1.2-2.9-2.7-3.8-4.4   c-1.2-2.2-1.8-4.5-1.9-7c0-1.3,0.1-2.7,0.5-4c0.5-2,1.4-3.9,2.7-5.5c1.4-1.8,3.1-3.2,5.1-4.3c1.6-0.8,3.2-1.3,4.9-1.5   c0.2,0,0.4,0,0.6-0.1C30.4,0.2,31.3,0.2,32.1,0.2z"></path>
	<path class="st0" d="M78.7,15.5c0,3.2,0,6.4,0,9.7c0,0.1,0,0.1,0,0.2c0,0.2,0,0.2-0.2,0.2c-1.6,0-3.2,0-4.7,0c-0.3,0-0.3,0-0.3-0.3   c0-2.4,0-4.8,0-7.2c0-0.4,0-0.3-0.3-0.3c-6,0-12,0-18.1,0c-0.4,0-0.3,0-0.3,0.3c0,2.3,0,4.7,0,7c0,0.1,0,0.1,0,0.2   c0,0.2,0,0.2-0.2,0.2c-1.6,0-3.2,0-4.7,0c-0.3,0-0.3,0-0.3-0.3c0-5.4,0-10.9,0-16.3c0-1.1,0-2.2,0-3.3c0-0.1,0-0.1,0-0.2   s0-0.1,0.1-0.1s0.1,0,0.2,0c1.5,0,3.1,0,4.6,0h0.1c0.1,0,0.2,0,0.2,0.2c0,0.1,0,0.1,0,0.2c0,2.2,0,4.4,0,6.6c0,0.4,0,0.3,0.3,0.3   c6,0,12,0,18,0h0.1c0.3,0,0.3,0,0.3-0.3c0-2.2,0-4.5,0-6.7V5.5c0-0.3,0-0.3,0.3-0.3c1.6,0,3.1,0,4.7,0h0.1c0.1,0,0.2,0,0.2,0.2   c0,0.1,0,0.2,0,0.2C78.7,9,78.7,12.3,78.7,15.5z"></path>
	<path class="st0" d="M123.3,5.4c4.7,0,9.3,0,14,0c0.4,0,0.4,0,0.4,0.4c0,1.5,0,2.9,0,4.4c0,0.1,0,0.1,0,0.2c0,0.1,0,0.2-0.2,0.2   c-0.1,0-0.1,0-0.2,0c-3.7,0-7.3,0-11,0c-0.4,0-0.3-0.1-0.3,0.4c0,4.8,0,9.6,0,14.3c0,0.1,0,0.1,0,0.2c0,0.3,0,0.3-0.3,0.3   c-1.6,0-3.1,0-4.7,0h-0.1c-0.1,0-0.2-0.1-0.2-0.2s0-0.1,0-0.2c0-4.8,0-9.5,0-14.3V11c0-0.3,0-0.3-0.3-0.3c-3.7,0-7.4,0-11.1,0   c-0.4,0-0.3,0-0.3-0.3c0-1.5,0-2.9,0-4.4V5.9c0-0.2,0-0.2,0.2-0.2c0.1,0,0.1,0,0.2,0C114.1,5.4,118.7,5.4,123.3,5.4z"></path>
	<path class="st0" d="M106.7,25.6c-3.6,0-7.1,0-10.7,0c-2.4,0-4.2-1.1-5.6-3.1c-0.6-0.9-0.9-1.9-0.9-3c0-4.6,0-9.2,0-13.8V5.6   c0-0.2,0-0.2,0.2-0.2c1.6,0,3.2,0,4.7,0c0.3,0,0.3,0,0.3,0.3c0,2.3,0,4.6,0,6.9c0,2.6,0,5.1,0,7.7c0,0.4,0,0.3,0.3,0.3   c7.5,0,15.1,0,22.6,0c0.4,0,0.4-0.1,0.4,0.4c0,1.4,0,2.9,0,4.3c0,0.4,0,0.4-0.3,0.4C114.1,25.6,110.4,25.6,106.7,25.6z"></path>
	<path class="st1" d="M24,23.5c-0.2-0.1-0.3-0.3-0.4-0.4c-1.4-1.8-2.1-3.8-2.1-6.1c-0.1-4.4,2.7-8.6,6.9-10.3c1.6-0.6,3.2-1,4.9-0.9   C36.2,5.9,38.7,7,40.8,9c1.8,1.7,2.9,3.8,3.4,6.2c0.4,2.3,0.1,4.6-1,6.7c-1,1.9-2.4,3.4-4.2,4.4c-0.1,0.1-0.2,0.1-0.3,0.1   c0,0,0,0-0.1,0c0-0.1,0.1-0.2,0.2-0.2c1.5-1.5,2.5-3.2,2.9-5.3c0.2-1.1,0.3-2.2,0.1-3.4c-0.2-1.6-0.8-3.1-1.8-4.4   c-1.5-2-3.5-3.2-6-3.6c-2.9-0.4-5.5,0.4-7.7,2.4c-1.7,1.6-2.7,3.6-3,5.9c-0.2,1.9,0,3.7,0.8,5.4C24,23.3,24,23.4,24,23.5z"></path>
	<path class="st0" d="M86.8,15.5c0,3.3,0,6.5,0,9.8c0,0.4,0,0.3-0.3,0.3c-1.5,0-3.1,0-4.6,0c-0.1,0-0.1,0-0.2,0s-0.1,0-0.1-0.2   c0-0.1,0-0.1,0-0.2c0-6.5,0-13,0-19.5c0-0.4-0.1-0.3,0.4-0.3c1.5,0,3,0,4.6,0h0.1c0.2,0,0.2,0,0.2,0.2c0,0.1,0,0.1,0,0.2   C86.8,9,86.8,12.3,86.8,15.5z"></path>
	<path class="st1" d="M29,27c1.1,0.1,2.2,0.1,3.3-0.1c1.7-0.4,3.1-1.3,4.1-2.7c1.1-1.4,1.6-3,1.4-4.8c-0.2-2.4-1.4-4.2-3.4-5.5   c-1.2-0.7-2.5-1-3.9-1c-2.4,0.1-4.3,1.3-5.8,3.2c-0.2,0.2-0.3,0.5-0.5,0.8c0-0.2,0-0.4,0.1-0.5c0.7-2.5,2.3-4.1,4.6-5.1   c1.1-0.4,2.2-0.6,3.4-0.6c1.9,0.1,3.6,0.7,5,1.9c1.7,1.4,2.8,3.2,3.1,5.4c0.3,2.1,0,4.1-1.2,5.9c-1.1,1.7-2.5,2.9-4.4,3.5   c-1.8,0.6-3.7,0.5-5.4-0.2C29.3,27.2,29.1,27.1,29,27L29,27z"></path>
</g>
</svg>
