<?xml version="1.0" encoding="UTF-8"?>
<!-- Generator: Adobe Illustrator 28.0.0, SVG Export Plug-In . SVG Version: 6.00 Build 0)  -->
<svg xmlns="http://www.w3.org/2000/svg" xmlns:xlink="http://www.w3.org/1999/xlink" version="1.1" id="Layer_1" x="0px" y="0px" viewBox="0 0 175 30" style="enable-background:new 0 0 175 30;" xml:space="preserve">
<style type="text/css">
	.st0{fill:#EC6D12;}
	.st1{fill:#018DAB;}
</style>
<g>
	<path class="st0" d="M42.6,0c-0.7,1-1.4,2-2.1,3c-0.9,1.3-1.8,2.5-2.7,3.8C37.8,7,37.6,7,37.4,7c-3.5,0-7,0-10.5,0   c-0.1,0-0.2,0-0.4,0c1.9,2.7,3.7,5.3,5.6,8c-1.4,2-2.8,4.1-4.3,6.1c-0.8-1.2-1.6-2.3-2.4-3.5c-4.1-5.8-8.1-11.6-12.2-17.4   C13.1,0.2,13.1,0.1,13,0C22.9,0,32.7,0,42.6,0z"></path>
	<path class="st0" d="M9.2,0c0.1,0.1,0.1,0.2,0.2,0.3c1.5,2.1,3,4.3,4.5,6.4C13.9,6.8,14,6.9,14,7c-0.1,0-0.2,0-0.3,0   c-2.6,0-5.3,0-7.9,0C5.5,7,5.4,7,5.3,6.8c-1.5-2.2-3-4.4-4.6-6.5C0.7,0.2,0.7,0.1,0.6,0C3.5,0,6.3,0,9.2,0z"></path>
	<path class="st1" d="M132.5,8.1c-0.4,1.1-0.7,2.1-1.1,3.1c-0.6,1.6-1.1,3.2-1.7,4.8c-0.1,0.2-0.1,0.2-0.3,0.2c-0.8,0-1.7,0-2.6,0   c-0.3,0-0.3-0.2-0.3-0.3c-1.3-4-2.7-8-4-11.9c-0.1-0.3-0.2-0.6-0.3-1c1.2,0,2.4,0,3.6,0c0.8,2.7,1.6,5.4,2.5,8.2   c0.1-0.2,0.1-0.3,0.1-0.4c0.8-2.5,1.7-5,2.5-7.6c0.1-0.2,0.2-0.3,0.4-0.3c0.8,0,1.6,0,2.3,0c0.3,0,0.4,0.1,0.4,0.3   c0.8,2.5,1.7,5,2.5,7.6c0,0.1,0.1,0.2,0.1,0.4c0.1-0.3,0.2-0.5,0.2-0.6c0.7-2.4,1.5-4.8,2.2-7.3c0.1-0.2,0.2-0.3,0.4-0.3   c1,0,2.1,0,3.2,0c0,0.1-0.1,0.2-0.1,0.3c-1.4,4.2-2.8,8.4-4.2,12.6c-0.1,0.2-0.2,0.3-0.4,0.3c-0.8,0-1.6,0-2.4,0   c-0.2,0-0.3-0.1-0.4-0.3c-0.9-2.5-1.8-5-2.7-7.6C132.6,8.3,132.5,8.2,132.5,8.1z"></path>
	<path class="st0" d="M21.6,30C17,23.4,12.4,16.8,7.7,10.2c0.2,0,0.2,0,0.3,0c2.7,0,5.3,0,7.9,0c0.2,0,0.4,0.1,0.5,0.3   c3.1,4.4,6.2,8.8,9.3,13.2c0.1,0.2,0.1,0.3,0,0.5c-1.3,1.9-2.6,3.7-3.9,5.6C21.7,29.8,21.7,29.9,21.6,30z"></path>
	<path class="st1" d="M157,3c0.7,0,1.3,0,2,0c1.5,0,3.1,0,4.7,0c1,0,2.1,0.2,3,0.7c1.5,0.8,2,2.2,2,3.8c0,1.8-0.9,3.1-2.6,3.9   c-0.1,0-0.1,0.1-0.2,0.1c0,0,0,0-0.1,0.1c1,1.5,2.1,3,3.1,4.6c-0.3,0-0.5,0-0.7,0c-1,0-2,0-2.9,0c-0.2,0-0.3-0.1-0.4-0.2   c-0.8-1.2-1.6-2.4-2.4-3.6c-0.1-0.2-0.2-0.3-0.4-0.3c-0.5,0-1.1,0-1.6,0c0,1.4,0,2.7,0,4.1c-1.1,0-2.2,0-3.3,0   C157,11.7,157,7.4,157,3z M160.4,5.8c0,1.3,0,2.4,0,3.6c0.8,0,1.5,0,2.3,0c0.3,0,0.7,0,1-0.1c1-0.2,1.5-0.8,1.5-1.7   c0-1-0.5-1.6-1.5-1.7C162.6,5.8,161.5,5.8,160.4,5.8z"></path>
	<path class="st1" d="M121.1,10c0,3-2.6,5.9-6,6.3c-2.2,0.3-4.3-0.2-6-1.7c-3.6-3.2-2.7-9.1,1.7-11.2c2.8-1.3,6.3-0.8,8.4,1.4   C120.4,6.1,121,7.7,121.1,10z M110.3,9.5c0,0.3,0.1,0.5,0.1,0.8c0.4,2.6,3.4,3.9,5.6,2.5c1.2-0.8,1.6-2,1.6-3.4   c-0.1-2.5-2.4-4.2-4.7-3.6C111.3,6.3,110.4,7.7,110.3,9.5z"></path>
	<path class="st1" d="M67.4,16.1c0.3-0.7,0.6-1.4,0.9-2.1c1.5-3.6,3.1-7.2,4.6-10.8c0.1-0.2,0.2-0.3,0.5-0.3c0.9,0,1.9,0,2.8,0   c0.2,0,0.3,0.1,0.4,0.3c1.8,4.2,3.6,8.4,5.4,12.7c0.1,0.1,0.1,0.2,0.1,0.3c-1.2,0-2.4,0-3.6,0c-1.2-3.1-2.4-6.2-3.7-9.5   c-0.4,0.9-0.7,1.8-1,2.6c-0.8,2.2-1.7,4.3-2.5,6.5c-0.1,0.3-0.3,0.4-0.6,0.4C69.5,16.1,68.5,16.1,67.4,16.1z"></path>
	<path class="st1" d="M105.9,3c0,1,0,1.9,0,2.9c-1.3,0-2.7,0-4,0c0,3.4,0,6.8,0,10.2c-1.1,0-2.2,0-3.4,0c0-3.4,0-6.8,0-10.2   c-1.4,0-2.7,0-4,0c0-1,0-1.9,0-2.9C98.2,3,102,3,105.9,3z"></path>
	<path class="st1" d="M154.9,8.2c0,0.8,0,1.7,0,2.6c-2.4,0-4.8,0-7.2,0c0,0.8,0,1.6,0,2.5c2.4,0,4.8,0,7.2,0c0,1,0,1.9,0,2.8   c-3.5,0-7,0-10.5,0c0-2.6,0-5.2,0-7.9C147.9,8.2,151.4,8.2,154.9,8.2z"></path>
	<path class="st1" d="M86.8,13.2c2.2,0,4.4,0,6.5,0c0,1,0,1.9,0,2.9c-3.3,0-6.6,0-9.9,0c0-4.4,0-8.7,0-13.1c1.1,0,2.2,0,3.3,0   C86.8,6.4,86.8,9.8,86.8,13.2z"></path>
	<path class="st1" d="M50,3c1.1,0,2.2,0,3.4,0c0,4.4,0,8.7,0,13.1c-1.1,0-2.2,0-3.4,0C50,11.7,50,7.4,50,3z"></path>
	<path class="st1" d="M68.2,3c-0.4,1-0.8,1.9-1.2,2.8c0,0.1-0.2,0.1-0.3,0.1c-2.2,0-4.5,0-6.7,0c-1.4,0-2.8,0-4.1,0   c-0.1,0-0.2,0-0.4,0c0-1,0-2,0-2.9C59.7,3,64,3,68.2,3z"></path>
	<path class="st1" d="M62.9,7.2c0,3,0,5.9,0,8.9c-1.1,0-2.2,0-3.3,0c0-3,0-5.9,0-8.9C60.7,7.2,61.8,7.2,62.9,7.2z"></path>
	<path class="st1" d="M144.4,3c3.5,0,7,0,10.5,0c0,0.9,0,1.9,0,2.8c-3.5,0-7,0-10.5,0C144.4,4.8,144.4,3.9,144.4,3z"></path>
	<path class="st1" d="M152.6,25.8c0.2-0.6,0.4-1.3,0.6-1.9c0.2-0.5,0.3-1,0.5-1.4c0.1-0.2,0.1-0.2,0.3-0.2c0.2,0,0.4,0,0.7,0   c0,0.1-0.1,0.2-0.1,0.3c-0.5,1.5-1,3-1.5,4.5c-0.1,0.2-0.2,0.3-0.4,0.3c-0.2,0-0.5,0.1-0.6-0.3c-0.3-1-0.7-2-1-3   c0-0.1,0-0.1-0.1-0.2c-0.2,0.6-0.4,1.1-0.5,1.6c-0.2,0.6-0.4,1.1-0.6,1.7c-0.1,0.3-0.3,0.2-0.4,0.2c-0.2,0-0.4,0.1-0.5-0.2   c-0.5-1.6-1.1-3.1-1.6-4.7c0,0,0-0.1,0-0.1c0.3,0,0.6,0,0.8,0c0.1,0,0.2,0.1,0.2,0.2c0.3,1,0.6,2,1,3c0,0.1,0.1,0.2,0.2,0.4   c0.1-0.4,0.2-0.7,0.3-1c0.3-0.8,0.5-1.6,0.8-2.4c0.1-0.4,0.3-0.2,0.6-0.3c0.2,0,0.3,0.1,0.4,0.3C151.8,23.6,152.2,24.7,152.6,25.8   C152.6,25.8,152.6,25.8,152.6,25.8z"></path>
	<path class="st1" d="M124.4,22.3c0.2,0,0.5,0,0.7,0c0.1,0,0.2,0.1,0.3,0.2c0.7,1,1.5,1.9,2.2,2.9c0.1,0.1,0.1,0.2,0.3,0.3   c0-1.2,0-2.2,0-3.3c0.3,0,0.6,0,0.8,0c0,1.6,0,3.3,0,4.9c-0.4,0.1-0.7,0-1.1-0.4c-0.7-1-1.4-1.9-2.2-2.8c-0.1-0.1-0.1-0.1-0.2-0.3   c0,1.2,0,2.3,0,3.5c-0.3,0-0.6,0-0.8,0C124.4,25.6,124.4,23.9,124.4,22.3z"></path>
	<path class="st1" d="M141.7,24.7c0-1.5,1.1-2.5,2.6-2.5c1.5,0,2.6,1.1,2.6,2.5c0,1.5-1.1,2.6-2.6,2.6   C142.8,27.3,141.7,26.2,141.7,24.7z M144.3,23c-1,0-1.6,0.7-1.6,1.8c0,1,0.7,1.8,1.7,1.8c0.9,0,1.6-0.8,1.6-1.8   C146,23.8,145.2,23,144.3,23z"></path>
	<path class="st1" d="M164.5,27.2c-0.4,0-0.7,0-1,0c-0.1,0-0.2-0.1-0.2-0.2c-0.3-0.4-0.6-0.9-0.9-1.3c-0.1-0.2-0.2-0.3-0.5-0.2   c-0.3,0-0.5,0-0.8,0c0,0.6,0,1.1,0,1.7c-0.3,0-0.6,0-0.9,0c0-1.6,0-3.3,0-4.9c0.9,0,1.9-0.1,2.8,0c0.7,0.1,1.2,0.6,1.2,1.3   c0.1,0.8-0.2,1.3-0.9,1.6c-0.1,0-0.1,0.1-0.2,0.1C163.6,26,164,26.6,164.5,27.2z M161.2,24.7c0.5,0,1.1,0,1.6-0.1   c0.4-0.1,0.7-0.4,0.7-0.8c0-0.4-0.2-0.7-0.7-0.7c-0.5-0.1-1,0-1.6,0C161.2,23.6,161.2,24.2,161.2,24.7z"></path>
	<path class="st1" d="M77.3,27.2c0-1.6,0-3.3,0-4.9c0.3,0,0.6,0,0.9,0c0.5,0,1.1,0,1.6,0.1c1.2,0.2,2,1.3,2,2.5   c-0.1,1.3-1,2.2-2.2,2.3C78.9,27.2,78.1,27.2,77.3,27.2z M78.2,26.4c0.1,0,0.2,0,0.2,0c0.4,0,0.7,0,1.1,0c0.8-0.1,1.3-0.7,1.4-1.5   c0.1-0.9-0.4-1.6-1.2-1.8c-0.5-0.1-1-0.1-1.5-0.1C78.2,24.2,78.2,25.3,78.2,26.4z"></path>
	<path class="st1" d="M110.2,25.2c-0.4,0-0.8,0-1.2,0c0-0.3,0-0.5,0-0.8c0.7,0,1.4,0,2.1,0c0,0.7,0,1.3,0,2c0,0.1-0.1,0.1-0.1,0.2   c-1.2,1-3.1,1-4-0.2c-0.7-0.8-0.8-1.8-0.3-2.8c0.4-1,1.2-1.4,2.3-1.5c0.7,0,1.4,0.2,1.9,0.7c-0.2,0.2-0.4,0.4-0.5,0.6   c-0.3-0.2-0.6-0.3-0.8-0.4c-1.2-0.3-2.3,0.6-2.2,1.8c0.2,1.6,1.6,1.9,2.7,1.3c0.1-0.1,0.2-0.2,0.2-0.2   C110.2,25.8,110.2,25.5,110.2,25.2z"></path>
	<path class="st1" d="M133.5,25.2c-0.4,0-0.8,0-1.2,0c0-0.3,0-0.5,0-0.7c0.7,0,1.4,0,2.1,0c0,0.7,0,1.3,0,2c0,0.1-0.1,0.1-0.1,0.2   c-1.1,0.9-2.8,1-3.8,0.1c-0.7-0.7-1-1.8-0.6-2.8c0.4-1,1.2-1.6,2.3-1.6c0.7,0,1.4,0.1,2.1,0.7c-0.2,0.2-0.4,0.4-0.5,0.6   c-0.2-0.1-0.3-0.2-0.4-0.3c-0.7-0.4-1.7-0.3-2.2,0.3c-0.6,0.7-0.5,1.8,0.1,2.4c0.5,0.6,1.6,0.7,2.3,0.2c0.1-0.1,0.1-0.2,0.1-0.2   C133.5,25.8,133.5,25.5,133.5,25.2z"></path>
	<path class="st1" d="M59,22.3c0,0.3,0,0.5,0,0.8c-0.9,0-1.8,0-2.8,0c0,0.4,0,0.8,0,1.3c0.8,0,1.6,0,2.4,0c0,0.3,0,0.5,0,0.8   c-0.8,0-1.6,0-2.4,0c0,0.4,0,0.8,0,1.3c0.9,0,1.8,0,2.8,0c0,0.3,0,0.5,0,0.8c-1.2,0-2.4,0-3.7,0c0-1.6,0-3.3,0-4.9   C56.6,22.3,57.8,22.3,59,22.3z"></path>
	<path class="st1" d="M156.4,25.1c0,0.5,0,0.9,0,1.3c0.9,0,1.9,0,2.8,0c0,0.3,0,0.5,0,0.8c-1.2,0-2.4,0-3.7,0c0-1.6,0-3.2,0-4.9   c1.2,0,2.4,0,3.7,0c0,0.2,0,0.5,0,0.7c-0.9,0-1.8,0-2.8,0c0,0.4,0,0.8,0,1.3c0.8,0,1.6,0,2.4,0c0,0.3,0,0.5,0,0.8   C158.1,25.1,157.3,25.1,156.4,25.1z"></path>
	<path class="st1" d="M50,22.3c0.3,0,0.6,0,0.9,0c0,0.7,0,1.3,0,2c0.8,0,1.6,0,2.4,0c0-0.7,0-1.3,0-2c0.3,0,0.6,0,0.8,0   c0,1.6,0,3.3,0,4.9c-0.3,0-0.5,0-0.8,0c0-0.7,0-1.3,0-2c-0.8,0-1.5,0-2.3,0c0,0.7,0,1.3,0,2c-0.3,0-0.6,0-0.9,0   C50,25.6,50,23.9,50,22.3z"></path>
	<path class="st1" d="M115.4,22.3c0.3,0,0.6,0,0.9,0c0,1.6,0,3.3,0,4.9c-0.3,0-0.6,0-0.8,0c0-0.7,0-1.3,0-2c-0.8,0-1.5,0-2.3,0   c0,0.7,0,1.3,0,2c-0.3,0-0.6,0-0.9,0c0-1.6,0-3.3,0-4.9c0.3,0,0.6,0,0.9,0c0,0.7,0,1.3,0,2c0.8,0,1.5,0,2.3,0   C115.4,23.6,115.4,23,115.4,22.3z"></path>
	<path class="st1" d="M64.8,27.2C64.8,27.2,64.8,27.2,64.8,27.2c-0.9,0.1-0.9,0.1-1.2-0.7C63.4,26,63.4,26,62.9,26   c-0.5,0-1.1,0-1.6,0c-0.2,0-0.3,0.1-0.4,0.2c-0.1,0.1-0.1,0.3-0.2,0.4c-0.3,0.6-0.4,0.7-1.1,0.5c0.1-0.2,0.2-0.3,0.2-0.5   c0.6-1.4,1.2-2.8,1.8-4.2c0.1-0.2,0.3-0.3,0.5-0.3c0.2,0,0.5-0.1,0.6,0.3c0.6,1.5,1.3,3,1.9,4.4C64.8,27,64.8,27.1,64.8,27.2z    M63.1,25.2c-0.3-0.6-0.5-1.3-0.8-1.9c-0.3,0.7-0.5,1.3-0.8,1.9C62,25.2,62.5,25.2,63.1,25.2z"></path>
	<path class="st1" d="M82.8,22.3c0.3,0,0.5,0,0.8,0c0,0.1,0,0.2,0,0.3c0,0.8,0,1.7,0,2.5c0,1,0.6,1.5,1.5,1.3c0.5-0.1,0.8-0.4,1-0.9   c0.1-0.3,0.1-0.6,0.1-0.9c0-0.8,0-1.5,0-2.3c0.3,0,0.6,0,0.8,0c0,0.1,0,0.2,0,0.3c0,0.8,0,1.7,0,2.6c0,1.8-1.8,2.8-3.3,1.9   c-0.5-0.3-0.8-0.7-0.9-1.3C82.8,24.6,82.8,23.5,82.8,22.3z"></path>
	<path class="st1" d="M165.1,26.5c0.2-0.2,0.3-0.4,0.5-0.5c0.5,0.2,0.8,0.4,1.3,0.5c0.3,0.1,0.5,0,0.8-0.1c0.2-0.1,0.4-0.2,0.4-0.5   s-0.1-0.4-0.3-0.5c-0.2-0.1-0.5-0.2-0.7-0.2c-0.3-0.1-0.6-0.2-0.9-0.3c-0.5-0.2-0.8-0.6-0.8-1.2c0-0.6,0.2-1,0.7-1.3   c0.8-0.4,2-0.3,2.8,0.4c-0.2,0.2-0.3,0.4-0.4,0.6c-0.3-0.2-0.6-0.3-1-0.4c-0.3-0.1-0.5,0-0.8,0c-0.2,0.1-0.4,0.2-0.4,0.5   c0,0.2,0.1,0.4,0.3,0.5c0.3,0.1,0.6,0.2,0.9,0.3c0.2,0.1,0.4,0.1,0.6,0.2c0.7,0.3,1,0.7,0.9,1.4c-0.1,0.7-0.4,1.1-1.1,1.3   C166.9,27.5,165.8,27.2,165.1,26.5z"></path>
	<path class="st1" d="M67,26c0.2-0.5,0.4-1,0.6-1.5c0.3-0.7,0.5-1.3,0.8-2c0.1-0.2,0.2-0.3,0.4-0.3c0.2,0,0.4,0,0.7,0   c-0.1,0.2-0.2,0.4-0.3,0.6c-0.6,1.4-1.1,2.7-1.7,4.1c-0.1,0.3-0.3,0.3-0.5,0.2c-0.2,0-0.4,0.1-0.5-0.2c-0.6-1.5-1.2-3-1.8-4.5   c0-0.1-0.1-0.2-0.1-0.3c0.3,0,0.6,0,0.8,0c0.1,0,0.2,0.1,0.2,0.2c0.4,1,0.8,2.1,1.2,3.1C66.9,25.8,66.9,25.9,67,26z"></path>
	<path class="st1" d="M69.6,22.3c0.3,0,0.6,0,0.9,0c0.1,0,0.2,0.1,0.2,0.2c0.4,0.6,0.8,1.3,1.2,2c0.4-0.6,0.8-1.2,1.2-1.9   c0.2-0.3,0.3-0.3,0.6-0.3c0.2,0,0.4,0,0.6,0c-0.4,0.6-0.7,1.1-1.1,1.6c-0.7,0.9-1.1,1.9-0.9,3c0,0.1,0,0.2,0,0.3   c-0.3,0-0.6,0-0.9,0c0-0.6,0-1.1,0-1.6c0-0.2-0.1-0.4-0.2-0.5c-0.5-0.8-1.1-1.7-1.6-2.5C69.7,22.5,69.7,22.4,69.6,22.3z"></path>
	<path class="st1" d="M92.3,22.3c1-0.1,1-0.1,1.5,0.7c0.3,0.5,0.6,0.9,0.9,1.4c0.4-0.6,0.7-1.1,1.1-1.7c0.2-0.4,0.5-0.6,0.9-0.5   c0.1,0,0.3,0,0.4,0C97,22.4,97,22.4,97,22.5c-0.6,0.8-1.1,1.7-1.6,2.5c-0.1,0.2-0.2,0.4-0.2,0.5c0,0.5,0,1.1,0,1.6   c-0.3,0-0.6,0-0.9,0c0-0.6,0-1.1,0-1.7c0-0.2-0.1-0.3-0.2-0.5c-0.5-0.8-1.1-1.6-1.6-2.4C92.5,22.6,92.4,22.5,92.3,22.3z"></path>
	<path class="st1" d="M121.2,22.3c0,0.3,0,0.5,0,0.8c-0.5,0-1,0-1.5,0c0,1.4,0,2.7,0,4.1c-0.3,0-0.6,0-0.9,0c0-1.4,0-2.7,0-4.1   c-0.5,0-1,0-1.5,0c0-0.3,0-0.5,0-0.8C118.5,22.3,119.8,22.3,121.2,22.3z"></path>
	<path class="st1" d="M138.8,23.1c-0.5,0-1,0-1.5,0c0-0.3,0-0.5,0-0.8c1.3,0,2.7,0,4,0c0,0.3,0,0.5,0,0.8c-0.5,0-1,0-1.5,0   c0,1.4,0,2.7,0,4.1c-0.3,0-0.6,0-0.9,0C138.8,25.8,138.8,24.5,138.8,23.1z"></path>
	<path class="st1" d="M90.3,23.1c0,1.4,0,2.7,0,4.1c-0.3,0-0.6,0-0.9,0c0-1.4,0-2.7,0-4.1c-0.5,0-1,0-1.6,0c0-0.3,0-0.5,0-0.8   c1.3,0,2.7,0,4,0c0,0.3,0,0.5,0,0.8C91.4,23.1,90.9,23.1,90.3,23.1z"></path>
	<path class="st1" d="M103.5,26.4c0,0.3,0,0.5,0,0.8c-1.2,0-2.3,0-3.5,0c0-1.6,0-3.3,0-4.9c0.3,0,0.6,0,0.8,0c0,1.4,0,2.7,0,4.1   C101.7,26.4,102.6,26.4,103.5,26.4z"></path>
	<path class="st1" d="M104.4,22.3c0.3,0,0.5,0,0.8,0c0,1.6,0,3.2,0,4.9c-0.3,0-0.5,0-0.8,0C104.4,25.6,104.4,23.9,104.4,22.3z"></path>
	<path class="st1" d="M123,27.2c-0.3,0-0.5,0-0.8,0c0-1.6,0-3.3,0-4.9c0.3,0,0.5,0,0.8,0C123,23.9,123,25.5,123,27.2z"></path>
	<path class="st1" d="M174.4,5.2c0,1.2-1,2.2-2.2,2.2c-1.2,0-2.2-1-2.2-2.2s1-2.2,2.2-2.2C173.4,3,174.4,3.9,174.4,5.2z M172.2,3.3   c-1,0-1.8,0.8-1.8,1.8s0.8,1.8,1.8,1.8c1,0,1.8-0.8,1.8-1.8C174.1,4.2,173.2,3.3,172.2,3.3z"></path>
	<path class="st1" d="M171.7,5.5c0,0.3,0,0.5,0,0.8c-0.2,0-0.3,0-0.4,0c0-0.8,0-1.6,0-2.3c0.4,0,0.8,0,1.3,0c0.4,0,0.6,0.3,0.7,0.6   c0.1,0.3-0.1,0.6-0.4,0.8c0,0-0.1,0.1-0.1,0.1c0.2,0.3,0.4,0.6,0.6,0.8c-0.4,0.1-0.4,0.1-0.7-0.2c-0.1-0.1-0.1-0.2-0.2-0.3   C172.3,5.5,172.1,5.4,171.7,5.5z M171.8,5.1c0.3,0,0.5,0,0.7,0s0.4-0.2,0.4-0.4c0-0.2-0.1-0.3-0.4-0.4c-0.2,0-0.5,0-0.7,0   C171.8,4.6,171.8,4.8,171.8,5.1z"></path>
</g>
</svg>
