<?xml version="1.0" encoding="UTF-8"?>
<svg xmlns="http://www.w3.org/2000/svg" width="185" height="45" viewBox="0 0 185 45" fill="none">
  <path d="M7.61937 41.7002C7.61937 42.7886 7.86115 43.4537 8.5664 43.8568H4.55688C5.26199 43.4537 5.50377 42.7886 5.50377 41.7002V34.0204C5.50377 32.9119 5.26199 32.2465 4.55688 31.8638H9.49333C9.41263 32.0047 9.37243 32.1258 9.37243 32.2467C9.37243 32.3474 9.41263 32.4886 9.49333 32.6902L13.1402 41.6801L16.8677 32.67C16.9281 32.5087 16.9685 32.3673 16.9685 32.2869C16.9685 32.1661 16.9079 32.0249 16.8275 31.8638H21.8647C21.1595 32.2467 20.9177 32.9119 20.9177 34.0204V41.7002C20.9177 42.6877 21.0588 43.2925 21.7842 43.8568H17.7544C18.5 43.2724 18.6209 42.6676 18.6209 41.7002V33.6374L14.4904 43.091C14.4298 43.2523 14.3695 43.3731 14.3695 43.4942C14.3695 43.5748 14.4097 43.6955 14.4904 43.8568H11.6895C11.7499 43.6955 11.7903 43.5748 11.7903 43.5344C11.7903 43.4133 11.7297 43.2724 11.6493 43.0707L7.61937 33.436V41.7002Z" fill="#008EAA"></path>
  <path d="M44.5083 43.8568H40.5189C40.8009 43.5748 40.9621 43.2925 40.9621 42.9497C40.9621 42.6473 40.8814 42.3451 40.801 42.1636L40.3375 41.2365H32.7415L32.3587 42.0227C32.2581 42.2444 32.1774 42.5468 32.1774 42.8691C32.1774 43.2724 32.3385 43.615 32.6206 43.8568H28.6111C29.276 43.1915 29.679 42.5064 30.0216 41.821L34.5953 32.7506C34.6961 32.5288 34.7566 32.3675 34.7566 32.2467C34.7566 32.1862 34.7164 32.045 34.6156 31.8638H38.6855C38.605 32.0249 38.5446 32.1661 38.5446 32.2668C38.5446 32.3675 38.5849 32.5087 38.6855 32.7103L43.0982 41.8211C43.4807 42.6071 43.9239 43.2925 44.5083 43.8568ZM39.5516 39.4426L36.489 33.3149L33.5675 39.4426H39.5516Z" fill="#008EAA"></path>
  <path d="M62.2573 43.7157C61.3504 43.7157 59.92 44.1793 58.0865 44.1793C53.8552 44.1793 51.1956 41.7808 51.1956 38.0922C51.1956 34.1211 53.9558 31.5814 58.5899 31.5814C60.4437 31.5814 61.8742 32.0451 62.7407 32.0451C62.942 32.0451 63.1233 32.025 63.3249 31.9645L62.4381 34.4235C61.2696 33.7384 59.9198 33.3754 58.4891 33.3754C55.5877 33.3754 53.7541 35.1895 53.7541 37.9309C53.7541 40.6521 55.4062 42.325 58.1869 42.325C59.6578 42.325 61.2696 41.9421 63.0026 41.1358V43.857C62.7408 43.7361 62.499 43.7157 62.2573 43.7157Z" fill="#008EAA"></path>
  <path d="M80.6513 36.5199V34.0204C80.6513 32.9119 80.4095 32.2465 79.7043 31.8638H83.9757C83.2707 32.2668 83.0289 32.9119 83.0289 34.0204V41.7002C83.0289 42.7886 83.2506 43.4537 83.9757 43.8568H79.7043C80.4095 43.4537 80.6513 42.7886 80.6513 41.7002V38.334H73.3372V41.7002C73.3372 42.7886 73.5589 43.4537 74.2843 43.8568H70.0126C70.7379 43.4537 70.9596 42.7886 70.9596 41.7002V34.0204C70.9596 32.932 70.7379 32.2668 70.0126 31.8638H74.2843C73.579 32.2467 73.3372 32.9119 73.3372 34.0204V36.5199H80.6513Z" fill="#008EAA"></path>
  <path d="M94.0077 34.0204V41.7002C94.0077 42.7886 94.2294 43.4537 94.9548 43.8568H90.663C91.3682 43.4537 91.61 42.7886 91.61 41.7002V34.0204C91.61 32.9119 91.3682 32.2465 90.663 31.8638H94.9548C94.2495 32.2465 94.0077 32.9119 94.0077 34.0204Z" fill="#008EAA"></path>
  <path d="M104.765 41.7002C104.785 42.7686 104.947 43.4133 105.712 43.8569H101.642C102.368 43.4537 102.589 42.7887 102.589 41.7002V34.0204C102.589 32.932 102.368 32.2668 101.642 31.8638H106.458C106.397 31.9846 106.357 32.0853 106.357 32.1459C106.357 32.2466 106.418 32.3473 106.518 32.5086L112.442 41.9014L112.402 34.0203C112.402 32.9117 112.14 32.2263 111.455 31.8636H115.424C114.558 32.3674 114.538 33.0325 114.538 33.9397C114.538 33.9799 114.538 34.0203 114.538 34.0605V42.7482C114.538 43.1713 114.578 43.4939 114.82 43.8567H110.911C110.991 43.7155 111.032 43.5947 111.032 43.5142C111.032 43.4334 110.971 43.3125 110.87 43.1512L104.624 33.5365L104.765 41.7002Z" fill="#008EAA"></path>
  <path d="M123.059 41.7404V33.9801C123.059 32.8915 122.776 32.2265 122.112 31.8636H134.443C134.362 32.1457 134.302 32.3674 134.302 32.5287C134.302 32.831 134.604 33.4359 134.886 34.4437C133.737 33.7784 132.307 33.5768 130.453 33.5768H125.436V36.8019H131.078C131.662 36.8019 132.186 36.7009 132.69 36.4993L131.864 37.8902C131.622 38.2932 131.219 38.4949 130.655 38.4949H125.436V42.1432H130.614C132.73 42.1432 134.402 41.6798 135.35 40.9741C134.947 42.0626 134.543 42.7279 134.543 43.1511C134.543 43.3124 134.564 43.5341 134.644 43.8566H122.112C122.797 43.4739 123.059 42.8289 123.059 41.7404Z" fill="#008EAA"></path>
  <path d="M146.374 43.8568H142.102C142.827 43.4334 143.049 42.7886 143.049 41.7002V33.9802C143.049 32.8916 142.767 32.2266 142.102 31.8638H149.255C151.048 31.8638 152.358 31.9242 153.204 32.3474C154.352 32.912 154.977 33.9601 154.977 35.3105C154.977 37.0239 153.788 38.2332 151.592 38.6364C152.68 39.1 153.345 39.9062 154.03 40.9947C154.775 42.1434 155.299 43.1917 156.206 43.8568H151.934C152.156 43.6754 152.196 43.4942 152.196 43.2116C152.196 42.6272 151.854 41.7605 151.068 40.8131C150.081 39.6039 149.174 39.0595 147.602 39.0595H145.426V41.7002C145.427 42.8088 145.668 43.4535 146.374 43.8568ZM149.255 37.3664C151.431 37.3664 152.438 36.9027 152.438 35.4714C152.438 33.8992 151.431 33.5767 149.335 33.5767H145.426V37.3662H149.255V37.3664Z" fill="#008EAA"></path>
  <path d="M167.427 31.8638C167.165 31.9645 167.064 32.1862 167.064 32.5893C167.064 32.9321 167.246 33.2142 167.528 33.5971L170.812 38.1124L174.217 33.5368C174.479 33.1741 174.62 32.8514 174.62 32.549C174.62 32.2467 174.499 32.0048 174.257 31.8639H178.428C177.703 32.4887 177.078 33.2546 176.434 34.1011L171.86 40.0272V41.7003C171.86 42.8089 172.142 43.4742 172.827 43.857H168.555C169.301 43.4336 169.482 42.7685 169.482 41.7003V40.0675L164.868 33.8191C164.143 32.8514 163.538 32.1663 162.893 31.8641H167.427V31.8638Z" fill="#008EAA"></path>
  <path fill-rule="evenodd" clip-rule="evenodd" d="M50.4333 3.25268L42.7142 13.8634L46.1912 18.4875L53.8546 7.86978L50.4333 3.25268ZM58.4994 3.2655L50.7806 13.8758L54.2475 18.4876L61.9087 7.86993L58.4994 3.2655ZM62.6173 8.6824L58.7288 14.0308L62.1024 18.4874L65.933 13.163L62.6173 8.6824ZM40.3258 11.8004C40.3258 5.283 46.6056 0 54.3521 0C62.0996 0 68.3785 5.283 68.3785 11.8004C68.3785 18.3167 62.0998 23.6009 54.3521 23.6009C46.6056 23.6009 40.3258 18.3167 40.3258 11.8004Z" fill="#ED6B06"></path>
  <path d="M6.62309 4.01208L12.8752 21.1488C13.0241 21.5922 13.0973 21.8892 13.0973 22.0367C13.0973 22.1478 13.0241 22.3702 12.9118 22.7026H19.2018C19.0162 22.4071 18.9429 22.1478 18.9429 21.9259C18.9429 21.7398 19.0162 21.5187 19.1285 21.1854L25.4917 4.49306V18.8529C25.4917 20.631 25.2329 21.6667 23.8264 22.7026H32.4093C31.0782 21.7769 30.7453 20.7041 30.7453 18.8529V4.52993C30.7453 2.49378 31.2629 1.27244 32.5949 0.681152H21.5326C21.717 1.01352 21.8292 1.27259 21.8292 1.53151C21.8292 1.68014 21.7546 1.93965 21.6438 2.27172L16.1681 18.1137L10.8043 2.42063C10.6558 1.93965 10.5813 1.64356 10.5813 1.45837C10.5813 1.23601 10.6558 0.977089 10.841 0.681298H0C1.29543 1.23602 1.88736 2.49393 1.88736 4.53007V18.853C1.88736 20.8901 1.29543 22.148 0 22.7027H8.50943C7.21502 22.148 6.62324 20.8901 6.62324 18.853V4.01208H6.62309Z" fill="#008EAA"></path>
  <path fill-rule="evenodd" clip-rule="evenodd" d="M84.5032 18.853V14.3385H87.0562C89.2765 14.3385 91.0151 15.1523 92.458 16.9292C93.9745 18.7796 94.6776 20.2967 94.6776 21.4082C94.6776 21.8892 94.4556 22.2579 94.0113 22.7027H103.445C101.374 21.2967 100.376 19.1497 99.006 17.0404C98.0072 15.4858 97.045 14.2273 95.1589 13.3765C99.0436 12.6363 101.152 10.3045 101.152 7.19506C101.152 4.2711 99.5237 2.01289 96.971 1.19925C95.3442 0.681397 93.086 0.681396 90.2378 0.681396H77.2523C78.5467 1.27283 79.1021 2.45745 79.1021 4.45557V18.853C79.1021 20.89 78.5846 22.1114 77.2523 22.7027H86.3907C85.0954 22.1479 84.5032 20.89 84.5032 18.853ZM84.5032 10.5626V4.45542H90.3856C93.9002 4.45542 95.381 5.12248 95.381 7.49158C95.381 9.85965 93.9004 10.5624 90.3856 10.5624H84.5032V10.5626Z" fill="#008EAA"></path>
  <path fill-rule="evenodd" clip-rule="evenodd" d="M118.533 18.853V14.3385H121.085C123.305 14.3385 125.044 15.1523 126.488 16.9292C128.003 18.7796 128.706 20.2967 128.706 21.4082C128.706 21.8892 128.485 22.2579 128.041 22.7027H137.475C135.403 21.2967 134.404 19.1497 133.034 17.0404C132.036 15.4858 131.074 14.2273 129.188 13.3765C133.072 12.6363 135.181 10.3045 135.181 7.19506C135.181 4.2711 133.553 2.01289 131 1.19925C129.372 0.681397 127.115 0.681396 124.267 0.681396H111.281C112.576 1.27283 113.131 2.45745 113.131 4.45557V18.853C113.131 20.89 112.613 22.1114 111.281 22.7027H120.42C119.124 22.1479 118.533 20.89 118.533 18.853ZM118.533 10.5626V4.45542H124.415C127.929 4.45542 129.408 5.12248 129.408 7.49158C129.408 9.85965 127.929 10.5624 124.415 10.5624H118.533V10.5626Z" fill="#008EAA"></path>
  <path d="M154.449 0.681152H145.31C146.642 1.27259 147.16 2.49378 147.16 4.52993V18.8529C147.16 20.8899 146.642 22.1113 145.31 22.7026H154.449C153.116 22.1111 152.561 20.8899 152.561 18.8529V4.52993C152.561 2.49378 153.116 1.27259 154.449 0.681152Z" fill="#008EAA"></path>
  <path d="M163.316 16.7069L164.684 22.9249C165.054 22.776 165.424 22.7026 165.794 22.7026C167.164 22.7026 169.643 23.2213 172.973 23.2213C180.297 23.2213 184.257 20.4451 184.257 15.7075C184.257 11.8959 181.629 10.0812 176.376 9.11967C171.714 8.26829 169.161 8.49064 169.161 6.34346C169.161 4.90006 170.568 4.12299 173.268 4.12299C176.709 4.12299 179.594 4.90006 181.74 6.27002L183.109 0.681183C182.777 0.829224 182.48 0.866671 182.184 0.866671C180.483 0.866671 177.486 0.16333 173.453 0.16333C167.164 0.16333 163.464 3.12415 163.464 7.08381C163.464 10.5256 166.128 12.4872 171.529 13.2272C175.895 13.8206 178.485 13.9674 178.485 16.3C178.485 18.2249 176.636 19.1873 172.935 19.1873C169.79 19.1873 166.645 18.3719 163.316 16.7069Z" fill="#008EAA"></path>
</svg>
