<?xml version="1.0" encoding="UTF-8"?>
<svg xmlns="http://www.w3.org/2000/svg" width="185" height="45" viewBox="0 0 185 45" fill="none">
  <path d="M7.61924 41.7002C7.61924 42.7886 7.86103 43.4537 8.56627 43.8568H4.55676C5.26186 43.4537 5.50365 42.7886 5.50365 41.7002V34.0204C5.50365 32.9119 5.26186 32.2465 4.55676 31.8638H9.4932C9.41251 32.0047 9.37231 32.1258 9.37231 32.2467C9.37231 32.3474 9.41251 32.4886 9.4932 32.6902L13.14 41.6801L16.8676 32.67C16.928 32.5087 16.9684 32.3673 16.9684 32.2869C16.9684 32.1661 16.9078 32.0249 16.8274 31.8638H21.8646C21.1594 32.2467 20.9176 32.9119 20.9176 34.0204V41.7002C20.9176 42.6877 21.0587 43.2925 21.7841 43.8568H17.7543C18.4999 43.2724 18.6208 42.6676 18.6208 41.7002V33.6374L14.4902 43.091C14.4296 43.2523 14.3693 43.3731 14.3693 43.4942C14.3693 43.5748 14.4095 43.6955 14.4902 43.8568H11.6893C11.7498 43.6955 11.7901 43.5748 11.7901 43.5344C11.7901 43.4133 11.7295 43.2724 11.6491 43.0707L7.61924 33.436V41.7002Z" fill="#004A99"></path>
  <path d="M44.5083 43.8568H40.5189C40.8009 43.5748 40.9621 43.2925 40.9621 42.9497C40.9621 42.6473 40.8814 42.3451 40.801 42.1636L40.3375 41.2365H32.7415L32.3587 42.0227C32.2581 42.2444 32.1774 42.5468 32.1774 42.8691C32.1774 43.2724 32.3385 43.615 32.6206 43.8568H28.6111C29.276 43.1915 29.679 42.5064 30.0216 41.821L34.5953 32.7506C34.6961 32.5288 34.7566 32.3675 34.7566 32.2467C34.7566 32.1862 34.7164 32.045 34.6156 31.8638H38.6855C38.605 32.0249 38.5446 32.1661 38.5446 32.2668C38.5446 32.3675 38.5849 32.5087 38.6855 32.7103L43.0982 41.8211C43.4807 42.6071 43.9239 43.2925 44.5083 43.8568ZM39.5516 39.4426L36.489 33.3149L33.5675 39.4426H39.5516Z" fill="#004A99"></path>
  <path d="M62.2573 43.7156C61.3504 43.7156 59.92 44.1792 58.0865 44.1792C53.8552 44.1792 51.1956 41.7807 51.1956 38.092C51.1956 34.121 53.9558 31.5813 58.5899 31.5813C60.4437 31.5813 61.8742 32.0449 62.7407 32.0449C62.942 32.0449 63.1233 32.0248 63.3249 31.9644L62.4381 34.4234C61.2696 33.7382 59.9198 33.3753 58.4891 33.3753C55.5877 33.3753 53.7541 35.1894 53.7541 37.9307C53.7541 40.652 55.4062 42.3249 58.1869 42.3249C59.6578 42.3249 61.2696 41.942 63.0026 41.1356V43.8569C62.7408 43.736 62.499 43.7156 62.2573 43.7156Z" fill="#004A99"></path>
  <path d="M80.6512 36.5199V34.0204C80.6512 32.9119 80.4094 32.2465 79.7042 31.8638H83.9756C83.2706 32.2668 83.0289 32.9119 83.0289 34.0204V41.7002C83.0289 42.7886 83.2505 43.4537 83.9756 43.8568H79.7042C80.4094 43.4537 80.6512 42.7886 80.6512 41.7002V38.334H73.3372V41.7002C73.3372 42.7886 73.5588 43.4537 74.2842 43.8568H70.0125C70.7379 43.4537 70.9595 42.7886 70.9595 41.7002V34.0204C70.9595 32.932 70.7379 32.2668 70.0125 31.8638H74.2842C73.5789 32.2467 73.3372 32.9119 73.3372 34.0204V36.5199H80.6512Z" fill="#004A99"></path>
  <path d="M94.0077 34.0204V41.7002C94.0077 42.7886 94.2293 43.4537 94.9547 43.8568H90.6629C91.3682 43.4537 91.6099 42.7886 91.6099 41.7002V34.0204C91.6099 32.9119 91.3682 32.2465 90.6629 31.8638H94.9547C94.2494 32.2465 94.0077 32.9119 94.0077 34.0204Z" fill="#004A99"></path>
  <path d="M104.765 41.7001C104.785 42.7684 104.947 43.4132 105.712 43.8567H101.642C102.367 43.4536 102.589 42.7885 102.589 41.7001V34.0203C102.589 32.9319 102.367 32.2667 101.642 31.8637H106.458C106.397 31.9845 106.357 32.0852 106.357 32.1458C106.357 32.2465 106.418 32.3471 106.518 32.5084L112.442 41.9013L112.402 34.0202C112.402 32.9116 112.14 32.2262 111.455 31.8635H115.424C114.558 32.3672 114.537 33.0324 114.537 33.9396C114.537 33.9798 114.537 34.0202 114.537 34.0604V42.748C114.537 43.1712 114.578 43.4938 114.819 43.8566H110.911C110.991 43.7154 111.032 43.5946 111.032 43.514C111.032 43.4333 110.971 43.3124 110.87 43.1511L104.624 33.5364L104.765 41.7001Z" fill="#004A99"></path>
  <path d="M123.059 41.7403V33.98C123.059 32.8914 122.776 32.2263 122.112 31.8635H134.443C134.362 32.1456 134.302 32.3672 134.302 32.5285C134.302 32.8309 134.604 33.4357 134.886 34.4436C133.737 33.7783 132.307 33.5766 130.453 33.5766H125.436V36.8018H131.078C131.662 36.8018 132.186 36.7008 132.69 36.4991L131.864 37.8901C131.622 38.2931 131.219 38.4948 130.655 38.4948H125.436V42.1431H130.614C132.73 42.1431 134.402 41.6797 135.35 40.974C134.947 42.0625 134.543 42.7278 134.543 43.1509C134.543 43.3122 134.564 43.534 134.644 43.8565H122.112C122.797 43.4738 123.059 42.8288 123.059 41.7403Z" fill="#004A99"></path>
  <path d="M146.374 43.8568H142.102C142.827 43.4334 143.049 42.7886 143.049 41.7002V33.9802C143.049 32.8916 142.767 32.2266 142.102 31.8638H149.255C151.048 31.8638 152.358 31.9242 153.204 32.3474C154.352 32.912 154.977 33.9601 154.977 35.3105C154.977 37.0239 153.788 38.2332 151.592 38.6364C152.68 39.1 153.345 39.9062 154.03 40.9947C154.775 42.1434 155.299 43.1917 156.206 43.8568H151.934C152.156 43.6754 152.196 43.4942 152.196 43.2116C152.196 42.6272 151.854 41.7605 151.068 40.8131C150.081 39.6039 149.174 39.0595 147.602 39.0595H145.426V41.7002C145.427 42.8088 145.668 43.4535 146.374 43.8568ZM149.255 37.3664C151.431 37.3664 152.438 36.9027 152.438 35.4714C152.438 33.8992 151.431 33.5767 149.335 33.5767H145.426V37.3662H149.255V37.3664Z" fill="#004A99"></path>
  <path d="M167.427 31.8638C167.165 31.9645 167.064 32.1862 167.064 32.5893C167.064 32.9321 167.246 33.2142 167.528 33.5971L170.812 38.1124L174.217 33.5368C174.479 33.1741 174.62 32.8514 174.62 32.549C174.62 32.2467 174.499 32.0048 174.257 31.8639H178.428C177.703 32.4887 177.078 33.2546 176.434 34.1011L171.86 40.0272V41.7003C171.86 42.8089 172.142 43.4742 172.827 43.857H168.555C169.301 43.4336 169.482 42.7685 169.482 41.7003V40.0675L164.868 33.8191C164.143 32.8514 163.538 32.1663 162.893 31.8641H167.427V31.8638Z" fill="#004A99"></path>
  <path fill-rule="evenodd" clip-rule="evenodd" d="M50.4333 3.25268L42.7142 13.8634L46.1912 18.4875L53.8546 7.86978L50.4333 3.25268ZM58.4994 3.2655L50.7806 13.8758L54.2475 18.4876L61.9087 7.86993L58.4994 3.2655ZM62.6173 8.6824L58.7288 14.0308L62.1024 18.4874L65.933 13.163L62.6173 8.6824ZM40.3258 11.8004C40.3258 5.283 46.6056 0 54.3521 0C62.0996 0 68.3785 5.283 68.3785 11.8004C68.3785 18.3167 62.0998 23.6009 54.3521 23.6009C46.6056 23.6009 40.3258 18.3167 40.3258 11.8004Z" fill="#ED6B06"></path>
  <path d="M6.62303 4.01208L12.8751 21.1488C13.024 21.5922 13.0973 21.8892 13.0973 22.0367C13.0973 22.1478 13.024 22.3702 12.9117 22.7026H19.2017C19.0161 22.4071 18.9429 22.1478 18.9429 21.9259C18.9429 21.7398 19.0161 21.5187 19.1284 21.1854L25.4917 4.49306V18.8529C25.4917 20.631 25.2329 21.6667 23.8263 22.7026H32.4093C31.0782 21.7769 30.7452 20.7041 30.7452 18.8529V4.52993C30.7452 2.49378 31.2629 1.27244 32.5948 0.681152H21.5326C21.717 1.01352 21.8291 1.27259 21.8291 1.53151C21.8291 1.68014 21.7545 1.93965 21.6437 2.27172L16.1681 18.1137L10.8043 2.42063C10.6557 1.93965 10.5813 1.64356 10.5813 1.45837C10.5813 1.23601 10.6557 0.977089 10.841 0.681298H-6.10352e-05C1.29537 1.23602 1.8873 2.49393 1.8873 4.53007V18.853C1.8873 20.8901 1.29537 22.148 -6.10352e-05 22.7027H8.50937C7.21496 22.148 6.62318 20.8901 6.62318 18.853V4.01208H6.62303Z" fill="#004A99"></path>
  <path fill-rule="evenodd" clip-rule="evenodd" d="M84.5031 18.853V14.3385H87.0561C89.2764 14.3385 91.0151 15.1523 92.4579 16.9292C93.9744 18.7796 94.6775 20.2967 94.6775 21.4082C94.6775 21.8892 94.4555 22.2579 94.0113 22.7027H103.445C101.374 21.2967 100.376 19.1497 99.006 17.0404C98.0071 15.4858 97.0449 14.2273 95.1589 13.3765C99.0436 12.6363 101.152 10.3045 101.152 7.19506C101.152 4.2711 99.5236 2.01289 96.9709 1.19925C95.3441 0.681397 93.086 0.681396 90.2377 0.681396H77.2523C78.5467 1.27283 79.102 2.45745 79.102 4.45557V18.853C79.102 20.89 78.5845 22.1114 77.2523 22.7027H86.3906C85.0953 22.1479 84.5031 20.89 84.5031 18.853ZM84.5031 10.5626V4.45542H90.3856C93.9001 4.45542 95.381 5.12248 95.381 7.49158C95.381 9.85965 93.9003 10.5624 90.3856 10.5624H84.5031V10.5626Z" fill="#004A99"></path>
  <path fill-rule="evenodd" clip-rule="evenodd" d="M118.533 18.853V14.3385H121.085C123.305 14.3385 125.044 15.1523 126.488 16.9292C128.003 18.7796 128.706 20.2967 128.706 21.4082C128.706 21.8892 128.485 22.2579 128.041 22.7027H137.475C135.403 21.2967 134.404 19.1497 133.034 17.0404C132.036 15.4858 131.074 14.2273 129.188 13.3765C133.072 12.6363 135.181 10.3045 135.181 7.19506C135.181 4.2711 133.553 2.01289 131 1.19925C129.372 0.681397 127.115 0.681396 124.267 0.681396H111.281C112.576 1.27283 113.131 2.45745 113.131 4.45557V18.853C113.131 20.89 112.613 22.1114 111.281 22.7027H120.42C119.124 22.1479 118.533 20.89 118.533 18.853ZM118.533 10.5626V4.45542H124.415C127.929 4.45542 129.408 5.12248 129.408 7.49158C129.408 9.85965 127.929 10.5624 124.415 10.5624H118.533V10.5626Z" fill="#004A99"></path>
  <path d="M154.448 0.681152H145.31C146.642 1.27259 147.16 2.49378 147.16 4.52993V18.8529C147.16 20.8899 146.642 22.1113 145.31 22.7026H154.448C153.116 22.1111 152.561 20.8899 152.561 18.8529V4.52993C152.561 2.49378 153.116 1.27259 154.448 0.681152Z" fill="#004A99"></path>
  <path d="M163.316 16.7069L164.684 22.9249C165.054 22.776 165.424 22.7026 165.794 22.7026C167.164 22.7026 169.643 23.2213 172.973 23.2213C180.297 23.2213 184.257 20.4451 184.257 15.7075C184.257 11.8959 181.629 10.0812 176.376 9.11967C171.714 8.26829 169.161 8.49064 169.161 6.34346C169.161 4.90006 170.568 4.12299 173.268 4.12299C176.709 4.12299 179.594 4.90006 181.74 6.27002L183.109 0.681183C182.777 0.829224 182.48 0.866671 182.184 0.866671C180.483 0.866671 177.486 0.16333 173.453 0.16333C167.164 0.16333 163.464 3.12415 163.464 7.08381C163.464 10.5256 166.128 12.4872 171.529 13.2272C175.895 13.8206 178.485 13.9674 178.485 16.3C178.485 18.2249 176.636 19.1873 172.935 19.1873C169.79 19.1873 166.645 18.3719 163.316 16.7069Z" fill="#004A99"></path>
</svg>
