<svg xmlns="http://www.w3.org/2000/svg" xmlns:xlink="http://www.w3.org/1999/xlink" id="Layer_1" x="0px" y="0px" viewBox="0 0 674.9 116.5" style="enable-background:new 0 0 674.9 116.5;" xml:space="preserve"><style type="text/css">	.st0{fill:#EC6D12;}	.st1{fill:#018DAB;}</style><g>	<path class="st0" d="M163.1,0c-2.7,3.9-5.4,7.7-8,11.6c-3.4,4.9-6.9,9.8-10.3,14.7c-0.5,0.7-1,1-1.8,1c-13.6,0-27.1,0-40.7,0   c-0.5,0-0.9,0-1.7,0c7.3,10.5,14.5,20.7,21.7,31c-5.5,7.9-11,15.8-16.6,23.7c-3.2-4.5-6.3-9-9.4-13.4C80.5,46,64.7,23.5,48.9,0.9   c-0.2-0.3-0.4-0.6-0.6-0.9C86.5,0,124.8,0,163.1,0z"></path>	<path class="st0" d="M33.3,0c0.2,0.4,0.4,0.8,0.7,1.2c5.8,8.3,11.7,16.7,17.5,25c0.2,0.3,0.4,0.6,0.6,1c-0.5,0-0.9,0-1.3,0   c-10.2,0-20.5,0-30.7,0c-0.9,0-1.4-0.2-1.9-0.9C12.4,17.9,6.4,9.4,0.5,0.9C0.3,0.6,0.2,0.3,0,0C11.1,0,22.2,0,33.3,0z"></path>	<path class="st1" d="M512.1,31.4c-1.4,4.2-2.8,8.1-4.2,12c-2.2,6.2-4.3,12.4-6.5,18.6c-0.2,0.6-0.5,0.9-1.2,0.9   c-3.3,0-6.6-0.1-10,0c-1,0-1.1-0.6-1.3-1.2c-5.1-15.5-10.3-30.9-15.4-46.4c-0.4-1.2-0.8-2.4-1.2-3.7c4.7,0,9.2,0,13.9,0   c3.2,10.5,6.3,20.9,9.6,31.8c0.3-0.7,0.4-1.1,0.5-1.4c3.3-9.8,6.5-19.6,9.7-29.4c0.3-0.9,0.7-1.2,1.6-1.1c3,0.1,6.1,0.1,9.1,0   c1,0,1.4,0.4,1.6,1.2c3.2,9.8,6.5,19.6,9.7,29.4c0.1,0.4,0.3,0.8,0.5,1.4c0.3-1,0.6-1.8,0.8-2.5c2.8-9.4,5.7-18.8,8.5-28.2   c0.3-0.9,0.7-1.2,1.6-1.2c4,0.1,8.1,0,12.3,0c-0.1,0.5-0.2,0.8-0.3,1.2c-5.4,16.4-10.9,32.7-16.3,49.1c-0.3,0.8-0.6,1.1-1.5,1.1   c-3.2-0.1-6.3-0.1-9.5,0c-0.9,0-1.2-0.3-1.5-1.1c-3.4-9.8-6.9-19.6-10.3-29.4C512.4,32.1,512.3,31.9,512.1,31.4z"></path>	<path class="st0" d="M81.5,116.5c-18-25.6-35.8-51.1-53.8-76.8c0.6,0,0.9-0.1,1.3-0.1c10.3,0,20.5,0,30.8,0c0.9,0,1.4,0.3,1.8,1   c12,17.1,23.9,34.2,36,51.3c0.5,0.7,0.5,1.2,0,1.9c-5.1,7.2-10.2,14.5-15.3,21.7C82.1,115.7,81.8,116,81.5,116.5z"></path>	<path class="st1" d="M607.3,11.5c2.6,0,5.1,0,7.6,0c6,0,12.1,0,18.1,0.1c4,0.1,8,0.8,11.5,2.9c5.7,3.3,7.9,8.4,7.8,14.7   c-0.1,7.1-3.6,12-10,15c-0.3,0.1-0.5,0.2-0.8,0.4c-0.1,0-0.1,0.1-0.3,0.2c4,5.9,8,11.7,12.2,17.8c-1,0-1.8,0-2.7,0   c-3.8,0-7.6,0-11.4,0c-0.8,0-1.2-0.2-1.6-0.9c-3.1-4.7-6.2-9.4-9.3-14.1c-0.4-0.7-0.9-1-1.7-1c-2.1,0.1-4.1,0-6.3,0   c0,5.3,0,10.5,0,15.8c-4.4,0-8.7,0-13,0C607.3,45.5,607.3,28.6,607.3,11.5z M620.4,22.6c0,4.9,0,9.4,0,14.1c3,0,6,0,9,0   c1.3,0,2.6,0,3.8-0.2c3.7-0.6,5.9-3.2,5.9-6.7c0-3.7-2-6.3-5.8-6.7C629,22.6,624.8,22.7,620.4,22.6z"></path>	<path class="st1" d="M467.8,38.7c0,11.5-10,22.8-23.2,24.5c-8.7,1.1-16.7-0.7-23.3-6.6c-14-12.6-10.6-35.4,6.5-43.4   c11-5.2,24.3-3,32.5,5.4C465.3,23.7,467.7,29.8,467.8,38.7z M426,36.8c0.1,1.1,0.2,2.1,0.4,3.2c1.6,10.1,13.3,15.3,21.7,9.6   c4.6-3.1,6.4-7.7,6.3-13.1C454.1,26.9,445,20,436,22.7C430,24.5,426.2,30,426,36.8z"></path>	<path class="st1" d="M259.4,62.5c1.2-2.9,2.3-5.5,3.5-8.2c5.9-14,11.9-28,17.8-42c0.4-0.9,0.8-1.2,1.8-1.2c3.6,0.1,7.2,0,10.8,0   c0.8,0,1.2,0.2,1.5,1c6.9,16.4,13.9,32.8,20.8,49.2c0.2,0.4,0.3,0.7,0.4,1.2c-4.7,0-9.3,0-14.1,0c-4.7-12.1-9.4-24.2-14.2-36.7   c-1.4,3.6-2.7,6.9-4,10.2c-3.3,8.4-6.6,16.8-9.8,25.2c-0.4,1.1-1,1.4-2.2,1.4C267.6,62.5,263.6,62.5,259.4,62.5z"></path>	<path class="st1" d="M408.8,11.6c0,3.8,0,7.5,0,11.3c-5.2,0-10.3,0-15.6,0c0,13.3,0,26.4,0,39.6c-4.4,0-8.7,0-13.1,0   c0-13.2,0-26.3,0-39.6c-5.3,0-10.5,0-15.7,0c0-3.8,0-7.5,0-11.3C379.1,11.6,393.9,11.6,408.8,11.6z"></path>	<path class="st1" d="M599.3,31.9c0,3.3,0,6.6,0,10c-9.4,0-18.7,0-28,0c0,3.3,0,6.4,0,9.7c9.3,0,18.6,0,28,0c0,3.7,0,7.3,0,10.9   c-13.6,0-27.2,0-40.9,0c0-10.2,0-20.3,0-30.5C571.9,31.9,585.6,31.9,599.3,31.9z"></path>	<path class="st1" d="M334.9,51.2c8.5,0,16.9,0,25.4,0c0,3.8,0,7.5,0,11.2c-12.8,0-25.6,0-38.4,0c0-16.9,0-33.9,0-50.9   c4.3,0,8.6,0,13,0C334.9,24.7,334.9,37.9,334.9,51.2z"></path>	<path class="st1" d="M191.8,11.5c4.4,0,8.7,0,13.1,0c0,17,0,33.9,0,50.9c-4.4,0-8.7,0-13.1,0C191.8,45.5,191.8,28.6,191.8,11.5z"></path>	<path class="st1" d="M262.5,11.5c-1.6,3.7-3.1,7.3-4.6,10.9c-0.1,0.3-0.9,0.5-1.3,0.5c-8.6,0-17.3,0-25.9,0c-5.4,0-10.7,0-16.1,0   c-0.4,0-0.9,0-1.4,0c0-3.8,0-7.6,0-11.3C229.6,11.5,246,11.5,262.5,11.5z"></path>	<path class="st1" d="M242,27.9c0,11.6,0,23,0,34.6c-4.4,0-8.7,0-13,0c0-11.5,0-23,0-34.6C233.3,27.9,237.6,27.9,242,27.9z"></path>	<path class="st1" d="M558.3,11.5c13.7,0,27.3,0,40.9,0c0,3.6,0,7.2,0,10.9c-13.7,0-27.3,0-40.9,0C558.3,18.8,558.3,15.2,558.3,11.5   z"></path>	<path class="st1" d="M590.3,100.3c0.8-2.5,1.6-4.9,2.4-7.4c0.6-1.9,1.2-3.7,1.8-5.6c0.2-0.7,0.5-0.9,1.2-0.9c0.8,0.1,1.7,0,2.6,0   c-0.1,0.4-0.2,0.8-0.3,1.1c-2,5.8-4,11.5-5.9,17.3c-0.3,0.9-0.8,1.1-1.6,1c-0.8-0.1-1.8,0.4-2.2-1c-1.3-3.9-2.7-7.8-4-11.8   c-0.1-0.2-0.1-0.4-0.3-0.8c-0.8,2.2-1.5,4.2-2.1,6.2c-0.8,2.2-1.6,4.4-2.3,6.7c-0.3,1-1,0.8-1.6,0.7c-0.7-0.1-1.5,0.5-1.9-0.7   c-2.1-6.1-4.2-12.1-6.3-18.2c0-0.1,0-0.2-0.1-0.5c1.1,0,2.2-0.1,3.2,0c0.3,0,0.6,0.5,0.7,0.9c1.3,3.8,2.5,7.7,3.7,11.5   c0.1,0.5,0.3,0.9,0.6,1.6c0.5-1.4,0.9-2.6,1.3-3.8c1-3.1,2.1-6.2,3-9.3c0.4-1.4,1.3-0.9,2.2-1c0.8-0.1,1.2,0.2,1.5,1.1   c1.3,4.3,2.8,8.5,4.2,12.7C590.1,100.2,590.2,100.3,590.3,100.3z"></path>	<path class="st1" d="M480.6,86.5c0.9,0,1.8-0.1,2.7,0c0.4,0.1,0.8,0.4,1.1,0.8c2.9,3.7,5.7,7.4,8.6,11.1c0.3,0.3,0.5,0.7,1,1.2   c0-4.5,0-8.7,0-13c1.1,0,2.2,0,3.3,0c0,6.3,0,12.7,0,19c-1.7,0.4-2.9,0.1-4.1-1.5c-2.7-3.7-5.6-7.3-8.4-10.9   c-0.2-0.3-0.4-0.5-0.8-1c0,4.6,0,9,0,13.4c-1.2,0-2.2,0-3.3,0C480.6,99.3,480.6,93,480.6,86.5z"></path>	<path class="st1" d="M547.9,96.1c0-5.7,4.4-9.9,10.2-9.9c5.7,0,10,4.3,10,9.9c0,5.7-4.4,10-10.2,10   C552.2,106.1,547.9,101.8,547.9,96.1z M557.9,89.3c-3.7,0-6.4,2.9-6.4,6.8c0,3.8,2.9,6.9,6.5,6.8c3.6,0,6.4-3,6.4-6.8   C564.5,92.3,561.6,89.3,557.9,89.3z"></path>	<path class="st1" d="M636.5,105.7c-1.4,0-2.6,0-3.7,0c-0.3,0-0.7-0.4-0.9-0.7c-1.2-1.7-2.4-3.4-3.6-5.1c-0.4-0.7-0.9-1-1.8-0.9   c-1,0.1-1.9,0-3,0c0,2.2,0,4.4,0,6.6c-1.2,0-2.3,0-3.4,0c0-6.4,0-12.7,0-19c3.6,0,7.2-0.2,10.8,0.1c2.8,0.2,4.5,2.4,4.8,5   c0.3,3-0.9,5.2-3.6,6.4c-0.3,0.1-0.5,0.2-0.8,0.4C633.1,100.9,634.7,103.2,636.5,105.7z M623.6,96.1c2.1-0.1,4.2-0.1,6.2-0.3   c1.7-0.2,2.6-1.5,2.6-3.1c0-1.6-0.9-2.8-2.7-2.9c-2-0.2-4,0-6.1,0C623.6,91.8,623.6,93.9,623.6,96.1z"></path>	<path class="st1" d="M298,105.7c0-6.4,0-12.7,0-19.2c1.2,0,2.3,0,3.5,0c2.1,0.1,4.3-0.1,6.3,0.3c4.8,0.9,7.9,5,7.6,9.7   c-0.3,4.9-3.7,8.7-8.7,9.1C303.9,105.8,301,105.7,298,105.7z M301.4,102.5c0.3,0,0.6,0.1,0.9,0.1c1.4,0,2.7,0,4.1-0.1   c3-0.4,5.1-2.7,5.4-5.7c0.3-3.4-1.4-6.2-4.5-6.9c-1.9-0.4-3.8-0.3-5.8-0.5C301.4,94,301.4,98.2,301.4,102.5z"></path>	<path class="st1" d="M425.5,98c-1.7,0-3.2,0-4.8,0c0-1,0-2,0-3c2.7,0,5.4,0,8.2,0c0,2.6,0,5.2,0,7.8c0,0.2-0.2,0.4-0.4,0.6   c-4.5,3.7-11.9,3.8-15.5-0.7c-2.6-3.3-3-7-1.3-10.8c1.7-3.7,4.8-5.5,8.9-5.7c2.8-0.1,5.3,0.6,7.5,2.6c-0.7,0.9-1.4,1.7-2,2.4   c-1.2-0.6-2.2-1.3-3.3-1.6c-4.7-1.3-8.9,2.2-8.4,7.1c0.6,6.2,6.4,7.5,10.4,5.2c0.3-0.2,0.6-0.6,0.6-0.9   C425.5,100,425.5,99.1,425.5,98z"></path>	<path class="st1" d="M516.1,97.9c-1.7,0-3.2,0-4.8,0c0-1,0-1.9,0-2.9c2.7,0,5.3,0,8.2,0c0,2.6,0,5.2,0,7.7c0,0.2-0.2,0.5-0.3,0.6   c-4.4,3.6-10.9,3.7-14.7,0.2c-2.8-2.6-3.8-7.1-2.5-10.9c1.4-3.8,4.8-6.3,8.8-6.4c2.9-0.1,5.6,0.5,8,2.6c-0.7,0.8-1.4,1.6-2.1,2.5   c-0.6-0.4-1.1-0.7-1.6-1c-2.9-1.7-6.5-1.2-8.5,1.3c-2.2,2.7-2.1,6.9,0.2,9.4c2.1,2.3,6.2,2.7,8.8,0.9c0.3-0.2,0.5-0.6,0.5-0.9   C516.1,100,516.1,99.1,516.1,97.9z"></path>	<path class="st1" d="M226.9,86.6c0,1,0,1.9,0,3c-3.6,0-7.1,0-10.7,0c0,1.7,0,3.2,0,4.9c3.1,0,6.2,0,9.4,0c0,1.1,0,2,0,3.1   c-3.1,0-6.2,0-9.4,0c0,1.7,0,3.3,0,5.1c3.5,0,7.1,0,10.8,0c0,1.1,0,2,0,3c-4.8,0-9.5,0-14.3,0c0-6.4,0-12.7,0-19.1   C217.4,86.6,222.1,86.6,226.9,86.6z"></path>	<path class="st1" d="M605.2,97.6c0,1.8,0,3.4,0,5.1c3.6,0,7.2,0,10.9,0c0,1.1,0,2,0,3c-4.7,0-9.5,0-14.3,0c0-6.3,0-12.6,0-19.1   c4.7,0,9.4,0,14.2,0c0,0.9,0,1.9,0,2.9c-3.5,0-7.1,0-10.8,0c0,1.7,0,3.2,0,4.9c3.1,0,6.3,0,9.5,0c0,1.1,0,2,0,3.2   C611.6,97.6,608.4,97.6,605.2,97.6z"></path>	<path class="st1" d="M191.8,86.5c1.1,0,2.2,0,3.4,0c0,2.6,0,5.2,0,7.8c3.1,0,6.1,0,9.2,0c0-2.6,0-5.2,0-7.8c1.2,0,2.2,0,3.3,0   c0,6.3,0,12.7,0,19.1c-1,0-2.1,0-3.3,0c0-2.6,0-5.2,0-7.9c-3.1,0-6,0-9.1,0c0,2.6,0,5.2,0,7.9c-1.2,0-2.3,0-3.5,0   C191.8,99.3,191.8,92.9,191.8,86.5z"></path>	<path class="st1" d="M445.7,86.6c1.3,0,2.3,0,3.4,0c0,6.4,0,12.7,0,19.1c-1.1,0-2.2,0-3.3,0c0-2.6,0-5.2,0-7.9c-3.1,0-6,0-9.1,0   c0,2.6,0,5.1,0,7.8c-1.2,0-2.3,0-3.4,0c0-6.3,0-12.7,0-19.1c1.1,0,2.2,0,3.4,0c0,2.6,0,5.2,0,7.8c3.1,0,6,0,9.1,0   C445.7,91.8,445.7,89.2,445.7,86.6z"></path>	<path class="st1" d="M249.4,105.6c-0.2,0.1-0.2,0.1-0.3,0.1c-3.2,0.2-3.2,0.2-4.5-2.8c-0.8-1.8-0.8-1.8-2.7-1.8c-2,0-4.1,0-6.1,0   c-0.8,0-1.2,0.2-1.4,0.9c-0.2,0.5-0.4,1-0.6,1.4c-1.1,2.5-1.4,2.7-4.4,2.1c0.3-0.7,0.6-1.3,0.8-2c2.4-5.4,4.8-10.8,7.1-16.2   c0.4-0.9,1-1.1,1.8-1.1c0.9,0.1,1.8-0.3,2.3,1c2.4,5.8,5,11.5,7.5,17.2C249.2,104.9,249.3,105.2,249.4,105.6z M242.6,98   c-1.1-2.5-2.1-4.9-3.2-7.5c-1.1,2.6-2.1,5-3.2,7.5C238.4,98,240.4,98,242.6,98z"></path>	<path class="st1" d="M319.3,86.6c1,0,2.1,0,3.2,0c0,0.5,0,0.9,0,1.3c0,3.2,0,6.5,0,9.7c0.1,3.8,2.2,5.7,5.8,5.2   c2-0.3,3.3-1.6,3.7-3.6c0.2-1.2,0.2-2.4,0.2-3.6c0-3,0-6,0-9.1c1.1,0,2.2,0,3.3,0c0,0.3,0.1,0.7,0.1,1c0,3.3,0,6.7,0,10   c0,7-6.8,10.8-12.9,7.3c-2-1.1-3.3-2.9-3.4-5.1C319.2,95.5,319.3,91.1,319.3,86.6z"></path>	<path class="st1" d="M638.7,102.9c0.7-0.8,1.3-1.6,1.8-2.1c1.8,0.7,3.3,1.6,5,2c1,0.3,2.1,0,3.2-0.2c0.9-0.2,1.4-0.9,1.5-1.9   c0.1-1-0.5-1.7-1.3-2c-0.9-0.4-1.8-0.6-2.7-0.9c-1.2-0.4-2.5-0.7-3.6-1.2c-2-0.8-3.1-2.4-3.1-4.5c0-2.2,0.9-3.8,2.9-4.9   c3.1-1.7,7.8-1,10.7,1.6c-0.6,0.8-1.2,1.6-1.7,2.4c-1.3-0.6-2.5-1.3-3.8-1.6c-1-0.2-2.1-0.1-3.2,0.1c-0.9,0.2-1.5,0.9-1.5,1.9   c0,0.9,0.4,1.6,1.3,2c1.2,0.4,2.3,0.8,3.5,1.1c0.8,0.2,1.5,0.4,2.3,0.7c2.7,1.1,3.8,2.7,3.6,5.3c-0.2,2.6-1.6,4.3-4.3,5.1   C645.8,106.7,641.4,105.5,638.7,102.9z"></path>	<path class="st1" d="M257.9,101.1c0.8-2.1,1.6-3.9,2.3-5.8c1-2.6,2.1-5.2,3-7.8c0.3-0.8,0.7-1.1,1.6-1c0.8,0.1,1.6,0,2.6,0   c-0.4,0.9-0.7,1.7-1,2.5c-2.2,5.3-4.4,10.6-6.5,15.9c-0.4,1-1,1-1.8,0.9c-0.8-0.1-1.6,0.3-2.1-0.9c-2.3-5.8-4.7-11.6-7.1-17.4   c-0.1-0.3-0.2-0.7-0.4-1.1c1.2,0,2.2-0.1,3.2,0c0.3,0,0.7,0.5,0.9,0.9c1.6,4,3.2,8.1,4.8,12.1C257.4,100,257.6,100.4,257.9,101.1z"></path>	<path class="st1" d="M268.1,86.5c1.3,0,2.5-0.1,3.6,0c0.3,0,0.7,0.5,0.9,0.8c1.6,2.5,3.2,5,4.8,7.6c1.6-2.5,3.2-4.8,4.6-7.2   c0.6-1,1.2-1.3,2.3-1.2c0.7,0.1,1.5,0,2.5,0c-1.5,2.2-2.6,4.4-4.2,6.2c-2.9,3.5-4.2,7.3-3.5,11.8c0.1,0.3,0,0.7,0,1.2   c-1.2,0-2.3,0-3.4,0c0-2.2,0-4.3,0-6.4c0-0.7-0.2-1.4-0.6-2c-2.1-3.3-4.2-6.5-6.3-9.7C268.5,87.3,268.4,87,268.1,86.5z"></path>	<path class="st1" d="M356.1,86.6c3.9-0.3,3.9-0.3,5.8,2.7c1.2,1.8,2.3,3.6,3.5,5.6c1.5-2.2,2.9-4.3,4.2-6.5   c0.8-1.5,1.8-2.2,3.5-1.9c0.5,0.1,1,0,1.6,0c-0.2,0.4-0.3,0.6-0.4,0.9c-2.2,3.3-4.3,6.5-6.4,9.8c-0.4,0.6-0.6,1.4-0.6,2.1   c-0.1,2.1,0,4.2,0,6.4c-1.2,0-2.2,0-3.4,0c0-2.2,0-4.3,0-6.5c0-0.6-0.2-1.3-0.6-1.9c-2-3.1-4.1-6.2-6.1-9.3   C356.7,87.6,356.4,87.2,356.1,86.6z"></path>	<path class="st1" d="M468.3,86.6c0,1.1,0,2,0,3.1c-2,0-3.9,0-6,0c0,5.4,0,10.6,0,16c-1.2,0-2.3,0-3.5,0c0-5.3,0-10.5,0-15.9   c-2.1,0-4,0-6,0c0-1.1,0-2.1,0-3.1C457.9,86.6,463,86.6,468.3,86.6z"></path>	<path class="st1" d="M536.7,89.7c-2.1,0-4,0-6,0c0-1.1,0-2,0-3.1c5.2,0,10.3,0,15.5,0c0,1,0,2,0,3.1c-1.9,0-3.9,0-5.9,0   c0,5.4,0,10.6,0,16c-1.3,0-2.4,0-3.6,0C536.7,100.3,536.7,95.1,536.7,89.7z"></path>	<path class="st1" d="M348.4,89.7c0,5.4,0,10.6,0,16c-1.2,0-2.2,0-3.5,0c0-5.3,0-10.6,0-15.9c-2.1,0-4,0-6.1,0c0-1.1,0-2.1,0-3.1   c5.2,0,10.3,0,15.6,0c0,1,0,2,0,3.1C352.5,89.7,350.5,89.7,348.4,89.7z"></path>	<path class="st1" d="M399.4,102.6c0,1.1,0,2.1,0,3.1c-4.5,0-8.9,0-13.4,0c0-6.4,0-12.7,0-19.1c1.1,0,2.2,0,3.3,0c0,5.3,0,10.6,0,16   C392.7,102.6,396,102.6,399.4,102.6z"></path>	<path class="st1" d="M403.2,86.6c1.1,0,2.1,0,3.3,0c0,6.3,0,12.6,0,19.1c-1,0-2.1,0-3.3,0C403.2,99.3,403.2,93,403.2,86.6z"></path>	<path class="st1" d="M475.4,105.7c-1.1,0-2.1,0-3.3,0c0-6.4,0-12.7,0-19.1c1.1,0,2.1,0,3.3,0C475.4,92.9,475.4,99.2,475.4,105.7z"></path>	<path class="st1" d="M674.9,20.1c0,4.7-3.8,8.4-8.5,8.4c-4.7,0-8.4-3.8-8.4-8.5c0-4.7,3.8-8.5,8.4-8.5   C671.2,11.5,674.9,15.3,674.9,20.1z M666.5,12.9c-3.9,0-7.1,3.2-7.1,7.1c0,3.9,3.2,7.1,7.1,7.1c3.9,0,7.1-3.2,7.1-7.1   C673.6,16.2,670.4,12.9,666.5,12.9z"></path>	<path class="st1" d="M664.6,21.5c0,1,0,2,0,3c-0.6,0-1.1,0-1.6,0c0-3.1,0-6.1,0-9.1c1.7,0,3.3-0.1,4.9,0c1.5,0.1,2.4,1,2.6,2.4   c0.2,1.3-0.3,2.3-1.6,3.1c-0.1,0.1-0.3,0.2-0.4,0.3c0.8,1.1,1.5,2.2,2.3,3.2c-1.7,0.4-1.7,0.4-2.6-0.9c-0.2-0.3-0.5-0.6-0.7-1   C666.9,21.4,666,21.1,664.6,21.5z M664.7,19.9c1,0,1.9,0.1,2.7,0c0.8-0.1,1.4-0.6,1.4-1.5c0-0.8-0.5-1.3-1.4-1.4   c-0.9-0.1-1.8,0-2.8,0C664.7,17.9,664.7,18.8,664.7,19.9z"></path></g></svg>