<?xml version="1.0" encoding="utf-8"?>
<!-- Generator: Adobe Illustrator 27.6.1, SVG Export Plug-In . SVG Version: 6.00 Build 0)  -->
<svg version="1.1" id="Layer_1" xmlns="http://www.w3.org/2000/svg" xmlns:xlink="http://www.w3.org/1999/xlink" x="0px" y="0px"
	 viewBox="0 0 250 63" style="enable-background:new 0 0 250 63;" xml:space="preserve">
<style type="text/css">
	.st0{fill:#FFFFFF;}
	.st1{fill:url(#SVGID_1_);}
</style>
<g>
	<path class="st0" d="M242.65,1.28v2.71c-26.43,4.32-51.8,14.06-74.5,28.67L125,60.53L81.8,32.66C59.14,18.05,33.77,8.31,7.35,3.99
		V1.28H242.65z"/>
	<linearGradient id="SVGID_1_" gradientUnits="userSpaceOnUse" x1="18.1483" y1="36.6348" x2="247.2806" y2="12.1357">
		<stop  offset="0" style="stop-color:#FF9854"/>
		<stop  offset="1" style="stop-color:#ED6B06"/>
	</linearGradient>
	<path class="st1" d="M242.65,1.28v12.71c-28.55,0-56.33,8.17-80.3,23.68L125,61.72L87.65,37.66c-24.01-15.5-51.75-23.68-80.3-23.68
		V1.28c30.96,0,61.11,8.89,87.16,25.67L125,46.6l30.45-19.65C181.5,10.18,211.65,1.28,242.65,1.28z"/>
</g>
</svg>
