<svg width="8" height="14" viewBox="0 0 8 14" fill="none" xmlns="http://www.w3.org/2000/svg">
<path d="M2.71662 7.65075C2.6307 7.56553 2.56251 7.46415 2.51597 7.35244C2.46943 7.24074 2.44547 7.12092 2.44547 6.99991C2.44547 6.8789 2.46943 6.75909 2.51597 6.64738C2.56251 6.53568 2.6307 6.4343 2.71662 6.34908L6.92412 2.15075C7.01004 2.06553 7.07823 1.96415 7.12477 1.85244C7.17131 1.74074 7.19527 1.62092 7.19527 1.49991C7.19527 1.3789 7.17131 1.25909 7.12477 1.14738C7.07823 1.03568 7.01004 0.934295 6.92412 0.849079C6.75237 0.678349 6.52004 0.58252 6.27787 0.58252C6.0357 0.58252 5.80337 0.678349 5.63162 0.849079L1.42412 5.05658C0.909134 5.57221 0.619873 6.27116 0.619873 6.99991C0.619873 7.72867 0.909134 8.42762 1.42412 8.94325L5.63162 13.1507C5.80236 13.3201 6.03281 13.4156 6.27329 13.4166C6.39393 13.4173 6.51352 13.3942 6.6252 13.3485C6.73689 13.3029 6.83847 13.2357 6.92412 13.1507C7.01004 13.0655 7.07823 12.9641 7.12477 12.8524C7.17131 12.7407 7.19527 12.6209 7.19527 12.4999C7.19527 12.3789 7.17131 12.2591 7.12477 12.1474C7.07823 12.0357 7.01004 11.9343 6.92412 11.8491L2.71662 7.65075Z" fill="white"/>
</svg>
