<svg width="61" height="61" viewBox="0 0 61 61" fill="none" xmlns="http://www.w3.org/2000/svg">
<path d="M40.3488 50.5325L50.2918 50.5325C52.9289 50.5325 55.458 49.4849 57.3226 47.6202C59.1873 45.7555 60.2349 43.2265 60.2349 40.5894L60.2349 30.6464C60.2349 29.3278 59.7111 28.0633 58.7788 27.131C57.8464 26.1986 56.5819 25.6748 55.2634 25.6748L40.5725 25.6748C41.1623 22.2033 42.9601 19.0521 45.6484 16.7778C48.3366 14.5035 51.7422 13.2525 55.2634 13.246C55.9226 13.246 56.5549 12.9841 57.0211 12.5179C57.4872 12.0518 57.7491 11.4195 57.7491 10.7602C57.7491 10.101 57.4872 9.4687 57.0211 9.00253C56.5549 8.53636 55.9226 8.27447 55.2634 8.27447C49.9911 8.28039 44.9364 10.3774 41.2083 14.1055C37.4802 17.8336 35.3832 22.8883 35.3772 28.1606L35.3772 45.5609C35.3772 46.8795 35.901 48.144 36.8334 49.0763C37.7657 50.0087 39.0302 50.5325 40.3488 50.5325Z" fill="url(#paint0_linear_403_476)"/>
<path d="M5.54768 50.5325L15.4907 50.5325C18.1278 50.5325 20.6569 49.4849 22.5215 47.6202C24.3862 45.7555 25.4338 43.2265 25.4338 40.5894L25.4338 30.6464C25.4338 29.3278 24.91 28.0633 23.9777 27.131C23.0453 26.1986 21.7808 25.6748 20.4623 25.6748L5.7714 25.6748C6.3612 22.2033 8.15904 19.0521 10.8473 16.7778C13.5355 14.5035 16.9411 13.2525 20.4623 13.246C21.1215 13.246 21.7538 12.9841 22.22 12.5179C22.6861 12.0518 22.948 11.4195 22.948 10.7602C22.948 10.101 22.6861 9.4687 22.22 9.00253C21.7538 8.53636 21.1215 8.27447 20.4623 8.27447C15.19 8.28039 10.1353 10.3774 6.4072 14.1055C2.67912 17.8336 0.582072 22.8883 0.576151 28.1606L0.576149 45.5609C0.576149 46.8795 1.09994 48.144 2.03228 49.0763C2.96462 50.0087 4.22915 50.5325 5.54768 50.5325Z" fill="url(#paint1_linear_403_476)"/>
<defs>
<linearGradient id="paint0_linear_403_476" x1="59.0349" y1="50.5325" x2="33.7176" y2="49.5136" gradientUnits="userSpaceOnUse">
<stop stop-color="#FF9854"/>
<stop offset="1" stop-color="#ED6B06"/>
</linearGradient>
<linearGradient id="paint1_linear_403_476" x1="24.2338" y1="50.5325" x2="-1.0835" y2="49.5136" gradientUnits="userSpaceOnUse">
<stop stop-color="#FF9854"/>
<stop offset="1" stop-color="#ED6B06"/>
</linearGradient>
</defs>
</svg>
