<svg width="7" height="14" viewBox="0 0 7 14" fill="none" xmlns="http://www.w3.org/2000/svg">
<path d="M6.11649 5.05658L1.90899 0.849079C1.73724 0.678349 1.50491 0.58252 1.26274 0.58252C1.02057 0.58252 0.788234 0.678349 0.616485 0.849079C0.530568 0.934295 0.462373 1.03568 0.415835 1.14738C0.369297 1.25909 0.345337 1.3789 0.345337 1.49991C0.345337 1.62092 0.369297 1.74074 0.415835 1.85244C0.462373 1.96415 0.530568 2.06553 0.616485 2.15075L4.83315 6.34908C4.91907 6.4343 4.98727 6.53568 5.0338 6.64739C5.08034 6.75909 5.1043 6.8789 5.1043 6.99991C5.1043 7.12092 5.08034 7.24074 5.0338 7.35244C4.98727 7.46415 4.91907 7.56553 4.83315 7.65075L0.616485 11.8491C0.443874 12.0205 0.346419 12.2534 0.345559 12.4967C0.344699 12.7399 0.440507 12.9736 0.611903 13.1462C0.783299 13.3188 1.01624 13.4162 1.25949 13.4171C1.50275 13.418 1.73637 13.3221 1.90899 13.1507L6.11649 8.94325C6.63147 8.42762 6.92073 7.72867 6.92073 6.99991C6.92073 6.27116 6.63147 5.57221 6.11649 5.05658V5.05658Z" fill="white"/>
</svg>
