<svg width="19" height="20" viewBox="0 0 19 20" fill="none" xmlns="http://www.w3.org/2000/svg">
<path d="M18.3025 1.2178C18.0187 0.930523 17.6655 0.721308 17.2772 0.610365C16.8889 0.499421 16.4786 0.4905 16.0858 0.584464L3.41917 3.25238C2.68971 3.35242 2.00266 3.65413 1.43541 4.12354C0.868155 4.59295 0.443222 5.21141 0.208462 5.90927C-0.026297 6.60712 -0.0615574 7.35667 0.106652 8.07348C0.274861 8.7903 0.639859 9.44592 1.16054 9.96651L2.52062 11.3258C2.59424 11.3994 2.65261 11.4868 2.69242 11.5829C2.73222 11.6791 2.75266 11.7822 2.75258 11.8863V14.3943C2.75433 14.7469 2.83551 15.0946 2.99008 15.4116L2.98375 15.4171L3.00433 15.4377C3.2363 15.9041 3.61517 16.2813 4.08258 16.5112L4.10317 16.5318L4.10871 16.5255C4.42566 16.68 4.77337 16.7612 5.126 16.763H7.634C7.84383 16.7628 8.04515 16.8459 8.19371 16.9941L9.553 18.3534C9.91758 18.722 10.3515 19.0149 10.8298 19.215C11.3081 19.4151 11.8212 19.5186 12.3397 19.5195C12.7717 19.519 13.2008 19.4484 13.6103 19.3105C14.3018 19.0835 14.916 18.6677 15.3838 18.1102C15.8516 17.5526 16.1542 16.8754 16.2576 16.155L18.9295 3.46059C19.0283 3.06447 19.0225 2.64946 18.9126 2.25628C18.8027 1.86309 18.5924 1.50523 18.3025 1.2178V1.2178ZM3.64162 10.208L2.28075 8.84867C1.96386 8.53942 1.74176 8.14618 1.64052 7.71513C1.53927 7.28407 1.56309 6.83308 1.70917 6.41509C1.85079 5.98626 2.1126 5.60713 2.46346 5.3228C2.81432 5.03846 3.23947 4.86088 3.68833 4.81117L16.2291 2.17096L4.33433 14.0673V11.8863C4.33553 11.5746 4.27493 11.2659 4.15603 10.9778C4.03713 10.6897 3.86229 10.428 3.64162 10.208V10.208ZM14.702 15.8842C14.6412 16.3215 14.4598 16.7331 14.178 17.073C13.8962 17.4129 13.5253 17.6675 13.1069 17.8082C12.6885 17.949 12.2391 17.9704 11.8092 17.8699C11.3793 17.7694 10.9859 17.5512 10.6732 17.2395L9.31154 15.8779C9.09175 15.6569 8.83032 15.4817 8.54237 15.3624C8.25443 15.243 7.94568 15.182 7.634 15.1828H5.45296L17.3493 3.29038L14.702 15.8842Z" fill="white"/>
</svg>
