<svg xmlns="http://www.w3.org/2000/svg" width="75" height="75" viewBox="0 0 75 75" fill="none"><path d="M14.6022 12.1849C15.8437 13.4188 16.9699 14.5908 18.1559 15.7008C18.9829 16.4758 18.829 17.4727 18.2478 18.1537C17.6622 18.8389 16.4122 18.7663 15.7219 18.0832C14.7368 17.1098 13.7282 16.1555 12.7965 15.133C12.2815 14.5673 11.9781 14.7744 11.602 15.2269C8.35812 19.1506 5.94126 23.5076 4.62919 28.4474C4.33003 29.5703 3.1419 30.2171 2.26576 29.7795C1.46015 29.3782 1.05627 28.3855 1.35544 27.3694C2.67391 22.8651 4.66766 18.698 7.50976 14.9473C9.29622 12.5927 11.2985 10.46 13.5957 8.57933C16.0318 6.58547 18.6346 4.88835 21.4852 3.56267C24.6072 2.11104 27.8618 1.12052 31.2616 0.50144C34.2298 -0.0386517 37.215 -0.0834814 40.1789 0.0915679C44.4742 0.347738 48.6305 1.37242 52.5859 3.13572C56.2635 4.77307 59.5928 6.91209 62.5995 9.60187C67.3883 13.882 70.8181 19.0396 72.9507 25.0788C73.8226 27.5508 74.5085 30.0677 74.6816 32.6892C74.844 35.1356 75.0812 37.5948 74.9722 40.0348C74.844 42.9274 74.2521 45.7816 73.3888 48.5632C72.1109 52.6811 70.1749 56.4767 67.5892 59.9115C65.7985 62.2875 63.7406 64.4222 61.4221 66.3307C58.7253 68.5508 55.7934 70.3525 52.6265 71.7657C50.917 72.5278 49.1219 73.1085 47.3398 73.6977C46.4658 73.9859 45.2905 73.2473 45.1003 72.4254C44.8909 71.5138 45.5597 70.645 46.5683 70.3547C50.3293 69.2745 53.8509 67.6756 57.0328 65.3807C58.1697 64.561 59.2638 63.6772 60.4925 62.7336C59.2403 61.5104 58.0949 60.4067 56.9687 59.2817C56.0819 58.3937 56.1118 57.4779 56.8597 56.7649C57.5564 56.0988 58.5436 56.0839 59.2403 56.7734C60.4156 57.9347 61.5716 59.1131 62.7811 60.3299C65.4822 57.4181 67.5208 54.1306 69.0402 50.5122C70.5552 46.9066 71.3544 43.1345 71.6023 39.1596C69.9889 39.1596 68.3692 39.1639 66.7515 39.1596C65.6959 39.1575 64.8433 38.4402 64.7749 37.5094C64.7108 36.6278 65.5762 35.7653 66.6511 35.7376C68.1427 35.6992 69.6364 35.7269 71.1301 35.7248C71.2839 35.7248 71.4378 35.7248 71.6045 35.7248C71.2027 29.3632 69.3714 23.5503 65.745 18.3501C64.9715 17.24 64.1082 16.1897 63.2897 15.1095C62.9585 14.674 62.6721 14.657 62.2725 15.0796C61.3216 16.0851 60.298 17.0244 59.3492 18.032C58.4368 19.0012 56.7785 18.809 56.3447 17.2678C56.1481 16.5697 56.5264 16.0531 56.9773 15.5984C58.082 14.4819 59.2061 13.3846 60.4091 12.1913C54.3809 6.83737 47.3953 3.96614 39.3028 3.44312C39.3028 4.04512 39.3156 4.66847 39.3007 5.29181C39.2729 6.45739 39.3135 7.6315 39.1639 8.78213C39.0293 9.81961 38.292 10.2252 37.1445 10.1185C36.4628 10.0544 35.8731 9.2902 35.8688 8.4427C35.8624 6.79468 35.8688 5.14665 35.8688 3.39189C27.7827 3.93838 20.7138 6.75198 14.6043 12.1806L14.6022 12.1849Z" fill="#EF6B0D"></path><path d="M13.5595 50.4695C15.1045 53.3771 17.0811 55.8277 19.4745 57.9049C20.8592 59.1067 22.449 60.0716 23.9492 61.139C24.3723 61.44 24.5967 61.2201 24.7762 60.8273C25.3382 59.5849 25.8938 58.3382 26.4878 57.1086C27.0862 55.8704 27.6695 55.6719 29.0265 56.1287C30.4368 56.6027 31.8429 57.0979 33.2747 57.4993C34.0696 57.7234 34.9116 57.8664 35.7364 57.8856C37.837 57.9347 39.2645 59.4099 39.288 61.3482C39.335 65.21 39.3157 69.0717 39.2944 72.9335C39.2858 74.2378 38.4567 75.0106 37.1639 74.9999C32.1678 74.9658 27.3896 73.8984 22.7995 71.9558C19.5749 70.5917 16.5832 68.8091 13.8971 66.5762C8.87749 62.4006 5.03318 57.3391 2.65051 51.221C1.50085 48.2686 0.618314 45.2522 0.321283 42.0864C0.18452 40.6241 0.0627046 39.1596 0.0028709 37.6931C-0.0484151 36.4506 0.58839 35.7547 1.83635 35.7462C5.80888 35.7141 9.78141 35.6757 13.7518 35.759C15.6387 35.7995 16.9657 37.0526 17.1324 39.3048C17.2841 41.3392 17.8034 43.316 18.5812 45.218C18.8056 45.7645 19.0236 46.358 19.0385 46.9344C19.0749 48.3028 17.8162 48.4821 16.9422 48.941C15.8567 49.511 14.7091 49.9593 13.5595 50.4717V50.4695ZM35.8326 61.2991C33.5867 61.1582 31.4583 60.6694 29.3855 59.9179C29.2402 59.8646 28.8812 60.0652 28.7957 60.236C28.0948 61.6449 27.4494 63.0816 26.7528 64.4927C26.3511 65.306 25.383 65.6348 24.5753 65.274C21.8828 64.0721 19.4446 62.4604 17.2564 60.5071C14.1194 57.7063 11.5871 54.4252 9.775 50.6083C9.30274 49.6135 9.60619 48.6208 10.6041 48.1384C12.1256 47.3998 13.6578 46.6868 15.0596 46.0228C14.5403 43.7173 14.0339 41.4609 13.5232 39.1959H3.57794C3.72966 56.0348 19.0877 71.2791 35.8304 71.4135V61.3012L35.8326 61.2991Z" fill="#EF6B0D"></path><path d="M28.9431 44.2787C31.2254 44.2787 33.405 44.2787 35.5868 44.2787C36.339 44.2787 36.9053 44.5349 37.3263 45.2287C37.9011 46.1808 37.1361 47.6431 35.9608 47.6602C32.9755 47.7007 29.9902 47.6879 27.005 47.6623C26.334 47.658 25.6352 46.8383 25.6245 46.1125C25.5989 44.1442 25.4792 42.1653 25.6202 40.2077C25.742 38.5149 26.9986 36.7495 28.6654 36.2051C29.706 35.8657 30.8578 35.7013 31.9541 35.7248C33.4969 35.7568 34.2748 34.9563 34.0675 33.5473C34.0226 33.2335 34.0226 32.9048 34.0675 32.591C34.2534 31.2888 33.264 30.6313 32.0972 30.6206C30.4988 30.6035 28.8983 30.6249 27.2999 30.6035C26.4921 30.5928 25.7997 30.104 25.6224 29.3739C25.4493 28.6566 25.6737 27.9991 26.2891 27.5786C26.5883 27.3736 27.0007 27.2456 27.364 27.237C28.9346 27.2007 30.5095 27.1815 32.0802 27.2285C34.7064 27.3075 36.5997 28.4261 37.2472 30.8298C37.8926 33.2207 37.9054 35.6671 36.0057 37.6332C35.0056 38.6686 33.7192 39.213 32.2404 39.2065C31.7874 39.2044 31.3279 39.2514 30.8813 39.198C29.6676 39.0486 29.1205 39.9345 28.941 40.9933C28.9197 41.1236 28.9389 41.258 28.9389 41.3925C28.9389 42.3233 28.9389 43.2519 28.9389 44.2808L28.9431 44.2787Z" fill="#EF6B0D"></path><path d="M44.4209 35.6928H49.494C49.5089 35.4686 49.5367 35.2423 49.5367 35.0182C49.541 33.0478 49.526 31.0796 49.5431 29.1092C49.5559 27.6234 50.3316 27.0321 51.757 27.3779C52.4921 27.5573 52.9259 28.1721 52.9301 29.2565C52.9472 34.7129 52.9536 40.1693 52.9216 45.6258C52.9173 46.4242 52.71 47.1905 51.7719 47.5428C50.7099 47.942 49.6072 47.3613 49.5752 46.2256C49.5218 44.2851 49.5453 42.3404 49.5388 40.3978C49.5388 40.0284 49.5388 39.6591 49.5388 39.2108C49.2482 39.1938 48.9961 39.1681 48.7439 39.166C46.7459 39.1617 44.7479 39.166 42.7499 39.1596C41.6771 39.1575 40.9912 38.4893 40.989 37.4305C40.9826 34.6083 40.9912 31.7883 40.9805 28.9662C40.9762 28.0055 41.5211 27.4121 42.4208 27.2328C43.1794 27.0812 44.0919 27.7238 44.2991 28.5179C44.391 28.868 44.4145 29.2458 44.4145 29.6109C44.4252 31.6261 44.4188 33.6413 44.4188 35.6928H44.4209Z" fill="#EF6B0D"></path></svg>