<svg xmlns="http://www.w3.org/2000/svg" width="124" height="42" viewBox="0 0 124 42" fill="none"><g clip-path="url(#clip0_532_18444)"><path d="M115.906 42H124.003V0H115.625L97.4707 28.4986L80.4352 0H72.7806V33.8127H47.0899V25.5447H69.6951V16.5994H47.2114V9.08934H69.7355V0H39.0363V42H80.9586V19.3948L94.5847 42H101.198L115.906 18.634C115.906 18.634 115.865 42 115.906 42Z" fill="#FF4D00"></path><path d="M37.3128 42V0H25.1297L0 42H8.93853L13.6666 33.5908H27.6137V25.562H18.6752L28.9353 8.30836H30.0978V42H37.3128Z" fill="#FF4D00"></path><path d="M0 0V39.8617L23.6462 0H0ZM2.84552 2.95677H19.4386L2.84552 30.3545V2.95677Z" fill="#FF4D00"></path></g><defs><clipPath id="clip0_532_18444"><rect width="124" height="42" fill="white"></rect></clipPath></defs></svg>