<svg xmlns="http://www.w3.org/2000/svg" width="24" height="24" viewBox="0 0 24 24" fill="none"><g clip-path="url(#clip0_421_1455)"><path d="M12.9999 1.00007C12.9999 0.734855 13.1052 0.480501 13.2928 0.292964C13.4803 0.105428 13.7347 7.1089e-05 13.9999 7.1089e-05C16.6511 0.00298269 19.193 1.05749 21.0677 2.93222C22.9425 4.80695 23.997 7.3488 23.9999 10.0001C23.9999 10.2653 23.8945 10.5196 23.707 10.7072C23.5194 10.8947 23.2651 11.0001 22.9999 11.0001C22.7346 11.0001 22.4803 10.8947 22.2928 10.7072C22.1052 10.5196 21.9999 10.2653 21.9999 10.0001C21.9975 7.87907 21.1539 5.84562 19.6541 4.34585C18.1543 2.84607 16.1209 2.00245 13.9999 2.00007C13.7347 2.00007 13.4803 1.89471 13.2928 1.70718C13.1052 1.51964 12.9999 1.26529 12.9999 1.00007ZM13.9999 6.00007C15.0607 6.00007 16.0782 6.4215 16.8283 7.17164C17.5784 7.92179 17.9999 8.93921 17.9999 10.0001C17.9999 10.2653 18.1052 10.5196 18.2928 10.7072C18.4803 10.8947 18.7347 11.0001 18.9999 11.0001C19.2651 11.0001 19.5194 10.8947 19.707 10.7072C19.8945 10.5196 19.9999 10.2653 19.9999 10.0001C19.9983 8.40926 19.3656 6.88406 18.2408 5.75919C17.1159 4.63431 15.5907 4.00166 13.9999 4.00007C13.7347 4.00007 13.4803 4.10543 13.2928 4.29296C13.1052 4.4805 12.9999 4.73486 12.9999 5.00007C12.9999 5.26529 13.1052 5.51964 13.2928 5.70718C13.4803 5.89471 13.7347 6.00007 13.9999 6.00007ZM23.0929 16.7391C23.6724 17.3202 23.9978 18.1074 23.9978 18.9281C23.9978 19.7488 23.6724 20.536 23.0929 21.1171L22.1829 22.1661C13.9929 30.0071 -5.9371 10.0821 1.78289 1.86607L2.93289 0.866071C3.51466 0.302748 4.29482 -0.00887983 5.10459 -0.00139407C5.91436 0.00609169 6.68863 0.33209 7.25989 0.906071C7.29089 0.937071 9.14388 3.34407 9.14388 3.34407C9.69371 3.9217 9.99979 4.689 9.99848 5.48647C9.99718 6.28395 9.6886 7.05024 9.13688 7.62607L7.97888 9.08207C8.61973 10.6392 9.56195 12.0543 10.7514 13.2462C11.9408 14.438 13.3541 15.3831 14.9099 16.0271L16.3749 14.8621C16.9508 14.3108 17.7169 14.0026 18.5142 14.0015C19.3114 14.0003 20.0784 14.3064 20.6559 14.8561C20.6559 14.8561 23.0619 16.7081 23.0929 16.7391ZM21.7169 18.1931C21.7169 18.1931 19.3239 16.3521 19.2929 16.3211C19.0869 16.1168 18.8085 16.0022 18.5184 16.0022C18.2283 16.0022 17.9499 16.1168 17.7439 16.3211C17.7169 16.3491 15.6999 17.9561 15.6999 17.9561C15.564 18.0643 15.4022 18.1352 15.2305 18.1618C15.0589 18.1885 14.8832 18.17 14.7209 18.1081C12.7053 17.3576 10.8746 16.1828 9.35272 14.6632C7.83082 13.1435 6.65329 11.3145 5.89989 9.30007C5.83309 9.13553 5.81131 8.95616 5.83679 8.78041C5.86227 8.60466 5.9341 8.43887 6.04489 8.30007C6.04489 8.30007 7.65189 6.28207 7.67888 6.25607C7.88315 6.05006 7.99776 5.77169 7.99776 5.48157C7.99776 5.19146 7.88315 4.91309 7.67888 4.70707C7.64788 4.67707 5.80689 2.28207 5.80689 2.28207C5.59779 2.09458 5.32489 1.99417 5.04414 2.00142C4.76338 2.00867 4.49603 2.12303 4.29689 2.32107L3.14689 3.32107C-2.4951 10.1051 14.7759 26.4181 20.7209 20.8001L21.6319 19.7501C21.8453 19.5523 21.9736 19.2793 21.9894 18.9888C22.0053 18.6982 21.9076 18.4129 21.7169 18.1931Z" fill="#374957"></path></g><defs><clipPath id="clip0_421_1455"><rect width="24" height="24" fill="white"></rect></clipPath></defs></svg>