<svg xmlns="http://www.w3.org/2000/svg" width="71" height="71" viewBox="0 0 71 71" fill="none"><g clip-path="url(#clip0_470_2222)"><path d="M54.9691 6.33283L36.4352 0.152869C35.8283 -0.0492474 35.1723 -0.0492474 34.5655 0.152869L16.0315 6.33283C13.0848 7.31168 10.5214 9.1943 8.70565 11.7132C6.88991 14.2321 5.91415 17.2591 5.917 20.3642V35.502C5.917 57.8759 33.1337 70.2328 34.2992 70.7476C34.6774 70.9156 35.0866 71.0024 35.5003 71.0024C35.9141 71.0024 36.3233 70.9156 36.7014 70.7476C37.867 70.2328 65.0837 57.8759 65.0837 35.502V20.3642C65.0865 17.2591 64.1108 14.2321 62.295 11.7132C60.4793 9.1943 57.9159 7.31168 54.9691 6.33283ZM59.167 35.502C59.167 51.6397 40.4733 62.2246 35.5003 64.757C30.5215 62.2335 11.8337 51.6811 11.8337 35.502V20.3642C11.8338 18.5013 12.4202 16.6856 13.5098 15.1745C14.5993 13.6634 16.1367 12.5335 17.9042 11.9448L35.5003 6.07841L53.0965 11.9448C54.864 12.5335 56.4014 13.6634 57.4909 15.1745C58.5804 16.6856 59.1668 18.5013 59.167 20.3642V35.502Z" fill="#374957"></path><path d="M45.2623 24.5552L32.8728 36.9802L26.2343 30.0577C25.9679 29.7664 25.6459 29.5314 25.2873 29.3665C24.9286 29.2016 24.5406 29.1101 24.146 29.0975C23.7515 29.0848 23.3584 29.1513 22.9899 29.2929C22.6215 29.4345 22.2851 29.6485 22.0006 29.9221C21.7161 30.1958 21.4892 30.5236 21.3334 30.8863C21.1775 31.2489 21.0958 31.6391 21.0931 32.0339C21.0904 32.4286 21.1667 32.8199 21.3175 33.1847C21.4684 33.5495 21.6907 33.8804 21.9714 34.158L28.7933 41.258C29.3021 41.8075 29.917 42.2481 30.6009 42.5532C31.2848 42.8583 32.0235 43.0215 32.7723 43.033H32.8699C33.6037 43.0354 34.3307 42.892 35.0087 42.6112C35.6867 42.3304 36.3021 41.9176 36.8193 41.397L49.4573 28.759C49.7333 28.4835 49.9523 28.1564 50.1019 27.7963C50.2516 27.4362 50.3288 27.0502 50.3292 26.6602C50.3296 26.2703 50.2532 25.8841 50.1044 25.5236C49.9555 25.1632 49.7371 24.8356 49.4617 24.5596C49.1862 24.2836 48.8591 24.0645 48.499 23.9149C48.1389 23.7653 47.7529 23.6881 47.3629 23.6877C46.973 23.6873 46.5868 23.7637 46.2264 23.9125C45.8659 24.0614 45.5384 24.2797 45.2623 24.5552Z" fill="#374957"></path></g><defs><clipPath id="clip0_470_2222"><rect width="71" height="71" fill="white"></rect></clipPath></defs></svg>