<svg xmlns="http://www.w3.org/2000/svg" width="75" height="80" viewBox="0 0 75 80" fill="none"><path d="M22.7802 0C23.8944 0.25873 25.0128 0.494509 26.1187 0.784537C29.0649 1.55447 31.6835 2.9441 34.0246 4.90336C36.4199 6.90852 38.2435 9.32681 39.5372 12.1478C40.4365 14.1092 40.9706 16.1686 41.2252 18.324C41.7322 22.6076 40.9748 26.643 38.955 30.4175C37.0354 34.0022 34.3125 36.844 30.6757 38.749C30.5943 38.7908 30.5338 38.8701 30.3376 39.0453C32.5953 39.0453 34.686 39.062 36.7767 39.0412C39.6102 39.014 41.4902 41.1778 41.4443 43.6399C41.4025 45.8746 41.486 48.1176 41.317 50.3418C41.244 51.2912 40.6723 52.2051 40.2696 53.288C41.342 54.3146 41.4797 55.8712 41.4443 57.4903C41.4025 59.3598 41.3838 61.2315 41.365 63.1031C41.3545 64.2131 40.8079 65.079 40.088 65.9157C41.221 67.0967 41.4777 68.5406 41.4484 70.0951C41.4151 71.8123 41.4005 73.5316 41.4484 75.2488C41.5236 77.8945 39.364 80.0207 36.6891 79.9998C25.7577 79.9164 14.8263 79.9623 3.89707 79.9519C2.11935 79.9519 0.2206 78.1971 0.147571 76.4924C0.0453309 74.0762 0.0974943 71.6537 0.0390713 69.2354C0.00777329 67.9543 0.38335 66.8714 1.34107 65.995C0.510628 65.0519 0.00985983 64.0128 0.0390713 62.7275C0.0974943 60.255 0.022379 57.7762 0.174696 55.3099C0.224773 54.517 0.817349 53.7596 1.20336 52.8895C0.249811 52.0674 0.00777329 50.8155 0.0411578 49.4258C0.0933212 47.2934 0.0599367 45.1589 0.0828885 43.0244C0.107927 40.8001 2.0338 39.0453 4.34568 39.0474C5.43902 39.0474 6.53237 39.0474 7.62571 39.0474C8.69193 39.0474 9.75606 39.0474 10.8807 39.0474C9.88752 38.3422 8.9298 37.687 7.99503 36.9943C5.35556 35.035 3.43178 32.4874 2.01293 29.5495C0.940455 27.3274 0.360398 24.9821 0.103754 22.5116C-0.288515 18.758 0.450119 15.2526 2.00459 11.8724C2.3593 11.1025 2.88719 10.8917 3.5987 11.2005C4.20171 11.4613 4.31855 12.1061 4.06191 12.8844C3.49646 14.6037 2.84755 16.3146 2.51579 18.084C2.17151 19.916 2.24663 21.7939 2.60551 23.6655C2.96022 25.5162 3.48394 27.2856 4.34568 28.9569C6.7139 33.5369 10.3695 36.6062 15.2416 38.2587C17.4825 39.0182 19.8069 39.231 22.1271 39.0203C26.1834 38.651 29.7638 37.1132 32.8561 34.3882C35.3286 32.2098 37.0187 29.5662 38.1016 26.4948C38.93 24.1454 39.2117 21.7 38.9988 19.2462C38.6546 15.2588 37.1982 11.7075 34.5128 8.66955C31.7836 5.58148 28.4619 3.55546 24.3994 2.82308C23.0494 2.57896 21.6639 2.32857 20.3035 2.37656C16.2953 2.52053 12.5875 3.64726 9.441 6.24917C8.65855 6.896 7.93452 7.61585 7.20215 8.32319C6.55949 8.94498 5.21994 9.02635 5.10309 8.15209C5.0551 7.78486 5.03215 7.27366 5.23663 7.03788C5.99196 6.16988 6.78901 5.31441 7.67996 4.58829C10.1504 2.57061 12.9839 1.25818 16.0887 0.532066C16.9108 0.340105 17.7371 0.177355 18.5612 0C19.9676 0 21.3739 0 22.7802 0ZM20.5914 77.6233C25.9267 77.6233 31.262 77.5836 36.5972 77.6483C38.0891 77.6671 39.1595 76.7511 39.1115 75.0944C39.0614 73.3 39.1011 71.5035 39.099 69.707C39.099 67.827 38.3917 67.1197 36.5159 67.1197C26.0018 67.1197 15.4878 67.1197 4.97373 67.1197C4.71291 67.1197 4.45209 67.1155 4.19336 67.1364C3.11045 67.2261 2.44067 67.8979 2.42815 68.9829C2.40312 71.1947 2.39686 73.4064 2.41772 75.616C2.43233 76.9493 3.16261 77.6191 4.50634 77.6191C9.86665 77.6191 15.229 77.6191 20.5894 77.6191L20.5914 77.6233ZM20.6123 51.8921C25.9747 51.8921 31.335 51.8525 36.6953 51.9172C38.1976 51.936 39.1512 50.8656 39.1136 49.5114C39.0594 47.6398 39.0948 45.764 39.1011 43.8903C39.1073 42.2586 38.4063 41.3948 36.5639 41.3948C25.9455 41.3864 15.3271 41.3948 4.70874 41.3843C3.24608 41.3843 2.35721 42.0333 2.3906 43.6524C2.43233 45.6304 2.39477 47.6085 2.4052 49.5865C2.4052 49.9496 2.3906 50.346 2.52205 50.6715C2.91014 51.6251 3.67799 51.913 4.68578 51.9088C9.99602 51.8817 15.3042 51.8963 20.6144 51.8963L20.6123 51.8921ZM20.5998 64.7765C25.9351 64.7765 31.2724 64.7389 36.6056 64.7994C38.3082 64.8182 39.1512 63.6936 39.1115 62.2518C39.0614 60.4574 39.1011 58.6609 39.099 56.8643C39.099 54.9677 38.3583 54.2353 36.4428 54.2353C25.9538 54.2353 15.4648 54.2353 4.97581 54.2395C4.56477 54.2395 4.1412 54.2603 3.74684 54.3605C3.0103 54.5462 2.38225 55.2577 2.38016 55.8962C2.37599 58.1747 2.3739 60.4511 2.41146 62.7296C2.43441 64.1297 3.13132 64.7786 4.51469 64.7786C9.87708 64.7786 15.2374 64.7786 20.5998 64.7786V64.7765Z" fill="#374957"></path><path d="M66.3554 0C66.8165 0.335932 67.4341 0.57797 67.697 1.02866C68.0643 1.65462 68.298 2.42664 68.3501 3.15484C68.4503 4.5257 68.3647 5.91115 68.3814 7.29035C68.4065 9.19327 67.1295 10.5537 65.1556 10.4911C62.1406 10.3972 59.1193 10.4285 56.1022 10.4786C54.9566 10.4974 53.4815 9.22249 53.5295 7.89336C53.59 6.20536 53.5587 4.51109 53.5336 2.821C53.5169 1.62958 54.0198 0.784537 55.0756 0.250384C55.2008 0.187788 55.3072 0.085548 55.4199 0.00208654C59.065 0.00208654 62.7081 0.00208654 66.3533 0.00208654L66.3554 0ZM60.968 2.34318C59.5136 2.34318 58.0572 2.36404 56.6029 2.33275C56.0583 2.32023 55.8664 2.49758 55.8747 3.04217C55.8998 4.49648 55.8977 5.95289 55.8747 7.4072C55.8664 7.93092 56.0208 8.13957 56.5862 8.13332C59.4427 8.10828 62.3013 8.11245 65.1598 8.12914C65.7837 8.13332 66.0528 7.9038 66.0424 7.26532C66.0195 5.91533 66.0195 4.56325 66.0424 3.21326C66.0528 2.58522 65.8108 2.3244 65.1744 2.33483C63.7723 2.35778 62.368 2.34109 60.9659 2.34109L60.968 2.34318Z" fill="#374957"></path><path d="M53.5128 62.6294C53.5211 58.1789 53.5337 53.7304 53.5399 49.2798C53.5441 46.7822 53.5587 44.2825 53.5358 41.785C53.5212 40.1241 54.6667 39.0912 56.1773 39.0641C59.2988 39.0099 62.4244 38.9807 65.5459 39.0725C67.2422 39.1225 68.2896 39.9968 68.3522 41.9185C68.4503 44.9335 68.3815 47.9548 68.3752 50.9741C68.3752 51.5938 68.0309 52.0444 67.4988 52.274C66.9876 52.4931 66.5265 52.251 66.2428 51.8003C66.105 51.5833 66.0466 51.2829 66.0445 51.02C66.0299 48.1572 66.0362 45.2945 66.0362 42.4318C66.0362 41.4407 65.9819 41.3885 64.9554 41.3885C62.2491 41.3885 59.5408 41.4156 56.8367 41.3718C56.0855 41.3593 55.8664 41.57 55.8685 42.3275C55.8956 49.3278 55.8852 56.3302 55.8852 63.3305C55.8852 64.6951 55.4658 65.1249 54.1367 65.1249C52.9912 65.1249 51.8457 65.1103 50.7022 65.1375C50.456 65.1437 50.214 65.3065 49.9699 65.3983C50.0846 65.6111 50.1639 65.8594 50.3225 66.0347C52.3235 68.2589 54.3412 70.4686 56.3421 72.6928C57.8236 74.3412 59.2862 76.0041 60.8783 77.7985C61.5105 77.135 62.0968 76.5487 62.6497 75.9332C63.3195 75.1883 63.9496 74.4079 64.6236 73.6651C66.754 71.3136 68.8947 68.9704 71.0293 66.6231C71.1294 66.5125 71.1962 66.3685 71.2755 66.2391C71.4549 65.947 71.6323 65.657 71.8117 65.3649C71.4528 65.2856 71.0939 65.1479 70.733 65.1375C69.5896 65.1082 68.442 65.1291 67.2985 65.1249C66.4931 65.1229 66.0445 64.6742 66.0445 63.848C66.0404 61.5048 66.0404 59.1637 66.0445 56.8205C66.0445 56.0151 66.5161 55.4392 67.1546 55.4518C67.8035 55.4622 68.3752 56.0735 68.3815 56.833C68.3981 58.784 68.3877 60.7349 68.3877 62.788C69.3559 62.788 70.3073 62.763 71.2588 62.7922C73.1972 62.8527 74.4345 64.1735 74.1299 65.8406C73.9901 66.6043 73.4684 67.3742 72.9384 67.9793C70.8081 70.4018 68.5985 72.7512 66.4347 75.1445C65.3309 76.3651 64.2793 77.6358 63.1755 78.8564C62.0467 80.1083 60.0708 80.6195 58.6102 78.7354C57.6337 77.4751 56.4673 76.363 55.399 75.1716C53.179 72.6991 50.9631 70.2203 48.7492 67.7415C48.5114 67.4765 48.2798 67.2031 48.0711 66.9131C46.7503 65.0707 48.5406 62.6232 50.4373 62.7692C51.4179 62.8444 52.4132 62.763 53.4001 62.7546C53.4419 62.7129 53.4815 62.6733 53.5232 62.6315L53.5128 62.6294Z" fill="#374957"></path><path d="M20.5998 36.7022C11.9344 36.8044 4.2977 29.3784 4.69831 20.0286C5.0572 11.6449 11.684 4.70722 20.702 4.71557C29.4279 4.72183 37.2524 11.7639 36.6724 21.8773C36.2279 29.6205 29.4238 36.8065 20.6019 36.7022H20.5998ZM20.556 34.359C28.2261 34.4529 33.962 28.2621 34.3229 21.6812C34.7966 13.0596 28.2031 7.07544 20.7208 7.06292C12.9172 7.0504 7.39203 12.9407 7.04358 20.0182C6.64296 28.1369 13.1968 34.4007 20.556 34.359Z" fill="#374957"></path><path d="M60.7301 36.5123C59.1444 36.5123 57.5565 36.5123 55.9707 36.5123C54.8774 36.5123 53.5733 35.2812 53.5587 34.1858C53.5358 32.3121 53.5378 30.4405 53.5483 28.5668C53.5566 27.2752 54.5498 26.1151 55.8456 26.0921C59.2007 26.0316 62.5558 26.0274 65.911 26.0796C67.1921 26.1005 68.2813 27.223 68.3418 28.6753C68.419 30.5573 68.3126 32.4477 68.2187 34.3319C68.1561 35.5775 66.5516 36.5248 65.5688 36.5123C63.9559 36.4914 62.343 36.506 60.7301 36.506V36.5102V36.5123ZM55.8852 28.3873C55.8852 30.2339 55.8685 31.9699 55.9123 33.7059C55.9165 33.8645 56.3067 34.1441 56.5174 34.1461C59.4302 34.1754 62.343 34.1628 65.2558 34.1691C65.8129 34.1691 66.0508 33.9417 66.0404 33.3741C66.0174 32.2036 66.032 31.033 66.0341 29.8625C66.0341 28.2329 66.1635 28.3873 64.5777 28.3873C61.7191 28.3873 58.8606 28.3873 55.8831 28.3873H55.8852Z" fill="#374957"></path><path d="M60.8219 23.4339C59.1568 23.4339 57.4918 23.4255 55.8267 23.436C54.652 23.4443 53.542 22.0714 53.5462 21.0824C53.5545 19.1565 53.5378 17.2306 53.5608 15.3047C53.5733 14.2886 54.5915 13.1181 55.7996 13.0868C59.1506 12.9949 62.5057 12.9991 65.8567 13.0868C67.3131 13.1243 68.2541 14.2114 68.3376 15.697C68.444 17.5749 68.348 19.4757 68.2041 21.3557C68.1185 22.4949 66.9709 23.4214 65.8192 23.4464C64.1541 23.4798 62.489 23.4547 60.8219 23.4547C60.8219 23.4485 60.8219 23.4401 60.8219 23.4339ZM55.8852 21.122C59.1464 21.122 62.2908 21.1199 65.4352 21.1241C65.8671 21.1241 66.0382 20.9238 66.0362 20.5044C66.0299 19.0229 66.0257 17.5394 66.0362 16.058C66.0403 15.5635 65.8108 15.3444 65.333 15.3444C62.368 15.3444 59.4031 15.336 56.4402 15.3653C56.2524 15.3653 55.9102 15.6469 55.9081 15.8034C55.8706 17.5394 55.8831 19.2754 55.8831 21.1241L55.8852 21.122Z" fill="#374957"></path><path d="M20.6582 62.0097C19.8257 62.0097 18.9932 62.0202 18.1606 62.0056C17.4283 61.993 16.9045 61.534 16.8482 60.8872C16.8086 60.4365 17.4408 59.702 18.0146 59.6916C19.809 59.6561 21.6055 59.6415 23.3978 59.702C24.1219 59.7271 24.56 60.3176 24.5079 60.9226C24.4557 61.5528 23.9132 62.0014 23.1558 62.0139C22.3233 62.0264 21.4907 62.016 20.6582 62.016C20.6582 62.0139 20.6582 62.0097 20.6582 62.0076V62.0097Z" fill="#374957"></path><path d="M9.66008 58.9947C9.75398 58.4605 9.37214 57.7115 10.0899 57.3067C10.4071 57.1293 10.9141 56.9875 11.1916 57.1231C11.538 57.2921 11.8948 57.7323 11.9678 58.11C12.0951 58.7589 12.0325 59.4496 11.9991 60.1214C11.972 60.6806 11.2667 61.2899 10.6804 61.2085C10.0732 61.1251 9.69764 60.7161 9.66426 60.0714C9.64756 59.7354 9.66217 59.3995 9.66217 58.9947H9.66008Z" fill="#374957"></path><path d="M31.744 59.1533C31.6772 59.652 31.7419 60.232 31.5019 60.6264C31.312 60.9414 30.7424 61.2023 30.3585 61.1835C29.7513 61.1522 29.4216 60.5638 29.3799 60.0171C29.3257 59.2868 29.407 58.5357 29.5176 57.8054C29.6157 57.1565 30.1832 56.9374 30.7174 57.0438C31.262 57.1523 31.7711 57.4694 31.6855 58.2081C31.6501 58.5169 31.6793 58.832 31.6793 59.1449C31.7001 59.147 31.721 59.1491 31.7398 59.1533H31.744Z" fill="#374957"></path><path d="M19.4981 29.5996C17.0756 28.8025 15.7006 26.8996 15.6005 24.7734C15.5629 23.9785 16.0699 23.436 16.7481 23.4339C17.4471 23.4339 17.8623 23.9284 17.9436 24.7254C18.0918 26.1798 19.1538 27.1959 20.3828 27.3357C21.883 27.5068 23.2414 26.2507 23.3999 25.0176C23.5961 23.4902 22.6384 22.2237 21.2362 22.0171C20.5122 21.9107 19.7443 21.9024 19.0766 21.6436C16.8795 20.7944 15.5441 18.8998 15.6088 16.6026C15.6631 14.6203 17.0214 12.6632 18.9494 12.0435C19.35 11.9162 19.5586 11.7555 19.5023 11.3132C19.4689 11.0565 19.4835 10.7916 19.4981 10.5328C19.5398 9.86096 20.0552 9.36228 20.6791 9.3748C21.3635 9.38941 21.8893 9.90687 21.8288 10.6163C21.7578 11.43 21.9268 11.8599 22.8094 12.2396C24.6936 13.0513 25.6972 14.6203 25.7431 16.7236C25.7577 17.3996 25.3029 17.9046 24.6539 17.9567C24.0384 18.0068 23.4062 17.5165 23.4166 16.8696C23.4375 15.4633 22.6446 14.37 20.9316 14.0966C19.1392 13.8129 17.614 15.5968 17.9937 17.2828C18.3192 18.7287 19.448 19.4841 20.6812 19.5446C22.7969 19.6489 24.4098 20.5858 25.3488 22.6118C26.1959 24.4375 25.6701 27.0999 24.0447 28.3226C23.3853 28.8192 22.6634 29.2344 21.8392 29.7707C21.8392 29.9647 21.8392 30.3799 21.8392 30.7931C21.8392 31.4629 21.3823 31.9678 20.7333 32.0116C20.1157 32.0554 19.5565 31.563 19.4981 30.9099C19.4773 30.6783 19.4939 30.4425 19.4939 30.2068C19.4939 30.0002 19.4939 29.7936 19.4939 29.5975L19.4981 29.5996Z" fill="#374957"></path></svg>