<svg xmlns="http://www.w3.org/2000/svg" width="75" height="80" viewBox="0 0 75 80" fill="none"><path d="M19.9685 34.0365C17.7679 31.7183 15.6593 29.498 13.5547 27.2753C12.3751 26.0285 12.3751 25.5795 13.5401 24.3393C15.6384 22.1056 17.7366 19.874 19.9184 17.5559C17.5613 16.709 15.8555 15.1977 14.9348 12.795C14.3272 11.2081 14.2061 9.57224 14.6007 7.90528C15.4045 4.50246 18.0895 2.10204 21.3549 1.85755C24.8771 1.59306 27.6142 3.61786 29.13 7.6119C29.4327 7.53633 29.5851 7.25405 29.7814 7.04513C31.7753 4.93365 33.7608 2.81105 35.7526 0.697349C36.6253 -0.229481 37.2037 -0.233926 38.0785 0.692903C40.5693 3.33559 43.0476 5.98939 45.5425 8.62763C45.958 9.06771 46.2378 9.54557 46.0645 10.179C45.8891 10.8147 45.4026 11.0436 44.8347 11.1792C42.2061 11.8082 40.5944 14.0686 40.7823 16.8402C40.9535 19.3606 42.9348 21.4988 45.2795 21.6921C47.9227 21.91 50.0522 20.2008 50.6619 17.3581C50.7913 16.7557 51.0064 16.2379 51.6139 16.0645C52.1756 15.9045 52.614 16.1556 53.0107 16.5801C55.5286 19.2717 58.0571 21.9522 60.575 24.6438C61.3579 25.4817 61.3475 26.1463 60.5478 27.002C58.5644 29.1246 56.5746 31.2427 54.5787 33.352C54.3782 33.5631 54.1089 33.7031 53.7081 33.9965C54.205 34.1899 54.4117 34.2677 54.6142 34.3521C57.5768 35.5724 59.4705 38.5484 59.4267 41.9046C59.3828 45.2741 57.4348 48.1968 54.4284 49.3037C53.8897 49.5015 53.7269 49.7526 53.7352 50.3416C53.7686 52.4753 53.7519 54.6113 53.7477 56.7472C53.7435 59.701 51.8269 61.468 49.0647 61.0813C47.2921 60.8323 45.7033 60.1433 44.3337 58.9053C44.2209 58.8031 44.1311 58.6431 43.8848 58.692C43.9683 59.8988 44.4255 60.9746 44.9391 62.0237C45.9893 64.1685 46.434 66.4378 46.2524 68.8493C46.1167 70.6496 45.5926 72.3255 44.7616 73.8813C44.0392 75.2371 43.5925 76.6218 43.7261 78.2176C43.8075 79.1667 43.2167 79.7779 42.4609 79.7557C41.7343 79.7334 41.3188 79.1444 41.2374 78.2265C41.0683 76.3017 41.513 74.5703 42.4295 72.9145C43.4401 71.0853 43.9516 69.1049 43.7699 66.9512C43.6614 65.6599 43.3211 64.4485 42.749 63.315C41.6612 61.1657 41.2123 58.8831 41.2353 56.4427C41.2812 51.3418 41.2583 46.2387 41.2416 41.1378C41.2353 39.3886 40.1726 37.8839 38.6568 37.366C37.1181 36.8392 35.4457 37.4105 34.4832 38.7996C33.9362 39.5886 33.74 40.4799 33.7421 41.4556C33.7525 47.3344 33.7483 53.211 33.7462 59.0898C33.7462 59.3676 33.7629 59.6477 33.7316 59.9211C33.6481 60.6412 33.099 61.168 32.4559 61.1168C31.769 61.0635 31.364 60.6434 31.2617 59.9188C31.2262 59.6744 31.2471 59.421 31.2471 59.1721C31.2471 55.1513 31.2325 51.1306 31.2596 47.1099C31.2638 46.4232 31.1239 45.9075 30.6207 45.443C30.1342 44.994 29.7438 44.4295 29.201 43.7871C29.0528 44.1917 28.9859 44.3828 28.9129 44.5717C27.6664 47.819 25.3865 49.557 22.1127 49.7815C21.6033 49.8171 21.4029 49.9971 21.2484 50.4794C20.2817 53.4911 19.2816 56.4894 18.3045 59.4966C17.9663 60.5345 18.0269 61.5569 18.4382 62.5749C20.05 66.5667 21.6472 70.5674 23.2528 74.5614C23.7705 75.8505 23.8144 77.2063 23.7183 78.5643C23.6682 79.2867 23.2089 79.7045 22.5199 79.7512C21.8748 79.7934 21.2087 79.2511 21.2755 78.5466C21.4843 76.3395 20.4843 74.5214 19.7347 72.6211C18.5259 69.5583 17.2899 66.5089 16.0789 63.4484C15.4463 61.8481 15.4254 60.2189 15.962 58.5808C16.9203 55.6537 17.8786 52.7265 18.8453 49.8037C18.9664 49.4348 19.0165 49.2036 18.5843 48.9614C15.7052 47.3455 14.2145 44.7584 14.4253 41.3134C14.6404 37.795 16.4819 35.4301 19.5949 34.2055C19.6658 34.1766 19.7368 34.141 19.9623 34.0388L19.9685 34.0365ZM42.5005 9.13439C40.7927 7.32296 39.1015 5.5582 37.4459 3.75344C37.0534 3.3267 36.8508 3.27113 36.427 3.73344C34.074 6.285 31.6813 8.79433 29.3116 11.3303C28.8272 11.8482 28.3303 12.2883 27.6038 11.9727C26.8647 11.6526 26.7958 10.9769 26.8605 10.2368C26.9252 9.51223 26.8355 8.80099 26.6141 8.10754C25.7853 5.52709 23.2778 4.06238 20.7536 4.69138C18.2398 5.31594 16.5695 7.82527 16.9286 10.4324C17.3212 13.2818 19.4988 15.2377 22.1295 15.111C22.4656 15.0954 22.7997 15.0087 23.1358 15.1288C24.1255 15.4822 24.3113 16.6357 23.4824 17.5225C21.0793 20.0985 18.6741 22.6745 16.2334 25.2128C15.7469 25.7173 15.8096 25.9618 16.2564 26.4285C18.578 28.8556 20.8663 31.3205 23.1671 33.772C23.3508 33.9676 23.545 34.1566 23.7079 34.3722C24.0294 34.7922 24.1171 35.2634 23.8937 35.7679C23.6745 36.2636 23.3049 36.5325 22.783 36.5303C22.4698 36.5303 22.1587 36.5014 21.8456 36.5014C18.4779 36.5103 16.0852 40.0198 17.1207 43.4293C17.8745 45.9142 20.2567 47.5033 22.593 47.0788C25.2257 46.601 26.9565 44.3583 26.8626 41.5134C26.8375 40.771 26.7749 40.0443 27.5579 39.6686C28.3805 39.273 28.8753 39.8353 29.3743 40.3843C29.9442 41.0089 30.5184 41.6312 31.0905 42.2535C31.1427 40.2821 31.4663 38.5218 32.6021 37.0237C33.7399 35.5257 35.2182 34.6766 37.0221 34.5233C38.5587 34.3944 39.9597 34.8256 41.204 35.8057C42.8242 37.0815 43.6008 38.8507 43.8994 41.0378C44.198 40.8066 44.3775 40.5021 44.5988 40.2354C45.0373 39.7064 45.5509 39.3352 46.244 39.6731C46.9539 40.0176 47.0416 40.6577 46.979 41.4156C46.7389 44.245 48.6618 46.7276 51.3592 47.1166C53.8834 47.4811 56.4035 45.5141 56.8586 42.8247C57.3326 40.022 55.7124 37.3371 53.1548 36.6614C52.4846 36.4836 51.8144 36.517 51.1379 36.5348C50.4155 36.5548 49.9103 36.0858 49.833 35.3968C49.7662 34.8056 50.0627 34.4077 50.426 34.0232C52.8583 31.4361 55.2823 28.8445 57.7083 26.2529C57.9088 26.0374 58.2283 25.8795 57.8462 25.4795C56.084 23.6369 54.349 21.7633 52.5786 19.8763C50.6243 23.3569 47.8412 25.0061 44.0977 24.1548C41.1184 23.4769 39.1454 21.3988 38.4898 18.236C37.6568 14.2264 39.1997 11.2303 42.5026 9.13883L42.5005 9.13439ZM44.6552 43.8783C44.317 44.4384 43.7324 44.6028 43.7407 45.3296C43.7658 47.5989 43.7073 49.8727 43.7679 52.1397C43.8577 55.447 46.4361 58.223 49.5387 58.4519C50.7245 58.5386 51.2444 58.043 51.2486 56.7983C51.2548 54.6935 51.234 52.5887 51.2611 50.4861C51.2674 49.9438 51.1317 49.7437 50.6035 49.6371C47.9289 49.0925 46.0603 47.45 44.9955 44.7784C44.8974 44.5317 44.8076 44.2783 44.6552 43.8783Z" fill="#008EAA"></path><path d="M5.04051 25.195C6.21179 25.195 7.38515 25.1861 8.55642 25.1972C9.42497 25.2061 9.96989 25.7151 9.98868 26.4908C10.0075 27.2976 9.44168 27.8466 8.53973 27.851C6.17003 27.8622 3.80032 27.8622 1.43062 27.851C0.562081 27.8466 0.0192478 27.3332 0.000457241 26.5553C-0.0183333 25.7462 0.543309 25.2061 1.44943 25.1972C2.64785 25.1839 3.84418 25.195 5.0426 25.195H5.04051Z" fill="#008EAA"></path><path d="M70.0225 25.195C71.1687 25.195 72.3149 25.1906 73.4591 25.195C74.4362 25.2017 75.0103 25.7106 74.9999 26.5419C74.9894 27.3443 74.4278 27.8488 73.5029 27.8532C71.1604 27.8599 68.8157 27.8621 66.4732 27.8532C65.5608 27.8488 65.0012 27.3154 65.0117 26.5063C65.0221 25.6973 65.5754 25.2039 66.5066 25.1972C67.6778 25.1883 68.8491 25.1972 70.0225 25.195Z" fill="#008EAA"></path><path d="M11.3583 41.8646C11.3103 42.3669 11.089 42.7558 10.6777 43.0092C8.54182 44.3228 6.41223 45.6497 4.26384 46.941C3.57485 47.3566 2.86081 47.121 2.51632 46.4587C2.16974 45.7919 2.3618 45.0718 3.06958 44.6295C5.17621 43.3137 7.28495 42.0068 9.41038 40.7288C10.3436 40.1687 11.3938 40.8088 11.3583 41.8646Z" fill="#008EAA"></path><path d="M72.651 45.7297C72.6322 46.8744 71.6405 47.4611 70.7219 46.9299C69.49 46.2187 68.2895 45.4452 67.0744 44.6984C66.1975 44.1583 65.3143 43.6316 64.4458 43.0781C63.6545 42.5736 63.4332 41.8335 63.8362 41.1378C64.2224 40.4688 64.9072 40.3154 65.6756 40.78C67.7509 42.038 69.8158 43.3182 71.8869 44.5851C72.3525 44.8696 72.6197 45.2718 72.651 45.7297Z" fill="#008EAA"></path><path d="M3.56235 5.90045C3.93607 5.90934 4.1866 6.05603 4.43505 6.20939C6.45817 7.44739 8.48548 8.67872 10.5023 9.92782C11.2936 10.4168 11.5421 11.1658 11.1809 11.8593C10.8134 12.5661 10.091 12.735 9.29555 12.2527C7.22233 10.9969 5.15746 9.72112 3.09468 8.44979C2.52052 8.09639 2.21152 7.58075 2.41613 6.86062C2.5936 6.23607 3.02995 5.92935 3.56235 5.90045Z" fill="#008EAA"></path><path d="M72.6489 7.27847C72.6239 7.74967 72.3901 8.15418 71.9516 8.42534C69.8408 9.72335 67.7362 11.0325 65.615 12.3127C64.9093 12.7394 64.212 12.5483 63.8445 11.906C63.4603 11.2347 63.6587 10.4679 64.3894 10.0123C66.471 8.71428 68.5567 7.42516 70.655 6.1605C71.605 5.58929 72.6301 6.15383 72.6468 7.27847H72.6489Z" fill="#008EAA"></path></svg>