<svg xmlns="http://www.w3.org/2000/svg" width="75" height="75" viewBox="0 0 75 75" fill="none"><path d="M14.6023 12.1849C15.8439 13.4188 16.97 14.5908 18.156 15.7008C18.983 16.4758 18.8291 17.4727 18.2479 18.1537C17.6624 18.8389 16.4123 18.7663 15.722 18.0832C14.7369 17.1098 13.7283 16.1555 12.7966 15.133C12.2816 14.5673 11.9782 14.7744 11.6021 15.2269C8.35824 19.1506 5.94138 23.5076 4.62932 28.4474C4.33015 29.5703 3.14202 30.2171 2.26589 29.7795C1.46027 29.3782 1.05639 28.3855 1.35556 27.3694C2.67404 22.8651 4.66778 18.698 7.50988 14.9473C9.29634 12.5927 11.2986 10.46 13.5958 8.57933C16.0319 6.58547 18.6347 4.88835 21.4853 3.56267C24.6074 2.11104 27.8619 1.12052 31.2617 0.50144C34.2299 -0.0386517 37.2152 -0.0834814 40.1791 0.0915679C44.4743 0.347738 48.6306 1.37242 52.586 3.13572C56.2636 4.77307 59.593 6.91209 62.5996 9.60187C67.3884 13.882 70.8182 19.0396 72.9508 25.0788C73.8227 27.5508 74.5087 30.0677 74.6817 32.6892C74.8441 35.1356 75.0813 37.5948 74.9724 40.0348C74.8441 42.9274 74.2522 45.7816 73.3889 48.5632C72.111 52.6811 70.175 56.4767 67.5893 59.9115C65.7986 62.2875 63.7407 64.4222 61.4222 66.3307C58.7254 68.5508 55.7935 70.3525 52.6266 71.7657C50.9171 72.5278 49.1221 73.1085 47.3399 73.6977C46.4659 73.9859 45.2906 73.2473 45.1004 72.4254C44.891 71.5138 45.5598 70.645 46.5685 70.3547C50.3294 69.2745 53.8511 67.6756 57.0329 65.3807C58.1698 64.561 59.2639 63.6772 60.4926 62.7336C59.2404 61.5104 58.095 60.4067 56.9688 59.2817C56.082 58.3937 56.1119 57.4779 56.8598 56.7649C57.5565 56.0988 58.5437 56.0839 59.2404 56.7734C60.4157 57.9347 61.5718 59.1131 62.7812 60.3299C65.4823 57.4181 67.5209 54.1306 69.0403 50.5122C70.5554 46.9066 71.3546 43.1345 71.6024 39.1596C69.9891 39.1596 68.3693 39.1639 66.7516 39.1596C65.696 39.1575 64.8434 38.4402 64.775 37.5094C64.7109 36.6278 65.5763 35.7653 66.6512 35.7376C68.1428 35.6992 69.6365 35.7269 71.1302 35.7248C71.284 35.7248 71.4379 35.7248 71.6046 35.7248C71.2028 29.3632 69.3715 23.5503 65.7452 18.3501C64.9716 17.24 64.1083 16.1897 63.2898 15.1095C62.9586 14.674 62.6723 14.657 62.2727 15.0796C61.3217 16.0851 60.2982 17.0244 59.3494 18.032C58.4369 19.0012 56.7787 18.809 56.3449 17.2678C56.1483 16.5697 56.5265 16.0531 56.9774 15.5984C58.0822 14.4819 59.2062 13.3846 60.4093 12.1913C54.381 6.83737 47.3954 3.96614 39.3029 3.44312C39.3029 4.04512 39.3158 4.66847 39.3008 5.29181C39.273 6.45739 39.3136 7.6315 39.164 8.78213C39.0294 9.81961 38.2922 10.2252 37.1446 10.1185C36.463 10.0544 35.8732 9.2902 35.8689 8.4427C35.8625 6.79468 35.8689 5.14665 35.8689 3.39189C27.7828 3.93838 20.7139 6.75198 14.6044 12.1806L14.6023 12.1849Z" fill="#008EAA"></path><path d="M13.5595 50.4695C15.1045 53.3771 17.0811 55.8277 19.4745 57.9049C20.8592 59.1067 22.449 60.0716 23.9492 61.139C24.3723 61.44 24.5967 61.2201 24.7762 60.8273C25.3382 59.5849 25.8938 58.3382 26.4878 57.1086C27.0862 55.8704 27.6695 55.6719 29.0265 56.1287C30.4368 56.6027 31.8429 57.0979 33.2747 57.4993C34.0696 57.7234 34.9116 57.8664 35.7364 57.8856C37.837 57.9347 39.2645 59.4099 39.288 61.3482C39.335 65.21 39.3157 69.0717 39.2944 72.9335C39.2858 74.2378 38.4567 75.0106 37.1639 74.9999C32.1678 74.9658 27.3896 73.8984 22.7995 71.9558C19.5749 70.5917 16.5832 68.8091 13.8971 66.5762C8.87749 62.4006 5.03318 57.3391 2.65051 51.221C1.50085 48.2686 0.618314 45.2522 0.321283 42.0864C0.18452 40.6241 0.0627046 39.1596 0.0028709 37.6931C-0.0484151 36.4506 0.58839 35.7547 1.83635 35.7462C5.80888 35.7141 9.78141 35.6757 13.7518 35.759C15.6387 35.7995 16.9657 37.0526 17.1324 39.3048C17.2841 41.3392 17.8034 43.316 18.5812 45.218C18.8056 45.7645 19.0236 46.358 19.0385 46.9344C19.0749 48.3028 17.8162 48.4821 16.9422 48.941C15.8567 49.511 14.7091 49.9593 13.5595 50.4717V50.4695ZM35.8326 61.2991C33.5867 61.1582 31.4583 60.6694 29.3855 59.9179C29.2402 59.8646 28.8812 60.0652 28.7957 60.236C28.0948 61.6449 27.4494 63.0816 26.7528 64.4927C26.3511 65.306 25.383 65.6348 24.5753 65.274C21.8828 64.0721 19.4446 62.4604 17.2564 60.5071C14.1194 57.7063 11.5871 54.4252 9.775 50.6083C9.30274 49.6135 9.60619 48.6208 10.6041 48.1384C12.1256 47.3998 13.6578 46.6868 15.0596 46.0228C14.5403 43.7173 14.0339 41.4609 13.5232 39.1959H3.57794C3.72966 56.0348 19.0877 71.279 35.8304 71.4135V61.3012L35.8326 61.2991Z" fill="#008EAA"></path><path d="M28.9431 44.2787C31.2254 44.2787 33.405 44.2787 35.5868 44.2787C36.339 44.2787 36.9053 44.5349 37.3263 45.2287C37.9011 46.1808 37.1361 47.6431 35.9608 47.6602C32.9755 47.7007 29.9902 47.6879 27.005 47.6623C26.334 47.658 25.6352 46.8383 25.6245 46.1125C25.5989 44.1442 25.4792 42.1653 25.6202 40.2077C25.742 38.5149 26.9986 36.7495 28.6654 36.2051C29.706 35.8657 30.8578 35.7013 31.9541 35.7248C33.4969 35.7568 34.2748 34.9563 34.0675 33.5473C34.0226 33.2335 34.0226 32.9048 34.0675 32.591C34.2534 31.2888 33.264 30.6313 32.0972 30.6206C30.4988 30.6035 28.8983 30.6249 27.2999 30.6035C26.4921 30.5928 25.7997 30.104 25.6224 29.3739C25.4493 28.6566 25.6737 27.9991 26.2891 27.5786C26.5883 27.3736 27.0007 27.2456 27.364 27.237C28.9346 27.2007 30.5095 27.1815 32.0802 27.2285C34.7064 27.3075 36.5997 28.4261 37.2472 30.8298C37.8926 33.2207 37.9054 35.6671 36.0057 37.6332C35.0056 38.6686 33.7192 39.213 32.2404 39.2065C31.7874 39.2044 31.3279 39.2514 30.8813 39.198C29.6676 39.0486 29.1205 39.9345 28.941 40.9933C28.9197 41.1236 28.9389 41.258 28.9389 41.3925C28.9389 42.3233 28.9389 43.2519 28.9389 44.2808L28.9431 44.2787Z" fill="#008EAA"></path><path d="M44.4208 35.6928H49.4939C49.5088 35.4686 49.5366 35.2423 49.5366 35.0182C49.5409 33.0478 49.5259 31.0796 49.543 29.1092C49.5559 27.6234 50.3316 27.0321 51.7569 27.3779C52.492 27.5573 52.9258 28.1721 52.93 29.2565C52.9471 34.7129 52.9536 40.1693 52.9215 45.6258C52.9172 46.4242 52.7099 47.1905 51.7718 47.5428C50.7098 47.942 49.6071 47.3613 49.5751 46.2256C49.5217 44.2851 49.5452 42.3404 49.5388 40.3978C49.5388 40.0284 49.5388 39.6591 49.5388 39.2108C49.2481 39.1938 48.996 39.1681 48.7438 39.166C46.7458 39.1617 44.7478 39.166 42.7498 39.1596C41.677 39.1575 40.9911 38.4893 40.989 37.4305C40.9825 34.6083 40.9911 31.7883 40.9804 28.9662C40.9761 28.0055 41.521 27.4121 42.4207 27.2328C43.1793 27.0812 44.0918 27.7238 44.299 28.5179C44.3909 28.868 44.4144 29.2458 44.4144 29.6109C44.4251 31.6261 44.4187 33.6413 44.4187 35.6928H44.4208Z" fill="#008EAA"></path></svg>