<svg xmlns="http://www.w3.org/2000/svg" width="134" height="28" viewBox="0 0 134 28" fill="none"><path d="M4.60114 0H16.2044C22.5904 0 26.608 0.576493 28.9403 3.61002C30.1606 5.21795 30.6857 7.85731 29.9975 11.1339C29.3213 14.3481 27.6171 17.4736 25.4101 18.9913C22.4273 21.0541 19.8496 21.9032 13.1633 21.9032H0L4.60114 0ZM10.1599 16.9284H12.6793C16.8171 16.9284 19.7003 15.0478 20.5618 10.9516C21.4217 6.8554 19.3279 4.97485 15.1901 4.97485H12.6707L10.1599 16.9284Z" fill="#EF6B0D"></path><path d="M40.3548 15.5027C39.8125 18.0813 40.5848 19.2638 42.5945 19.2638C44.3038 19.2638 45.1602 18.4755 45.603 17.5048H54.2372C53.4323 20.0522 49.8334 22.4797 42.0676 22.4797C35.0208 22.4797 30.7441 20.1442 31.9557 14.381C33.1982 8.46501 38.6129 6.09827 45.27 6.09827C51.0262 6.09827 56.4562 7.94929 55.0404 14.6831L54.8687 15.5027H40.3565H40.3548ZM46.8438 12.5908C47.2591 10.6182 46.6035 9.31412 44.5938 9.31412C42.706 9.31412 41.388 10.5887 40.9675 12.5908H46.8438Z" fill="#EF6B0D"></path><path d="M58.5552 12.6498C58.9825 10.6182 59.3721 8.61608 59.6295 6.67476H68.3255L67.8844 9.34538H67.9445C69.8375 7.19048 72.4341 6.09827 75.4941 6.09827C78.192 6.09827 82.649 7.00989 81.4322 12.8026L79.5186 21.9032H70.7042L72.4187 13.742C72.8906 11.4968 72.187 10.7067 70.6578 10.7067C68.619 10.7067 67.512 11.9813 67.0212 14.3168L65.4286 21.9015H56.6124L58.5569 12.6481L58.5552 12.6498Z" fill="#EF6B0D"></path><path d="M85.7673 27.7289L90.1985 21.905L84.7032 6.6748H94.477L96.2344 14.8655L101.345 6.6748H110.07L102.475 16.5655C98.1703 22.2071 96.0336 25.2406 94.5817 27.7289H85.7673Z" fill="#EF6B0D"></path><path d="M123.27 6.09656C130.526 6.09656 134.813 8.09865 133.514 14.2873C132.213 20.4776 127.085 22.478 119.829 22.478C112.573 22.478 108.286 20.4776 109.586 14.2873C110.886 8.09865 116.014 6.09656 123.27 6.09656ZM120.644 18.5953C122.772 18.5953 123.906 16.6228 124.397 14.2873C124.888 11.9518 124.583 9.9792 122.455 9.9792C120.326 9.9792 119.192 11.9518 118.699 14.2873C118.209 16.6228 118.516 18.5953 120.644 18.5953Z" fill="#EF6B0D"></path></svg>