<svg xmlns="http://www.w3.org/2000/svg" width="75" height="81" viewBox="0 0 75 81" fill="none"><path d="M37.7962 0C38.6107 0.44087 38.8796 1.14292 38.856 2.10615C38.807 4.18722 38.8462 6.27247 38.8384 8.35354C38.8344 9.49019 38.2535 10.1797 37.3447 10.163C36.4772 10.1484 35.8982 9.45049 35.8923 8.37653C35.8825 6.29336 35.9257 4.2102 35.8727 2.12913C35.8491 1.1659 36.1337 0.470122 36.9149 0L37.7962 0Z" fill="#008EAA"></path><path d="M39.3506 63.0172C38.0513 62.9545 36.6342 62.8897 35.2151 62.8208C34.1552 62.7686 33.3015 63.1133 32.5458 63.9804C31.0973 65.6394 29.5546 67.2086 28.0354 68.7986C27.741 69.1079 27.6488 69.3335 27.8529 69.7869C28.7793 71.845 28.4358 74.0598 26.9579 75.7126C26.0806 76.6946 25.1836 77.6578 24.2572 78.5855C22.2297 80.6144 19.3091 80.5872 17.313 78.5291C16.2571 77.4426 15.2266 76.329 14.1962 75.2132C13.4955 74.4547 13.4543 73.5103 14.0667 72.8563C14.679 72.2023 15.5603 72.2441 16.2787 72.9921C17.2581 74.0139 18.2139 75.0586 19.1914 76.0824C20.2866 77.2316 21.3425 77.2232 22.4475 76.0678C23.1639 75.3198 23.8725 74.5613 24.5771 73.8028C25.7135 72.5805 25.6448 71.6716 24.5084 70.3406C22.3828 67.8521 20.0766 65.5579 17.8587 63.1676C15.1913 60.2947 12.4965 57.451 9.80557 54.6031C9.4248 54.1998 9.02244 53.8195 8.60831 53.456C8.0293 52.9503 6.97922 52.9566 6.36293 53.5625C5.35604 54.5508 4.37665 55.5767 3.4522 56.6528C2.72402 57.499 2.82215 58.6419 3.63472 59.5362C4.63768 60.6415 5.67009 61.7176 6.6966 62.7999C7.10485 63.2303 7.32859 63.7276 7.21868 64.3461C7.01259 65.5203 5.65241 66.0448 4.81433 65.2069C3.5307 63.9219 2.24512 62.6265 1.09888 61.2078C-0.455603 59.2855 -0.333916 56.3582 1.29319 54.4756C2.23727 53.3828 3.22255 52.3235 4.25495 51.3289C5.65242 49.9812 7.30699 49.6114 9.1029 50.232C9.5818 50.397 9.84875 50.3009 10.1785 49.9415C11.5132 48.4873 12.8674 47.054 14.2335 45.6331C14.5161 45.3406 14.5515 45.1714 14.2728 44.8245C11.8664 41.8408 12.6025 37.944 15.9038 36.1325C16.2001 35.9695 16.2767 35.8839 16.1099 35.5161C14.5907 32.1856 15.8017 28.9198 19.0186 27.664C19.4014 27.5157 19.4681 27.3339 19.4131 26.9306C19.0245 24.0765 20.3356 21.7342 22.8499 20.8065C23.2542 20.6582 23.3327 20.5036 23.2758 20.046C22.8597 16.7572 24.7145 14.135 27.7332 13.6753C28.377 13.5771 29.0011 13.6774 29.6253 13.8257C29.8117 13.8696 30.0001 14.0159 30.1787 13.8445C31.48 12.5888 33.0267 12.7476 34.5596 13.0422C37.7353 13.6502 40.9031 14.3084 44.071 14.9624C44.7717 15.1066 45.4822 14.9833 46.1868 15.1442C48.862 15.7585 50.6403 18.4455 50.177 21.3101C50.0848 21.8763 50.23 22.0518 50.7148 22.2315C53.0917 23.1091 54.4833 25.6436 54.0417 28.2971C53.9612 28.7756 54.0613 28.9072 54.4578 29.0556C56.9563 29.9854 58.2596 32.2566 57.9141 35.1045C57.8513 35.6164 57.973 35.7982 58.4166 35.9653C61.8651 37.2587 62.9937 41.6862 60.6149 44.6427C60.2047 45.1526 60.2655 45.3929 60.6777 45.8149C62.0182 47.1877 63.3274 48.596 64.6287 50.0105C64.925 50.3323 65.1566 50.3929 65.5767 50.2236C67.5394 49.4338 69.3353 49.7807 70.878 51.3122C71.8084 52.2357 72.7092 53.1969 73.5807 54.1831C75.4669 56.3143 75.4885 59.4317 73.5532 61.5086C68.2774 67.1689 62.9761 72.8041 57.6551 78.4163C55.6845 80.4974 52.707 80.4639 50.7168 78.4205C49.8355 77.5158 48.9621 76.6006 48.1201 75.6582C46.6265 73.9867 46.2457 72.0498 47.0465 69.8977C47.2035 69.4756 47.125 69.2521 46.8502 68.9616C45.072 67.0937 43.2898 65.2341 41.5567 63.3202C41.0484 62.7581 40.5086 63.0966 39.9826 63.0276C39.8138 63.0047 39.6411 63.0235 39.3506 63.0235V63.0172ZM40.12 26.0573C40.1161 28.9866 38.1612 31.2913 35.4879 31.5901C35.0934 31.634 34.96 31.7677 34.8991 32.1814C34.483 35.069 32.9344 36.7071 30.271 37.0874C29.9158 37.1375 29.7803 37.2587 29.7313 37.6494C29.374 40.4973 27.8117 42.1689 25.1286 42.5805C24.7498 42.639 24.6085 42.7581 24.5653 43.1927C24.1826 47.0038 20.5731 49.1852 17.2895 47.5805C16.8616 47.3715 16.6477 47.4677 16.3572 47.7811C15.0873 49.1559 13.8272 50.5454 12.5043 51.8596C11.994 52.3653 12.1059 52.6139 12.5338 53.0652C16.7419 57.5053 20.9382 61.9579 25.111 66.4313C25.5447 66.8973 25.7567 66.8095 26.1335 66.3979C27.7253 64.6658 29.3544 62.9712 30.954 61.2475C31.8235 60.3114 32.8795 59.8642 34.0885 59.7284C35.4624 59.5717 36.8344 59.672 38.1946 59.812C40.6342 60.0627 42.8089 59.7284 44.438 57.4802C45.0111 56.6883 45.9788 56.7259 46.5833 57.3486C47.2035 57.9879 47.2055 58.9052 46.5401 59.6428C45.965 60.2821 45.3723 60.909 44.7344 61.4752C44.3948 61.7782 44.4046 61.9265 44.703 62.2357C46.0847 63.6754 47.4587 65.1254 48.8071 66.6027C49.1329 66.9579 49.3017 66.9265 49.6137 66.5943C53.8827 62.0352 58.1595 57.4865 62.45 52.9482C62.7798 52.5993 62.7621 52.4196 62.4422 52.0895C61.2626 50.8755 60.1124 49.6302 58.9524 48.3975C58.079 47.4677 58.0751 47.4635 57.1683 48.3703C56.711 48.8279 56.2046 49.0891 55.5706 48.8759C54.4519 48.4998 54.1751 47.1334 55.0486 46.1743C56.1045 45.0126 57.2076 43.9031 58.2576 42.7372C59.131 41.7677 59.1311 40.397 58.3126 39.4986C57.4647 38.5688 56.1732 38.5458 55.2134 39.4651C54.813 39.8475 54.4519 40.2758 54.0633 40.6728C53.3233 41.4292 52.4793 41.4856 51.8493 40.8337C51.2193 40.1818 51.2762 39.2081 52.0063 38.4204C52.7796 37.5847 53.5765 36.774 54.3361 35.9256C55.2546 34.9018 55.2605 33.4789 54.3812 32.57C53.5058 31.6674 52.2399 31.6904 51.284 32.6452C50.8562 33.0736 50.4538 33.5291 50.0318 33.9658C49.2801 34.7451 48.3831 34.8141 47.7609 34.1496C47.1348 33.481 47.1996 32.5449 47.9454 31.7384C48.8031 30.8086 49.6962 29.9144 50.5323 28.9637C51.4136 27.9628 51.3723 26.565 50.495 25.6707C49.6451 24.8036 48.3635 24.8245 47.4489 25.7355C47.0033 26.1805 46.5853 26.659 46.1456 27.1124C45.3978 27.8813 44.4851 27.9315 43.8747 27.2503C43.282 26.5901 43.3408 25.654 44.0474 24.8893C44.8875 23.9783 45.753 23.0945 46.5911 22.1793C47.5018 21.1847 47.5391 19.8161 46.705 18.8822C45.8492 17.921 44.5146 17.896 43.5567 18.8822C42.2555 20.2236 40.9934 21.6089 39.7019 22.9607C39.4586 23.2156 39.384 23.4162 39.5665 23.7631C39.9571 24.5027 40.0847 25.326 40.118 26.0552L40.12 26.0573ZM72.0223 57.8459C72.0184 57.2128 71.773 56.6904 71.3589 56.2495C70.5463 55.3845 69.7416 54.509 68.9133 53.6607C67.9732 52.6996 66.8603 52.6975 65.9202 53.6942C60.7032 59.2249 55.4961 64.764 50.2929 70.3114C49.3645 71.3018 49.3684 72.4928 50.2752 73.4915C51.0563 74.3524 51.8572 75.1965 52.6638 76.0302C53.6472 77.0456 54.7404 77.0707 55.7041 76.049C60.9211 70.5203 66.1262 64.975 71.3353 59.438C71.7495 58.9971 72.0027 58.481 72.0203 57.8459H72.0223ZM29.8019 33.9679C30.7107 33.9407 31.4113 33.527 31.7764 32.6243C32.1611 31.6737 32.0159 30.771 31.327 30.0293C29.5723 28.1404 27.8097 26.2579 26.0236 24.4003C25.0658 23.4037 23.7449 23.4225 22.8774 24.3795C22.0354 25.3072 22.055 26.6695 22.9794 27.6703C24.7125 29.5466 26.4692 31.3958 28.2199 33.2533C28.6537 33.7129 29.1699 33.9804 29.798 33.9679H29.8019ZM34.9992 28.4747C36.4261 28.4643 37.4252 27.0581 37.066 25.5725C36.962 25.14 36.7421 24.8914 36.33 24.7054C33.2033 23.2888 30.9148 20.9549 29.6449 17.5658C29.5095 17.2044 29.3112 17.0163 28.9972 16.9077C28.0551 16.5796 27.0168 16.9682 26.4908 17.8479C25.951 18.7505 26.0335 19.9123 26.7813 20.7188C28.9795 23.0903 31.2013 25.4346 33.4173 27.7852C33.8491 28.2428 34.3751 28.4956 34.9992 28.4768V28.4747ZM24.6576 39.4568C25.5781 39.4359 26.2611 38.9867 26.6203 38.0903C26.9893 37.1668 26.848 36.2871 26.1826 35.5642C24.8637 34.1308 23.5329 32.71 22.1885 31.3059C21.2248 30.3009 19.9137 30.28 19.0383 31.214C18.1668 32.1438 18.1825 33.5374 19.1246 34.5675C20.4063 35.9674 21.7174 37.336 23.0187 38.715C23.4701 39.1935 24.002 39.4839 24.6595 39.4589L24.6576 39.4568ZM17.947 38.7882C17.2051 38.8028 16.5083 39.1726 16.0942 40.0042C15.6683 40.8609 15.7075 41.7531 16.2885 42.4906C16.8655 43.224 17.5171 43.9073 18.2139 44.5111C18.9185 45.1212 19.7586 45.1359 20.5496 44.6595C21.3131 44.1998 21.6801 43.4622 21.635 42.5199C21.5702 41.1994 19.317 38.8467 17.947 38.7882ZM40.7049 17.453C37.9924 16.9891 35.4899 16.3122 32.9266 15.9904C32.3849 15.9214 32.2867 16.1826 32.483 16.6778C33.3093 18.784 34.8029 20.234 36.5812 21.402C36.7362 21.5044 36.8835 21.5253 37.0365 21.3623C38.2142 20.0982 39.3997 18.8404 40.7049 17.4509V17.453Z" fill="#008EAA"></path><path d="M11.9194 2.10407C11.9096 1.40203 12.1667 0.923546 12.6849 0.633115C13.2266 0.328058 13.784 0.355221 14.2649 0.771018C14.6614 1.11368 15.0127 1.51485 15.3758 1.89931C16.7949 3.4037 18.2178 4.90391 19.6271 6.41666C20.3749 7.219 20.4377 8.15924 19.8155 8.82995C19.1992 9.49648 18.2885 9.43797 17.5505 8.65653C15.8508 6.8638 14.1609 5.05853 12.467 3.25953C12.1451 2.91895 11.9037 2.54076 11.9194 2.0999V2.10407Z" fill="#008EAA"></path><path d="M54.5088 7.60552C54.4853 7.25659 54.7012 6.86169 55.025 6.51693C56.7581 4.67614 58.4834 2.827 60.2263 0.996656C60.9054 0.28416 61.7847 0.261176 62.3853 0.885916C63.0016 1.52946 62.978 2.49896 62.2832 3.24488C60.5776 5.07731 58.8543 6.89303 57.1448 8.72128C56.6462 9.25408 56.0613 9.4484 55.4058 9.16633C54.8386 8.92186 54.5324 8.43503 54.5088 7.60343V7.60552Z" fill="#008EAA"></path><path d="M10.155 70.4118C9.34634 70.4013 8.71434 69.7285 8.70649 68.8739C8.69864 68.011 9.3954 67.2672 10.2001 67.2818C10.9813 67.2964 11.6388 68.0068 11.6467 68.8447C11.6545 69.7348 11.0009 70.4243 10.155 70.4139V70.4118Z" fill="#008EAA"></path><path d="M50.2045 55.0753C49.3998 55.069 48.7698 54.3983 48.7619 53.5333C48.7541 52.6515 49.4312 51.9286 50.2477 51.9432C51.0289 51.9578 51.6962 52.6682 51.706 53.5019C51.7178 54.3711 51.0387 55.0815 50.2045 55.0753Z" fill="#008EAA"></path></svg>