<svg xmlns="http://www.w3.org/2000/svg" width="81" height="80" viewBox="0 0 81 80" fill="none"><path d="M26.8151 52.0028C27.0576 51.2307 27.2445 50.4742 27.5294 49.7554C28.7777 46.6068 31.0584 44.6665 34.3895 43.9789C36.6035 43.5228 38.8509 43.1779 41.016 42.5504C42.5113 42.1165 43.8931 41.2865 45.3172 40.6123C45.4329 40.5567 45.493 40.3542 45.5442 40.2073C45.5775 40.1072 45.5397 39.987 45.5531 39.8758C45.7556 38.2981 45.3684 37.1032 44.0422 35.9617C41.9639 34.1727 40.8736 31.6872 40.3863 28.9725C40.3306 28.6588 40.2372 28.3517 40.1593 28.0424C37.3356 27.7354 35.3908 26.1155 34.8991 23.6633C34.4051 21.1979 35.6111 19.213 38.5149 17.5308C38.5928 16.5985 38.6863 15.7774 38.7241 14.9541C38.7975 13.332 38.8932 11.7076 38.8732 10.0855C38.8554 8.59685 38.9488 7.14383 39.5563 5.76869C40.4953 3.64367 41.9149 2.00596 44.0689 0.986846C45.7177 0.210269 47.4222 0.00110468 49.2001 0.00778013C52.253 0.021131 55.3081 -0.0278223 58.3588 0.0255813C60.199 0.0589586 62.0303 0.332652 63.6146 1.3629C66.2069 3.04733 67.8847 5.33924 68.0293 8.53678C68.1138 10.4104 68.1294 12.2862 68.2073 14.1597C68.254 15.2834 68.3586 16.4049 68.4432 17.5931C69.7582 18.0293 70.8797 18.8926 71.5072 20.2032C71.8922 21.0043 72.2615 21.9945 72.1391 22.8267C71.6518 26.1043 69.6915 27.9111 67.0146 27.9935C66.4005 29.7091 65.9109 31.4046 65.19 32.9956C64.4602 34.6022 63.2452 35.8883 61.8589 36.9942C61.741 37.0877 61.563 37.2167 61.5608 37.3347C61.5363 38.3048 61.5341 39.2772 61.5652 40.2474C61.5697 40.3831 61.7566 40.5834 61.9035 40.6368C63.3787 41.1797 64.8362 41.7983 66.3538 42.1922C67.6822 42.537 69.0729 42.675 70.4458 42.8041C73.0314 43.0466 75.4657 43.7142 77.3326 45.59C78.908 47.1743 80.0095 49.0768 80.0295 51.4221C80.0896 58.5425 80.1652 65.663 80.1831 72.7835C80.1875 74.6593 79.7402 76.4661 78.3651 77.8502C77.1101 79.1118 75.5881 79.9151 73.759 79.9507C72.2615 79.9796 70.7529 80.0553 69.2642 79.9307C68.0137 79.8261 66.7832 79.4723 65.546 79.2164C62.1771 78.5222 58.8105 77.8257 55.4438 77.1248C55.2903 77.0936 55.1435 77.0224 54.9276 76.9445V79.9017H52.2441V76.9178C50.9312 77.1715 49.7163 77.3896 48.5058 77.641C45.9002 78.1817 43.2812 78.6623 40.7022 79.3143C38.2479 79.9351 35.778 80.0086 33.2791 79.9574C30.6579 79.9017 28.9 78.5021 27.5983 76.3727C27.4871 76.1902 27.4181 75.9833 27.3135 75.7964C27.2757 75.7296 27.1911 75.6895 27.1778 75.6784C26.0652 76.4261 25.0038 77.2115 23.8757 77.8858C22.1311 78.9249 20.2353 79.5791 18.206 79.786C17.2247 79.8862 16.2256 80.0219 15.2532 79.9307C13.9181 79.8061 12.5853 79.5391 11.2791 79.2186C10.4246 79.0095 10.1309 77.9125 10.6316 77.1515C10.8096 76.88 11.0143 76.6174 11.2413 76.3882C13.8447 73.7715 16.457 71.1636 19.0649 68.549C20.0506 67.5611 20.0484 66.5375 19.0649 65.554C17.554 64.0409 16.0476 62.5256 14.5323 61.0191C13.7245 60.2159 12.4184 60.2136 11.6084 61.0191C8.89596 63.7227 6.18796 66.4329 3.47995 69.1409C2.36738 70.2535 1.34603 70.0443 0.907678 68.5357C-0.578721 63.4201 0.275736 58.7117 3.41097 54.3926C4.63258 52.7082 6.13233 51.3731 7.89019 50.2895C8.07043 50.1782 8.22619 49.8689 8.22842 49.6509C8.24622 43.2113 8.24622 36.7717 8.22619 30.3321C8.22619 30.1007 8.02815 29.7803 7.82789 29.6534C4.03179 27.2503 1.57745 23.8658 0.598383 19.5001C-0.489715 14.647 0.538304 10.1611 3.51333 6.21149C5.91204 3.02731 9.18523 1.13148 13.1148 0.330427C15.7138 -0.199159 18.2416 0.110137 20.7605 0.704252C22.0599 1.01132 22.5428 2.13725 21.4213 3.24537C18.7578 5.87995 16.1188 8.54123 13.4709 11.1914C12.2493 12.4152 12.2448 13.4232 13.4508 14.6292C14.8638 16.0422 16.2768 17.4552 17.6897 18.8681C18.7712 19.9473 19.6968 19.9496 20.7849 18.8659C23.4195 16.2402 26.0474 13.6079 28.6775 10.98C29.1715 10.486 29.7122 10.0054 30.4643 10.2234C31.1942 10.4348 31.4812 11.0401 31.5747 11.7721C31.6236 12.166 31.8217 12.5376 31.8884 12.9314C32.6672 17.5531 31.7616 21.8009 29.0024 25.6103C27.8676 27.1768 26.3723 28.3717 24.808 29.491C24.5321 29.6868 24.2606 30.114 24.2584 30.4345C24.2272 36.8451 24.2384 43.258 24.225 49.6687C24.225 50.067 24.334 50.2739 24.6812 50.4875C25.3932 50.9281 26.0541 51.4532 26.8195 52.0028H26.8151ZM14.2074 77.2271C19.0293 77.6655 22.9033 76.2125 26.0474 72.8703C26.4568 72.4364 26.913 72.0203 26.9108 71.2838C26.8818 66.3996 26.9019 61.5153 26.8841 56.6311C26.8841 56.3374 26.755 56.0014 26.5814 55.7589C25.5245 54.2591 24.1249 53.1532 22.5094 52.3099C21.9442 52.0162 21.5615 51.6424 21.5615 50.937C21.5726 43.6385 21.5682 36.34 21.5682 29.0393C21.5682 28.4808 21.7729 28.0914 22.3092 27.8088C24.1115 26.852 25.6558 25.5747 26.8818 23.9281C29.0046 21.0733 29.7456 17.869 29.3228 14.2154C29.0224 14.4913 28.8066 14.6804 28.5997 14.8807C26.399 17.0235 24.2695 19.2442 21.9798 21.2847C20.3599 22.7266 18.2438 22.8111 16.724 21.496C14.6012 19.6603 12.5897 17.6599 10.7629 15.5304C9.35434 13.886 9.55461 11.6431 10.8875 10.1567C12.9747 7.82918 15.231 5.65521 17.4116 3.41448C17.5696 3.25205 17.7142 3.07626 17.9234 2.84039C17.5006 2.84039 17.1935 2.82704 16.8887 2.84039C15.518 2.90715 14.0761 2.73581 12.79 3.10519C10.1999 3.84616 7.92135 5.18793 6.13455 7.32852C3.46882 10.5238 2.37183 14.1286 3.08387 18.2228C3.82262 22.4773 6.11898 25.6682 9.91508 27.7465C10.5938 28.1181 10.903 28.641 10.903 29.382C10.903 36.4579 10.9053 43.5361 10.9008 50.6121C10.9008 51.3064 10.6405 51.8359 9.96848 52.1897C8.26624 53.0865 6.78875 54.2725 5.63389 55.8345C3.47995 58.7495 2.54539 61.9915 2.99042 65.7075C3.18401 65.5518 3.33309 65.4516 3.46215 65.3293C5.62722 63.2265 7.84792 61.1794 9.93288 58.9987C11.4393 57.4233 14.7948 57.3632 16.4125 59.0543C17.9657 60.6787 19.5655 62.2585 21.1766 63.825C22.7853 65.3893 22.8232 68.3443 21.4547 69.8285C20.4267 70.9433 19.3764 72.0425 18.3128 73.1239C17 74.459 15.6649 75.7719 14.2052 77.2271H14.2074ZM77.6842 69.3924C77.119 69.2767 76.7808 69.1699 76.4359 69.1409C74.2842 68.9629 72.1302 68.8005 69.9763 68.6358C67.7956 68.4689 65.6128 68.3043 63.4321 68.1352C61.2782 67.9683 59.1265 67.7969 56.9725 67.6301C54.7919 67.4609 52.6112 67.2829 50.4284 67.1316C48.5681 67.0048 46.7057 66.9202 44.8455 66.7956C44.4739 66.7711 44.0845 66.7111 43.744 66.5687C41.5033 65.6341 39.198 64.8175 37.0641 63.6782C34.6343 62.3809 32.1198 62.6635 29.6188 62.6613V69.3011C30.4532 69.3011 31.2431 69.399 32.0019 69.2833C34.345 68.9251 36.2074 69.6149 37.5959 71.5686C37.7428 71.7755 38.0855 71.9357 38.3458 71.9491C40.0236 72.0359 41.7102 72.018 43.3835 72.1493C44.8366 72.2628 46.2896 72.4653 47.7204 72.7412C50.1747 73.213 52.6112 73.7781 55.0567 74.2944C57.8982 74.8952 60.7442 75.4737 63.5812 76.0856C66.9078 76.8043 70.2211 77.5676 73.6745 77.305C75.192 77.1893 76.872 76.1457 77.1613 74.6326C77.4884 72.9259 77.5173 71.1636 77.6798 69.3901L77.6842 69.3924ZM42.894 21.5316C42.894 23.4831 42.8829 25.3411 42.8962 27.2013C42.914 29.5956 43.7752 31.705 45.315 33.4807C47.9139 36.478 51.1782 37.8242 55.1835 37.1678C58.6592 36.5981 61.1491 34.6778 62.8647 31.6805C63.6079 30.3788 64.073 28.9837 64.0552 27.4483C64.0307 25.4746 64.0485 23.5031 64.0485 21.5428H61.3961C61.5942 22.375 61.2381 23.2628 60.5795 23.6656C59.7762 24.1551 58.8283 24.1039 58.163 23.5321C57.4843 22.9491 57.3552 21.9366 57.8537 20.8419C54.9766 20.3501 52.115 20.3946 49.3581 20.6994C49.3581 21.4182 49.4871 22.1258 49.3247 22.7577C49.14 23.4764 48.4725 23.8703 47.7404 23.9815C46.3964 24.1885 45.6888 23.403 45.4952 21.5294H42.8985L42.894 21.5316ZM36.2475 60.3783V56.0215H38.8887C38.8887 57.7237 38.8709 59.3837 38.9065 61.0436C38.911 61.3017 39.089 61.6867 39.2959 61.7868C40.3529 62.2986 41.4365 62.757 42.5246 63.1976C43.6906 63.6671 44.7921 64.2723 46.1539 64.1744C47.1396 64.1032 48.1476 64.4036 49.1489 64.4592C50.1547 64.5148 51.1671 64.4703 52.3398 64.4703C52.204 63.2309 52.2463 62.0472 51.9214 60.9746C51.2072 58.6182 50.3038 56.3196 49.4382 53.8809C49.0065 54.0678 48.5815 54.208 48.1965 54.4238C46.7035 55.2627 45.2616 56.2061 43.7218 56.9516C42.7004 57.4455 41.6346 57.3276 41.5389 56.0081C41.4165 54.3281 41.2007 52.6548 41.0583 50.9748C40.9225 49.366 40.8357 47.7528 40.7223 46.1418C40.6844 45.5966 40.3796 45.3741 39.85 45.4965C37.9698 45.9282 36.094 46.3866 34.2093 46.8027C31.8083 47.3322 29.5542 50.156 29.5698 52.6704C29.5787 54.1679 29.5631 55.6654 29.5609 57.1652C29.5609 58.0953 29.5609 59.0276 29.5609 59.9288C31.8217 60.1602 34.0134 59.6284 36.2475 60.3805V60.3783ZM66.4339 44.9536C66.2914 46.1996 66.1335 47.3033 66.0467 48.4114C65.862 50.7835 65.6773 53.1555 65.5616 55.5319C65.4882 57.0383 64.4935 57.6992 63.1696 56.9694C61.6453 56.1305 60.1456 55.2404 58.6458 54.357C57.669 53.7807 57.5689 53.8186 57.2039 54.8755C56.8012 56.0393 56.3628 57.1897 55.9356 58.3445C55.188 60.3649 54.4915 62.3921 54.9855 64.6417C55.1145 64.6417 55.277 64.655 55.4372 64.6417C57.1706 64.4792 58.904 64.2033 60.6396 64.1744C62.3752 64.1455 63.8304 63.4579 65.2901 62.6279H57.5778V59.9755H68.2029V56.017H70.8931V60.0957H77.5285C77.5285 57.4055 77.5396 54.94 77.5195 52.4723C77.5151 51.9049 77.4795 51.313 77.3215 50.7745C76.5383 48.1021 74.8894 46.3176 72.0479 45.8191C71.0933 45.6523 70.141 45.4742 69.1841 45.3274C68.2785 45.1872 67.3662 45.0804 66.4316 44.9558L66.4339 44.9536ZM65.5371 13.3119C65.5371 12.0592 65.5705 10.8954 65.5238 9.73168C65.4948 9.03298 65.4147 8.31871 65.2323 7.64449C64.3422 4.34237 61.7343 2.74694 58.5479 2.69353C55.0255 2.63568 51.5009 2.63346 47.9785 2.70244C45.7355 2.74694 43.971 3.77051 42.6492 5.62628C40.9359 8.03167 41.7703 10.7263 41.53 13.2897H46.8792C46.8792 12.0191 46.8726 10.7998 46.8792 9.5826C46.8859 8.42107 47.2998 8.01609 48.4814 8.01386C51.7835 8.00941 55.0834 8.01164 58.3855 8.01386C59.7006 8.01386 60.2012 8.5301 60.2012 9.87632C60.2012 11.0289 60.2012 12.1793 60.2012 13.3142H65.5304L65.5371 13.3119ZM48.2499 38.939C48.2499 39.829 48.0764 40.6768 48.2811 41.42C48.9642 43.8944 49.7719 46.3354 50.5641 48.7786C50.6353 48.9967 50.9379 49.2904 51.1382 49.2948C52.8515 49.3349 54.5671 49.3193 56.2738 49.3193C56.9013 47.2855 57.491 45.2962 58.1318 43.3203C58.588 41.914 59.1176 40.5277 58.786 38.9279C55.2881 40.2896 51.8146 40.4432 48.2499 38.9412V38.939ZM65.6729 16.0378H41.2541C41.1806 17.6399 42.311 18.8526 43.8775 18.8259C44.525 18.8147 45.1748 18.7035 45.8201 18.6234C47.9162 18.363 50.0056 18.0159 52.1106 17.8646C53.4724 17.7667 54.8631 17.878 56.2271 18.0204C58.1385 18.2206 60.0432 18.4943 61.9391 18.8103C64.1353 19.1752 65.9287 17.9514 65.6729 16.0378ZM46.57 75.3647C46.5077 75.2556 46.4898 75.1844 46.4565 75.1755C44.4316 74.6081 42.3466 74.4435 40.2839 74.666C37.9431 74.9196 36.0739 74.3411 34.6966 72.3741C34.5697 72.1916 34.3138 71.9913 34.1136 71.9869C32.6027 71.9557 31.0896 71.9691 29.5676 71.9691C29.5676 72.5988 29.5498 73.1239 29.5698 73.6491C29.6432 75.5494 31.2698 77.1759 33.2191 77.2961C36.2453 77.4808 39.1891 77.0402 42.113 76.3126C43.5771 75.9477 45.068 75.6806 46.5677 75.3669L46.57 75.3647ZM63.0138 53.7651C63.0872 52.5079 63.1317 51.3909 63.2185 50.2783C63.3676 48.3781 63.5501 46.4822 63.6858 44.5797C63.6969 44.4151 63.4967 44.1458 63.3298 44.0724C62.5532 43.732 61.7521 43.4427 60.9355 43.1245C60.8999 43.3492 60.8932 43.5428 60.8376 43.7208C60.1144 46.0172 59.4024 48.318 58.6414 50.601C58.4767 51.0994 58.5524 51.3264 59.0174 51.56C59.7339 51.9205 60.3993 52.3767 61.1002 52.7683C61.6965 53.1021 62.3129 53.4002 63.016 53.7651H63.0138ZM43.9576 53.7162C44.2358 53.6005 44.4894 53.5226 44.7142 53.3958C45.7355 52.8172 46.7302 52.1875 47.7738 51.6535C48.3501 51.3575 48.4814 51.0594 48.2766 50.4319C47.5579 48.2156 46.8993 45.9794 46.2295 43.7453C46.1049 43.3314 45.918 43.209 45.5108 43.4227C44.7542 43.8187 43.9843 44.1859 43.2078 44.5686C43.457 47.6082 43.704 50.6166 43.9576 53.714V53.7162ZM65.4147 65.6853C69.5936 65.9901 73.5299 66.2772 77.4906 66.5664V62.6413C76.0176 62.6413 74.5824 62.6413 73.1471 62.6413C72.8445 62.6413 72.5041 62.5812 72.2437 62.6924C70.0408 63.6359 67.8513 64.6105 65.4147 65.6831V65.6853ZM49.5672 13.2897H57.4954V10.7196H49.5672V13.2897ZM40.1927 20.0119C38.0165 20.2388 37.3868 21.7853 37.5581 23.2005C37.6916 24.2908 39.0356 25.37 40.1927 25.2743V20.0119ZM66.8945 25.261C68.2518 25.2721 69.2353 24.3331 69.5224 22.8445C69.756 21.6296 68.6345 20.4435 66.8945 20.0452V25.261ZM51.5943 52.0073C52.2063 53.714 52.8159 55.4073 53.5035 57.3187C54.1866 55.4162 54.7897 53.7362 55.4105 52.0073H51.5943Z" fill="#374957"></path><path d="M14.9328 51.9428V28.0291H17.5318V51.9428H14.9328Z" fill="#374957"></path><path d="M49.5761 30.6303V28.1559C52.0727 27.9579 54.5782 27.7599 57.1883 27.5529C57.3664 28.1337 57.6156 28.9414 57.8826 29.8092C55.2057 30.7371 52.4399 30.7393 49.5761 30.6303Z" fill="#374957"></path><path d="M49.5116 61.2772H46.9171V58.6782H49.5116V61.2772Z" fill="#374957"></path></svg>