<svg xmlns="http://www.w3.org/2000/svg" width="75" height="75" viewBox="0 0 75 75" fill="none"><g clip-path="url(#clip0_470_2189)"><path d="M42.0521 0C42.2048 0.0978295 42.3438 0.232834 42.5102 0.285662C43.6533 0.643718 44.358 1.46353 44.7652 2.524C44.957 3.02293 44.9903 3.60404 44.9922 4.14797C45.0079 9.15097 45.002 14.154 45.002 19.1589C45.002 19.3057 45.0216 19.4544 44.9981 19.5972C44.9316 20.012 45.141 20.0824 45.4973 20.0727C46.2294 20.0531 46.9614 20.0687 47.6935 20.0648C49.2086 20.057 50.6982 20.2527 52.1996 20.4796C55.1789 20.9277 57.9487 21.9451 60.5873 23.3343C62.0985 24.1287 63.5392 25.058 64.8272 26.2007C65.4555 26.7583 66.1563 27.2416 66.7396 27.8403C68.4015 29.5386 69.8559 31.3915 71.0969 33.4381C72.5493 35.8349 73.5476 38.3942 74.2367 41.0845C74.4892 42.0706 74.6047 43.0958 74.7182 44.1113C74.8552 45.3283 74.9883 46.5531 74.9981 47.7741C75.006 48.7504 74.7945 49.7267 74.7358 50.707C74.636 52.4014 74.1897 54.0117 73.7219 55.6317C73.1659 57.5511 72.3927 59.3727 71.3847 61.0847C70.6389 62.3526 69.8461 63.6205 68.9006 64.7377C67.8123 66.0251 66.5321 67.1521 65.3302 68.3437C64.3104 69.3552 63.1066 70.132 61.8968 70.8814C59.5401 72.341 57.0306 73.468 54.3195 74.1117C53.5835 74.2858 52.8554 74.4835 52.1174 74.6478C51.7239 74.7359 51.3207 74.822 50.9194 74.8356C48.9796 74.9002 47.026 75.0959 45.0979 74.955C42.2577 74.7476 39.4937 74.0197 36.8688 72.9064C34.6725 71.9751 32.6094 70.7835 30.7087 69.3161C29.3384 68.2595 28.1111 67.0582 26.9445 65.8001C25.7113 64.4657 24.6699 62.9709 23.7421 61.4037C23.6325 61.2197 23.4837 61.0436 23.4348 60.8441C23.2214 59.9617 22.5696 59.9969 21.8649 59.9988C15.8574 60.0125 9.85195 59.9871 3.84451 60.0204C2.24723 60.0301 1.20782 59.2318 0.38177 58.009C0.205598 57.7468 0.123385 57.42 -0.00189209 57.1246C-0.00189209 43.1135 -0.00189209 29.1023 -0.00189209 15.0912C0.428749 14.0327 1.18824 13.2285 1.98493 12.4361C5.74129 8.70096 9.47612 4.95213 13.2227 1.217C13.4419 0.997861 13.6925 0.802202 13.9528 0.637848C14.3189 0.405014 14.7104 0.211312 15.0921 0C24.0788 0 33.0654 0 42.0521 0ZM16.2646 2.51813C16.2235 2.55726 16.1824 2.59639 16.1413 2.63553C16.1334 2.87814 16.1178 3.12076 16.1178 3.36533C16.1178 6.16717 16.1256 8.96901 16.108 11.7689C16.106 12.1876 16.0375 12.6317 15.8888 13.0231C15.1273 15.0325 13.1718 16.2456 11.1889 16.2553C8.33884 16.271 5.48682 16.273 2.63676 16.2808C2.59761 16.3219 2.55651 16.361 2.51736 16.4021C2.50953 16.5723 2.49582 16.7425 2.49582 16.9128C2.49582 29.8986 2.49582 42.8826 2.49582 55.8685C2.49582 56.0387 2.48995 56.2109 2.50757 56.3811C2.57021 56.9876 2.9617 57.3887 3.57047 57.4631C3.81124 57.4924 4.05788 57.4944 4.3006 57.4963C6.25414 57.4983 8.20769 57.4983 10.1612 57.4963C13.8726 57.4944 17.5839 57.4924 21.2953 57.4866C21.8492 57.4866 21.8668 57.469 21.675 56.9446C20.9566 54.9782 20.3713 52.9845 20.2147 50.8831C20.1364 49.8304 19.972 48.7817 19.9368 47.7291C19.8839 46.1403 20.0914 44.5711 20.3478 43.0019C20.5514 41.7595 20.845 40.5484 21.2052 39.349C21.7455 37.5567 22.4971 35.8604 23.3917 34.2149C24.5094 32.1624 25.8914 30.3056 27.4573 28.5858C28.806 27.1066 30.3739 25.87 32.0221 24.7313C33.8465 23.4693 35.8176 22.4871 37.8828 21.7201C39.2686 21.2055 40.7309 20.8905 42.1696 20.5188C42.4064 20.4581 42.5161 20.4053 42.5024 20.1627C42.4926 19.9924 42.5024 19.8203 42.5024 19.65C42.5024 15.1831 42.5024 10.7162 42.5024 6.24935C42.5024 5.44323 42.5141 4.63907 42.4984 3.83296C42.4867 3.1912 42.195 2.81945 41.5706 2.63748C41.3005 2.55922 41.0108 2.50248 40.7289 2.50248C32.7934 2.49465 24.8559 2.49661 16.9203 2.49857C16.7011 2.49857 16.4819 2.51226 16.2626 2.52009L16.2646 2.51813ZM72.3829 47.4708C72.4221 45.8292 72.3086 44.215 71.9719 42.593C71.5863 40.7284 71.048 38.9264 70.2572 37.2026C69.0122 34.4869 67.3895 32.0255 65.2128 29.9515C64.375 29.1532 63.6057 28.2805 62.6192 27.6447C61.5641 26.9657 60.5599 26.1987 59.4696 25.5824C57.9271 24.7078 56.2829 24.0426 54.5642 23.573C53.3741 23.2482 52.1918 22.9136 50.9507 22.8314C50.2147 22.7825 49.4826 22.5732 48.7486 22.5712C47.4665 22.5712 46.1863 22.4812 44.9002 22.6749C44.174 22.7845 43.438 22.8491 42.7079 22.9841C40.772 23.3402 38.9261 23.9584 37.1252 24.7372C34.4259 25.9052 32.0652 27.5781 29.9688 29.6091C29.0233 30.5267 28.1914 31.5715 27.381 32.6164C25.9325 34.4869 24.8676 36.5784 24.0357 38.7855C23.4759 40.2686 23.0354 41.7869 22.8456 43.3678C22.7085 44.5046 22.505 45.6375 22.4325 46.7781C22.3464 48.1262 22.4756 49.4724 22.7144 50.8068C22.8456 51.5307 22.8906 52.2723 23.0648 52.9845C23.4348 54.4989 23.9202 55.978 24.5309 57.42C25.5899 59.9206 27.0423 62.1706 28.8452 64.1801C30.4053 65.9195 32.1631 67.4436 34.1753 68.6704C35.8353 69.6839 37.5656 70.539 39.3998 71.171C40.8033 71.6542 42.2283 72.0397 43.714 72.2177C44.6673 72.3312 45.6128 72.5014 46.5778 72.4956C48.0478 72.4877 49.512 72.5112 50.9762 72.2353C52.1389 72.0162 53.2997 71.8147 54.4409 71.4899C56.4081 70.9323 58.2599 70.1124 60.0138 69.0833C61.7442 68.0678 63.3473 66.8684 64.8076 65.4851C65.8627 64.4872 66.7924 63.3798 67.6459 62.2098C68.8537 60.5525 69.8774 58.7955 70.6291 56.8781C71.1458 55.5593 71.5784 54.221 71.8838 52.8397C72.1461 51.6501 72.3614 50.4507 72.379 49.2278C72.3888 48.6428 72.379 48.0558 72.379 47.4708H72.3829ZM13.6259 8.37812C13.6259 7.23351 13.6298 6.08695 13.622 4.94235C13.622 4.81517 13.5574 4.68603 13.5241 4.55885C13.4067 4.62929 13.2834 4.6919 13.1757 4.77408C13.0798 4.84647 13.0015 4.9443 12.9154 5.03039C11.5373 6.40783 10.1573 7.78723 8.77926 9.16467C7.41883 10.5265 6.05644 11.8863 4.69796 13.252C4.58443 13.3655 4.50613 13.5142 4.41218 13.6453C4.58443 13.6844 4.75669 13.7587 4.92895 13.7607C6.85508 13.7685 8.78122 13.7744 10.7054 13.7607C11.1302 13.7568 11.5745 13.7353 11.9758 13.61C12.8625 13.3342 13.7179 12.3715 13.6455 11.448C13.5672 10.4306 13.6279 9.40337 13.6279 8.38007L13.6259 8.37812Z" fill="#008EAA"></path><path d="M47.4097 27.4764C50.9527 27.5507 54.2725 28.3862 57.3516 30.1471C58.3871 30.74 59.3541 31.4189 60.2799 32.18C61.9555 33.5575 63.3277 35.1814 64.4787 37.0011C65.7589 39.0222 66.5869 41.2332 67.0899 43.5615C67.27 44.397 67.3131 45.2637 67.3934 46.1188C67.4168 46.3673 67.5108 46.4768 67.7339 46.6001C68.8438 47.2145 69.5798 48.1478 69.7247 49.4176C69.8441 50.4565 69.4526 51.3781 68.7616 52.1744C67.9258 53.1371 67.1467 54.1525 66.2737 55.08C65.0679 56.3596 63.1006 56.8174 61.6032 55.4732C60.8731 54.8178 60.2741 54.0117 59.6301 53.2623C59.1622 52.7164 58.6807 52.1764 58.2657 51.5894C57.1049 49.9537 57.8742 47.3592 59.5557 46.7097C59.8102 46.6118 59.9883 46.4612 59.9335 46.1188C59.5342 43.6632 58.6709 41.4308 57.0443 39.4918C55.4118 37.5489 53.3897 36.2517 50.984 35.5395C50.2597 35.3262 49.4924 35.2558 48.7388 35.154C48.1692 35.0758 47.5917 35.0093 47.0162 35.0132C45.2525 35.0249 43.6044 35.5219 42.0129 36.2536C40.5918 36.9071 39.2118 37.0558 37.8396 36.0541C36.9157 35.379 36.4733 34.481 36.3461 33.4068C36.213 32.2798 36.6006 31.2878 37.3268 30.4347C37.8005 29.8771 38.4641 29.5856 39.1159 29.3058C40.5233 28.6992 41.9758 28.216 43.483 27.9244C43.9959 27.8247 44.5146 27.7425 45.0333 27.6857C45.8241 27.5996 46.6169 27.5449 47.4077 27.4764H47.4097ZM46.981 29.9886C46.6051 30.0356 46.059 30.1334 45.5109 30.1628C44.4813 30.2195 43.4947 30.4524 42.5101 30.74C41.5784 31.0119 40.7015 31.4091 39.8049 31.7594C39.3195 31.9491 39.0591 32.2309 38.8947 32.6535C38.605 33.4029 39.1355 34.3812 40.122 34.2579C40.4431 34.2188 40.77 34.1092 41.0616 33.9644C42.9917 33.0155 45.0313 32.5263 47.1787 32.5166C47.7522 32.5146 48.3277 32.6398 48.9012 32.6476C49.9367 32.6653 50.9292 32.9 51.9059 33.2053C54.6973 34.0799 57.0541 35.5962 58.941 37.8639C59.7436 38.8266 60.4209 39.8538 60.969 40.9612C61.9986 43.045 62.4938 45.2579 62.4234 47.5921C62.4097 48.0519 62.2354 48.3786 61.8185 48.5508C61.5836 48.6486 61.3291 48.7171 61.0786 48.7582C60.3015 48.8873 59.9178 49.7091 60.4111 50.3215C61.2724 51.3879 62.1767 52.4209 63.0869 53.4462C63.4686 53.8766 64.0363 53.8551 64.4024 53.4325C65.2538 52.4503 66.0956 51.4603 66.9353 50.4702C67.1722 50.1904 67.3933 49.8911 67.1839 49.4978C66.9764 49.1124 66.7709 48.7249 66.2247 48.7621C65.7765 48.7934 65.4241 48.586 65.2127 48.2065C65.0307 47.8797 64.8682 47.5412 64.9015 47.1264C64.9955 45.9446 64.7586 44.7863 64.5276 43.6378C64.1792 41.9101 63.5 40.3057 62.6269 38.7776C61.9497 37.588 61.1823 36.461 60.1997 35.5043C59.493 34.8175 58.7355 34.1816 57.9701 33.5594C56.5843 32.4324 55.0046 31.6459 53.3349 31.0354C51.3422 30.3076 49.2595 30.1099 46.981 29.9808V29.9886Z" fill="#008EAA"></path><path d="M47.3568 67.52C45.46 67.52 43.622 67.2167 41.7957 66.6728C39.4311 65.9704 37.2818 64.8903 35.3556 63.374C34.4298 62.6441 33.5097 61.8791 32.7209 61.0104C31.2919 59.4334 30.1175 57.6685 29.2582 55.7041C28.62 54.2445 28.1189 52.7536 27.8331 51.1824C27.6961 50.4292 27.5101 49.6876 27.5512 48.9148C27.563 48.7034 27.5141 48.5939 27.2596 48.451C25.8835 47.6821 25.0809 46.516 25.214 44.8803C25.2806 44.0585 25.6701 43.3346 26.2143 42.7163C27.1069 41.7008 28.0426 40.7206 28.9215 39.6914C30.0274 38.3942 32.5526 38.6016 33.4589 39.6581C34.5081 40.8849 35.6453 42.0432 36.6358 43.315C37.5362 44.4713 37.456 46.2127 36.4361 47.416C36.1601 47.7408 35.8254 48.0676 35.4457 48.2417C35.0013 48.4471 34.972 48.7602 35.0327 49.1163C35.1247 49.6504 35.2656 50.1768 35.4026 50.7031C36.0133 53.0256 37.2465 54.9567 38.973 56.6276C40.5899 58.1929 42.5141 59.1497 44.6399 59.7132C45.7223 60.0008 46.8596 60.1691 47.9969 60.0419C49.696 59.8521 51.3618 59.5312 52.9042 58.731C54.2275 58.0442 55.5605 58.0696 56.8583 58.8073C58.2638 59.6075 58.849 61.1865 58.5613 62.6168C58.2559 64.1331 57.2889 65.1095 55.8287 65.6299C54.9909 65.9293 54.2001 66.3871 53.3447 66.6102C52.3659 66.8665 51.3794 67.1091 50.3674 67.2597C49.3632 67.4084 48.3727 67.5337 47.3607 67.518L47.3568 67.52ZM47.4801 65.0547C47.7855 65.0175 48.359 64.8805 48.9286 64.8942C49.9035 64.9197 50.8156 64.6516 51.7435 64.4364C53.0569 64.1331 54.2901 63.6283 55.4822 62.9944C55.9755 62.7322 56.1986 62.1785 56.1106 61.6678C56.0225 61.163 55.537 60.7697 54.9654 60.7873C54.619 60.7971 54.2588 60.8715 53.9319 60.9928C53.008 61.3332 52.1232 61.8067 51.1778 62.0533C50.1716 62.3174 49.1166 62.4191 48.0772 62.5248C46.8205 62.652 45.5677 62.4759 44.3502 62.2098C42.7157 61.8537 41.1693 61.2354 39.7325 60.3491C38.6246 59.6643 37.591 58.8797 36.7024 57.9483C35.9174 57.1246 35.203 56.2246 34.6235 55.2169C33.2142 52.7692 32.3901 50.1865 32.5173 47.3338C32.533 47.0032 32.6211 46.7586 32.8873 46.606C33.1241 46.469 33.3845 46.3301 33.6487 46.289C34.6216 46.1364 35.0327 45.3244 34.4239 44.5457C33.6389 43.542 32.7757 42.595 31.9183 41.6499C31.4446 41.1275 30.9827 41.1275 30.507 41.6421C29.6868 42.5285 28.896 43.4402 28.0993 44.3481C27.9917 44.4713 27.9173 44.6279 27.841 44.7746C27.5904 45.2677 27.6413 45.6551 28.0758 45.9838C28.2892 46.1442 28.5848 46.2166 28.8549 46.2734C29.2914 46.3653 29.8356 46.7312 29.8806 47.0619C29.953 47.5843 29.9922 48.1106 30.0392 48.6369C30.094 49.2591 30.0744 49.8931 30.1997 50.4996C30.5207 52.0453 30.9474 53.5656 31.6639 54.9821C32.7542 57.1324 34.0872 59.0871 35.9722 60.6504C37.4795 61.9026 39.0709 62.9807 40.8972 63.7105C42.9271 64.5225 45.0216 64.9784 47.4801 65.0566V65.0547Z" fill="#008EAA"></path><path d="M28.1346 17.49C30.6734 17.49 33.2102 17.488 35.7491 17.4939C36.0388 17.4939 36.3383 17.5115 36.6143 17.5858C37.0684 17.7071 37.5108 18.3274 37.5049 18.7598C37.4971 19.1941 37.0449 19.789 36.5888 19.9122C36.3578 19.9748 36.1092 20.0003 35.8685 20.0003C30.6949 20.0042 25.5213 20.0042 20.3478 20.0003C20.1286 20.0003 19.9074 19.9924 19.692 19.9553C19.1185 19.8516 18.7544 19.3448 18.7583 18.6913C18.7622 18.1122 19.1557 17.6191 19.7175 17.533C20.0052 17.488 20.3008 17.49 20.5925 17.49C23.1058 17.486 25.6192 17.49 28.1326 17.49H28.1346Z" fill="#008EAA"></path><path d="M16.8518 25.0091C19.4885 25.0091 22.1232 25.015 24.7599 25.0052C25.3648 25.0032 25.8208 25.195 26.0831 25.7683C26.4042 26.4726 26.044 27.2612 25.2845 27.4568C25.077 27.5096 24.8499 27.5057 24.6327 27.5057C19.4571 27.5077 14.2836 27.5057 9.10807 27.5096C8.61479 27.5096 8.15479 27.4822 7.79266 27.0538C7.46185 26.6624 7.36789 26.2437 7.5421 25.7878C7.71632 25.332 8.06474 25.0502 8.5776 25.0267C8.84577 25.015 9.11394 25.0091 9.38211 25.0091C11.872 25.0091 14.3619 25.0091 16.8518 25.0091Z" fill="#008EAA"></path><path d="M14.2816 35.0034C12.4044 35.0034 10.5291 35.0073 8.65194 35.0014C8.11951 35.0014 7.57534 34.5123 7.47747 33.9625C7.37959 33.4088 7.66342 32.7611 8.17823 32.6183C8.35832 32.5694 8.54624 32.5185 8.7322 32.5185C12.4377 32.5126 16.1412 32.5087 19.8466 32.5244C20.1187 32.5244 20.4241 32.6027 20.6531 32.7435C21.1366 33.039 21.3147 33.5242 21.1836 33.9664C20.9839 34.6375 20.5552 35.0014 19.9132 35.0034C18.036 35.0112 16.1607 35.0053 14.2835 35.0053L14.2816 35.0034Z" fill="#008EAA"></path><path d="M13.1091 40.1297C14.5733 40.1297 16.0394 40.1805 17.4997 40.1101C18.3101 40.071 18.6272 40.5601 18.7349 41.2195C18.8249 41.7673 18.177 42.4091 17.578 42.4737C17.4821 42.4834 17.3822 42.4737 17.2863 42.4737C14.4558 42.4737 11.6273 42.4698 8.79684 42.4776C8.27615 42.4776 7.87292 42.3524 7.61649 41.8456C7.36985 41.3564 7.46968 40.9456 7.72219 40.5014C7.92577 40.1434 8.23309 40.1277 8.57369 40.1277C10.0868 40.1297 11.598 40.1277 13.1111 40.1277L13.1091 40.1297Z" fill="#008EAA"></path><path d="M12.4514 47.598C13.7198 47.598 14.9883 47.596 16.2567 47.598C16.981 47.598 17.4351 48.0421 17.4371 48.7347C17.4371 49.4665 16.9692 49.94 16.2234 49.9439C15.0764 49.9478 13.9312 49.942 12.7842 49.942C11.4433 49.942 10.1005 49.942 8.75965 49.942C8.11956 49.942 7.6987 49.6759 7.51275 49.175C7.34049 48.7152 7.52058 48.1145 7.98449 47.7701C8.13913 47.6567 8.37403 47.6077 8.57369 47.6058C9.86561 47.5921 11.1595 47.598 12.4514 47.598Z" fill="#008EAA"></path></g><defs><clipPath id="clip0_470_2189"><rect width="75" height="75" fill="white"></rect></clipPath></defs></svg>