<?xml version="1.0" encoding="UTF-8"?>
<svg xmlns="http://www.w3.org/2000/svg" width="184" height="44" viewBox="0 0 184 44" fill="none">
  <path d="M46.9631 33.4061C45.9773 32.9403 44.786 32.7043 43.4234 32.7043H36.2532C34.8906 32.7043 33.6919 32.9403 32.6912 33.4046C31.6324 33.8963 31.0948 34.525 31.0948 35.2755V43.1049C31.0948 43.3896 31.2824 43.6179 31.6517 43.7854C31.9615 43.9254 32.3278 43.997 32.7373 43.997C33.1573 43.997 33.5281 43.9254 33.8378 43.7839C34.2071 43.6164 34.3947 43.3865 34.3947 43.1018V39.532H45.2833V43.1018C45.2833 43.385 45.465 43.6133 45.8224 43.7823C46.1232 43.9239 46.4836 43.997 46.8961 43.997C47.3056 43.997 47.6704 43.9254 47.9817 43.7854C48.351 43.6179 48.5386 43.3881 48.5386 43.1049V35.2755C48.5341 34.5281 48.0055 33.8993 46.9631 33.4061ZM34.3932 35.2801C34.3932 35.102 34.5571 34.9376 34.8787 34.7869C35.2584 34.6103 35.7201 34.5205 36.2517 34.5205H43.4219C43.9521 34.5205 44.4152 34.6103 44.7949 34.7869C45.1181 34.9361 45.2804 35.102 45.2804 35.2801V37.7341H34.3918V35.2801H34.3932ZM55.0938 35.2831V41.4379C55.0938 41.6161 55.2576 41.782 55.5793 41.9327C55.959 42.1093 56.4266 42.1991 56.9672 42.1991H64.1225C64.6631 42.1991 65.1306 42.1093 65.5104 41.9312C65.8335 41.7805 65.9973 41.613 65.9973 41.4334C65.9973 41.1517 66.1775 40.9203 66.5319 40.7453C66.8342 40.5976 67.1961 40.5215 67.6086 40.5215C68.0196 40.5215 68.3859 40.5961 68.6971 40.7438C69.065 40.9173 69.2511 41.1487 69.2511 41.4318C69.2511 42.1763 68.7195 42.805 67.6711 43.2967C66.6794 43.7625 65.4865 43.9985 64.124 43.9985H56.9687C55.6061 43.9985 54.4073 43.7625 53.4066 43.2982C52.3478 42.8065 51.8103 42.1793 51.8103 41.4349V35.2755C51.8103 34.5265 52.3478 33.8963 53.4066 33.4046C54.4073 32.9403 55.6061 32.7043 56.9687 32.7043H64.124C65.4865 32.7043 66.6808 32.9403 67.6711 33.4046C68.7195 33.8963 69.2511 34.525 69.2511 35.274C69.2511 35.5572 69.065 35.787 68.6971 35.9606C68.3859 36.1067 68.0196 36.1813 67.6086 36.1813C67.1961 36.1813 66.8342 36.1067 66.5334 35.9591C66.1775 35.7855 65.9973 35.5556 65.9973 35.2755C65.9973 35.0989 65.8335 34.933 65.5119 34.7838C65.1321 34.6072 64.6645 34.5189 64.124 34.5189H56.9687C56.4281 34.5189 55.9605 34.6087 55.5808 34.7853C55.2561 34.9391 55.0938 35.105 55.0938 35.2831ZM27.5104 35.2771V43.1064C27.5104 43.3911 27.3228 43.6194 26.9535 43.7869C26.6437 43.927 26.2774 43.9985 25.8679 43.9985C25.4465 43.9985 25.0787 43.927 24.7734 43.7854C24.41 43.6179 24.2254 43.3881 24.2254 43.1049V35.2816C24.2254 35.1035 24.0616 34.9376 23.7399 34.7869C23.3602 34.6103 22.8926 34.5205 22.352 34.5205H18.8511C18.3209 34.5205 17.8593 34.6103 17.4781 34.7869C17.1549 34.9376 16.9926 35.1035 16.9926 35.2816V43.1049C16.9926 43.3896 16.805 43.6179 16.4357 43.7854C16.1259 43.9254 15.7596 43.997 15.3501 43.997C14.9287 43.997 14.5608 43.9254 14.2556 43.7839C13.8922 43.6164 13.7076 43.3865 13.7076 43.1034V35.2801C13.7076 35.102 13.5438 34.9361 13.2221 34.7853C12.8424 34.6087 12.3748 34.5189 11.8342 34.5189H8.33473C7.8046 34.5189 7.34296 34.6087 6.96174 34.7853C6.6386 34.9361 6.47628 35.102 6.47628 35.2801V43.1034C6.47628 43.388 6.28865 43.6164 5.91934 43.7839C5.6096 43.9239 5.24327 43.9955 4.83376 43.9955C4.41233 43.9955 4.04451 43.9239 3.73924 43.7823C3.37589 43.6149 3.19123 43.385 3.19123 43.1018V35.2725C3.19123 34.5235 3.72584 33.8933 4.77866 33.4015C5.7749 32.9372 6.97068 32.7013 8.33324 32.7013H11.8342C13.1938 32.7013 14.3762 32.9296 15.3501 33.3802C16.3151 32.9296 17.4915 32.7013 18.8511 32.7013H22.352C23.7146 32.7013 24.9134 32.9372 25.9141 33.4015C26.9728 33.8978 27.5104 34.5281 27.5104 35.2771ZM145.431 20.3886V1.5802C145.431 1.12502 145.692 0.742919 146.204 0.447587C146.676 0.175089 147.246 0.0365565 147.9 0.0365565C148.538 0.0365565 149.103 0.175089 149.583 0.446064C150.104 0.742919 150.369 1.1235 150.369 1.5802V20.3886C150.369 20.8453 150.104 21.2259 149.583 21.5228C149.103 21.7953 148.538 21.9323 147.9 21.9323C147.245 21.9323 146.675 21.7937 146.204 21.5212C145.692 21.2259 145.431 20.8453 145.431 20.3886ZM32.4291 3.7206C31.8155 3.36438 31.0635 3.18322 30.1968 3.18322H24.6557C23.804 3.18322 23.0609 3.36438 22.4473 3.7206C21.8666 4.05856 21.5836 4.44828 21.5836 4.91107V20.3902C21.5836 20.8469 21.3186 21.2274 20.7974 21.5243C20.3179 21.7968 19.752 21.9338 19.1146 21.9338C18.4609 21.9338 17.8891 21.7953 17.4185 21.5228C16.9062 21.2259 16.6456 20.8453 16.6456 20.3902V4.91107C16.6456 4.44828 16.3627 4.05856 15.7819 3.7206C15.1684 3.36438 14.4164 3.18322 13.5497 3.18322H8.0101C7.15831 3.18322 6.41523 3.36438 5.8017 3.7206C5.22093 4.05856 4.938 4.44828 4.938 4.91107V20.3902C4.938 20.8469 4.67293 21.2274 4.15173 21.5243C3.67223 21.7968 3.10635 21.9338 2.469 21.9338C1.81378 21.9338 1.24343 21.7953 0.772865 21.5228C0.2606 21.2259 0 20.8453 0 20.3902V4.90041C0 3.5227 0.814561 2.34898 2.41986 1.41275C3.98495 0.499346 5.86573 0.0365565 8.0101 0.0365565H13.5512C15.7075 0.0365565 17.5793 0.491734 19.1161 1.38991C20.6365 0.491734 22.5009 0.0365565 24.6572 0.0365565H30.1983C32.3427 0.0365565 34.2265 0.499346 35.8005 1.41122C37.4147 2.34746 38.2323 3.52118 38.2323 4.89889V20.3886C38.2323 20.8453 37.9672 21.2259 37.446 21.5228C36.9665 21.7953 36.4006 21.9323 35.7633 21.9323C35.108 21.9323 34.5377 21.7937 34.0671 21.5212C33.5549 21.2244 33.2943 20.8438 33.2943 20.3886V4.91107C33.2928 4.44828 33.0098 4.05856 32.4291 3.7206ZM97.0162 33.5994V43.1064C97.0162 43.3911 96.8285 43.6194 96.4592 43.7869C96.1495 43.927 95.7832 43.9985 95.3736 43.9985C94.9522 43.9985 94.5844 43.927 94.2791 43.7854C93.9158 43.6179 93.7311 43.3881 93.7311 43.1049V33.5979C93.7311 33.3148 93.9158 33.0864 94.2791 32.9174C94.5844 32.7759 94.9522 32.7043 95.3736 32.7043C95.7832 32.7043 96.1495 32.7759 96.4592 32.9159C96.83 33.0864 97.0162 33.3148 97.0162 33.5994ZM89.9963 33.5994V43.1064C89.9963 43.3896 89.8117 43.6194 89.4483 43.7869C89.1431 43.9285 88.7753 44 88.3538 44C87.9428 44 87.581 43.9285 87.2802 43.7854C86.9228 43.6164 86.7411 43.3881 86.7411 43.1049V39.535H75.7914V43.1049C75.7914 43.3896 75.6038 43.6179 75.2345 43.7869C74.9232 43.9285 74.5584 44 74.1489 44C73.7275 44 73.3596 43.9285 73.0544 43.7869C72.691 43.6194 72.5064 43.3896 72.5064 43.1064V33.5994C72.5064 33.3163 72.691 33.0879 73.0544 32.919C73.3596 32.7774 73.7275 32.7058 74.1489 32.7058C74.5584 32.7058 74.9232 32.7774 75.2345 32.9174C75.6038 33.0849 75.7914 33.3148 75.7914 33.5979V37.7341H86.7411V33.5979C86.7411 33.3148 86.9228 33.0864 87.2802 32.919C87.581 32.7774 87.9413 32.7058 88.3523 32.7058C88.7738 32.7058 89.1416 32.7774 89.4469 32.919C89.8117 33.0864 89.9963 33.3163 89.9963 33.5994ZM180.372 33.5979V37.2683C180.372 38.0112 179.844 38.6384 178.801 39.1301C177.816 39.5944 176.624 39.8304 175.262 39.8304H173.295V43.1049C173.295 43.3896 173.107 43.6179 172.738 43.7869C172.428 43.9285 172.062 44 171.652 44C171.241 44 170.879 43.9285 170.578 43.7854C170.221 43.6164 170.039 43.3881 170.039 43.1049V39.8304H168.089C166.726 39.8304 165.527 39.5944 164.526 39.1301C163.468 38.6384 162.93 38.0127 162.93 37.2683V33.5979C162.93 33.3132 163.118 33.0849 163.487 32.9174C163.797 32.7774 164.162 32.7058 164.573 32.7058C164.993 32.7058 165.363 32.7774 165.673 32.9174C166.042 33.0849 166.23 33.3148 166.23 33.5979V37.2683C166.23 37.4464 166.394 37.6123 166.716 37.763C167.095 37.9396 167.557 38.0294 168.089 38.0294H175.26C175.79 38.0294 176.253 37.9396 176.633 37.763C176.956 37.6123 177.119 37.4464 177.119 37.2683V33.5979C177.119 33.3148 177.3 33.0864 177.658 32.919C177.959 32.7774 178.319 32.7058 178.73 32.7058C179.139 32.7058 179.504 32.7774 179.816 32.9174C180.185 33.0864 180.372 33.3148 180.372 33.5979ZM158.093 33.4107C157.112 32.9433 155.928 32.7058 154.576 32.7058H143.874C143.452 32.7058 143.084 32.7774 142.779 32.919C142.416 33.0864 142.231 33.3163 142.231 33.5994V43.1064C142.231 43.3896 142.416 43.6194 142.779 43.7869C143.084 43.9285 143.452 44 143.874 44C144.283 44 144.649 43.9285 144.959 43.7869C145.328 43.6194 145.516 43.3896 145.516 43.1049V39.8304H154.546C155.076 39.8304 155.538 39.9202 155.919 40.0968C156.242 40.2475 156.405 40.4134 156.405 40.593V43.1049C156.405 43.3881 156.586 43.6164 156.944 43.7854C157.245 43.927 157.605 44 158.017 44C158.427 44 158.793 43.9285 159.103 43.7884C159.472 43.621 159.66 43.3911 159.66 43.1079V40.5976C159.66 39.9537 159.262 39.398 158.476 38.9413C159.262 38.48 159.66 37.9198 159.66 37.2728V35.2771C159.655 34.5342 159.13 33.9054 158.093 33.4107ZM156.403 35.2816V37.2713C156.403 37.4449 156.244 37.6108 155.93 37.7615C155.56 37.9396 155.105 38.0294 154.576 38.0294H145.516V34.522H154.576C155.106 34.522 155.562 34.6118 155.931 34.7869C156.244 34.9361 156.403 35.102 156.403 35.2816ZM184 14.2856V17.0821C184 18.4507 183.19 19.6199 181.594 20.5561C180.037 21.4695 178.16 21.9323 176.015 21.9323H164.69C162.544 21.9323 160.661 21.4695 159.088 20.5546C157.474 19.6168 156.656 18.4461 156.656 17.076C156.656 16.6209 156.92 16.2342 157.44 15.9282C157.919 15.645 158.487 15.5004 159.125 15.5004C159.764 15.5004 160.332 15.645 160.811 15.9297C161.331 16.2372 161.593 16.6239 161.593 17.0806C161.593 17.5464 161.876 17.9392 162.457 18.2787C163.07 18.6379 163.821 18.8191 164.689 18.8191H176.014C176.882 18.8191 177.632 18.638 178.246 18.2802C178.827 17.9407 179.11 17.551 179.11 17.0852V14.2856C179.11 13.8213 178.827 13.43 178.246 13.0921C177.632 12.7343 176.88 12.5532 176.014 12.5532H164.689C162.543 12.5532 160.659 12.0858 159.087 11.1633C157.474 10.2179 156.655 9.04573 156.655 7.67867V4.89584C156.655 3.51813 157.474 2.34594 159.087 1.4097C160.659 0.497824 162.544 0.0350342 164.689 0.0350342H176.014C178.158 0.0350342 180.036 0.497824 181.592 1.4097C183.188 2.34594 183.999 3.51813 183.999 4.89432C183.999 5.34798 183.735 5.73465 183.215 6.04064C182.736 6.32379 182.168 6.46689 181.53 6.46689C180.889 6.46689 180.329 6.32379 179.865 6.04064C179.363 5.73465 179.11 5.35102 179.11 4.90041C179.11 4.43914 178.827 4.05247 178.246 3.71604C177.632 3.36133 176.88 3.18018 176.012 3.18018H164.687C163.819 3.18018 163.069 3.36133 162.455 3.71756C161.874 4.05399 161.591 4.44371 161.591 4.90498V7.67867C161.591 8.14146 161.874 8.52966 162.455 8.86609C163.069 9.22232 163.819 9.40195 164.687 9.40195H176.012C178.158 9.40195 180.034 9.87083 181.592 10.7934C183.19 11.7433 184 12.917 184 14.2856ZM124.954 35.2801V37.7341H136.266C136.675 37.7341 137.041 37.8056 137.351 37.9457C137.72 38.1132 137.908 38.343 137.908 38.6262C137.908 38.9078 137.722 39.1392 137.354 39.3128C137.043 39.4589 136.677 39.5335 136.266 39.5335H124.954V41.4318C124.954 41.61 125.118 41.7774 125.441 41.9281C125.821 42.1062 126.287 42.1945 126.829 42.1945H137.47C137.881 42.1945 138.248 42.2691 138.559 42.4153C138.927 42.5888 139.113 42.8202 139.113 43.1018C139.113 43.3865 138.925 43.6149 138.556 43.7823C138.246 43.9224 137.88 43.9939 137.47 43.9939H126.827C125.465 43.9939 124.266 43.758 123.265 43.2937C122.207 42.8019 121.669 42.1747 121.669 41.4303V35.271C121.669 34.522 122.207 33.8917 123.265 33.4C124.266 32.9357 125.465 32.6997 126.827 32.6997H137.469C137.878 32.6997 138.245 32.7713 138.554 32.9129C138.924 33.0818 139.111 33.3117 139.111 33.5964C139.111 33.8841 138.925 34.1186 138.557 34.2936C138.246 34.4413 137.88 34.5159 137.469 34.5159H126.827C126.287 34.5159 125.819 34.6057 125.439 34.7823C125.116 34.9376 124.954 35.1035 124.954 35.2801ZM118.257 33.5994V43.1064C118.257 43.3896 118.073 43.6194 117.709 43.7869C117.404 43.9285 117.036 44 116.615 44C116.1 44 115.68 43.8935 115.367 43.6834L104.054 36.128V43.1064C104.054 43.3911 103.866 43.6194 103.497 43.7869C103.187 43.9285 102.821 44 102.411 44C101.99 44 101.622 43.9285 101.317 43.7869C100.953 43.6194 100.769 43.3896 100.769 43.1064V33.5994C100.769 33.3163 100.953 33.0879 101.317 32.919C101.622 32.7774 101.99 32.7058 102.411 32.7058C102.927 32.7058 103.347 32.8124 103.659 33.0225L115.002 40.5702V33.5979C115.002 33.3163 115.184 33.0864 115.541 32.919C115.842 32.7774 116.202 32.7058 116.613 32.7058C117.035 32.7058 117.403 32.7774 117.708 32.919C118.073 33.0864 118.257 33.3163 118.257 33.5994ZM136.741 1.42036C135.199 0.502391 133.339 0.0365565 131.21 0.0365565H114.271C113.617 0.0365565 113.045 0.175089 112.575 0.447587C112.062 0.744442 111.802 1.12502 111.802 1.5802V20.3886C111.802 20.8438 112.062 21.2259 112.575 21.5212C113.045 21.7937 113.617 21.9323 114.271 21.9323C114.908 21.9323 115.474 21.7937 115.954 21.5212C116.475 21.2244 116.74 20.8423 116.74 20.3856V13.6843H131.161C132.013 13.6843 132.756 13.8654 133.369 14.2232C133.95 14.5611 134.233 14.9524 134.233 15.4167V20.3856C134.233 20.8408 134.487 21.2213 134.991 21.5182C135.454 21.7922 136.012 21.9308 136.653 21.9308C137.29 21.9308 137.856 21.7922 138.335 21.5212C138.857 21.2244 139.122 20.8438 139.122 20.3871V15.4228C139.122 14.1501 138.42 13.0495 137.034 12.1467C138.419 11.2364 139.122 10.1266 139.122 8.84326V4.90041C139.12 3.53336 138.319 2.36268 136.741 1.42036ZM134.231 4.90802V8.84478C134.231 9.29843 133.956 9.68511 133.39 10.0276C132.793 10.3869 132.06 10.5696 131.21 10.5696H116.74V3.18322H131.21C132.06 3.18322 132.794 3.36286 133.391 3.71908C133.957 4.05552 134.231 4.44371 134.231 4.90802ZM101.36 21.5212C101.823 21.7953 102.383 21.9338 103.022 21.9338C103.659 21.9338 104.225 21.7953 104.705 21.5243C105.226 21.2274 105.491 20.8469 105.491 20.3902V15.4258C105.491 14.1532 104.789 13.0525 103.403 12.1498C104.788 11.2394 105.491 10.1296 105.491 8.8463V4.90041C105.491 3.53336 104.69 2.36268 103.11 1.42188C101.568 0.503913 99.7085 0.0380789 97.5791 0.0380789H80.6401C79.9863 0.0380789 79.4145 0.176611 78.9439 0.449109C78.4317 0.745964 78.1711 1.12655 78.1711 1.58173V20.3902C78.1711 20.8453 78.4317 21.2274 78.9439 21.5228C79.4145 21.7953 79.9863 21.9338 80.6401 21.9338C81.2774 21.9338 81.8433 21.7953 82.3228 21.5228C82.844 21.2259 83.1091 20.8438 83.1091 20.3871V13.6858H97.5299C98.3817 13.6858 99.1248 13.867 99.7383 14.2247C100.319 14.5627 100.602 14.9539 100.602 15.4182V20.3871C100.602 20.8423 100.857 21.2244 101.36 21.5212ZM100.602 4.90802V8.84478C100.602 9.29843 100.327 9.68511 99.7607 10.0276C99.1635 10.3869 98.4309 10.5696 97.5806 10.5696H83.1105V3.18322H97.5806C98.4309 3.18322 99.165 3.36286 99.7622 3.71908C100.327 4.05552 100.602 4.44371 100.602 4.90802Z" fill="#008EAA"></path>
  <path fill-rule="evenodd" clip-rule="evenodd" d="M58.2389 0C51.1938 0 45.4829 4.90952 45.4829 10.9669C45.4829 17.0227 51.1938 21.9338 58.2389 21.9338C65.2855 21.9338 70.9949 17.0227 70.9949 10.9669C70.9949 4.90952 65.2855 0 58.2389 0ZM47.6556 12.885L54.6754 3.02335L57.7862 7.31481L50.817 17.1826L47.6556 12.885ZM58.1436 17.1826L54.9911 12.8957L62.0109 3.03553L65.1113 7.31481L58.1436 17.1826ZM65.287 17.1826L62.2194 13.0403L65.7561 8.06989L68.7716 12.2335L65.287 17.1826Z" fill="#EF6B0D"></path>
</svg>
