<svg xmlns="http://www.w3.org/2000/svg" width="81" height="80" viewBox="0 0 81 80" fill="none"><path d="M15.1723 0.00626557C16.2911 0.229738 17.4349 0.279862 18.5453 0.593141C26.2053 2.74223 30.5258 10.8394 28.0023 18.402C27.8166 18.9554 27.8938 19.2917 28.3175 19.6802C29.144 20.4341 29.9476 21.2194 30.6907 22.0569C31.1498 22.5749 31.4504 22.5185 31.8303 22.0214C32.0181 21.775 32.2623 21.5703 32.4898 21.3573C33.8214 20.1188 35.7187 20.0436 37.1025 21.2319C37.5074 21.5807 37.7203 21.5912 38.0919 21.2006C39.077 20.1605 40.0977 19.1539 41.1266 18.1576C42.8527 16.4847 44.894 16.0461 47.0939 16.9526C49.2771 17.8527 50.3687 19.6133 50.4001 21.9775C50.4063 22.4495 50.5378 22.5143 50.9615 22.5247C54.5682 22.6041 56.8599 25.4194 56.2713 29.0409C56.2024 29.4628 56.2651 29.6215 56.7243 29.703C59.5127 30.2042 61.2618 32.2823 61.2681 35.0977C61.2681 35.5759 61.3453 35.7618 61.8796 35.8015C63.9188 35.9539 65.3527 37.0337 66.0707 38.9238C66.7908 40.8223 66.3963 42.5871 64.9812 44.0449C63.1132 45.9705 61.2034 47.8544 59.2852 49.7299C58.945 50.0619 58.9492 50.1977 59.2498 50.5757C60.2954 51.8852 61.4246 52.754 63.1466 51.7578C71.0487 50.1267 78.3747 54.9658 79.936 62.8646C80.3096 64.7568 80.2323 66.649 79.8045 68.5266C79.6771 69.0863 79.4684 69.621 79.1428 70.1013C78.4708 71.0871 77.4042 71.367 76.3397 70.8323C75.8451 70.5838 75.4381 70.2245 75.0498 69.8319C73.0733 67.8311 71.0883 65.8366 69.1118 63.8378C68.2372 62.9544 67.179 62.5075 65.9434 62.6181C64.6514 62.733 63.5765 63.2343 63.0881 64.5626C62.5496 66.0287 62.7354 67.3967 63.7644 68.5809C64.4302 69.3453 65.1816 70.0345 65.9037 70.7488C67.3105 72.1418 68.7235 73.5286 70.1324 74.9154C70.4497 75.2266 70.7356 75.5607 70.9568 75.9492C71.6185 77.1125 71.3305 78.28 70.1992 78.988C69.2662 79.5707 68.2038 79.7232 67.1456 79.8526C61.5728 80.5356 55.9687 77.6158 53.3075 72.6577C52.8671 71.8369 52.9673 71.1915 53.5935 70.8219C54.2509 70.4355 54.8646 70.684 55.3655 71.5445C58.01 76.0808 62.5893 78.2528 67.7071 77.3924C68.0828 77.3297 68.4773 77.2984 68.7903 77.0185C67.2458 75.4521 65.7138 73.8983 64.1797 72.3444C63.4847 71.6406 62.7563 70.966 62.0925 70.2329C60.7296 68.7292 60.2287 66.9414 60.5584 64.951C61.3954 59.901 67.3022 59.0781 70.2994 61.7598C71.1718 62.5409 71.9796 63.393 72.8061 64.2221C74.1294 65.5504 75.4422 66.8892 76.7634 68.2196C76.9054 68.3616 77.0723 68.4806 77.2873 68.6623C77.8362 67.1732 77.9427 65.705 77.7653 64.2326C76.8093 56.2983 69.0596 51.714 61.6605 54.7005C60.8861 55.0117 60.2725 54.9595 59.6985 54.3183C59.1955 53.7565 58.6153 53.2636 58.1081 52.706C57.2461 51.7578 56.3548 51.1062 54.9376 50.9412C52.3996 50.6446 50.7611 48.2178 51.0867 45.6593C51.166 45.0369 51.1243 44.7905 50.3896 44.6735C48.1271 44.3122 46.3759 42.3281 46.1171 39.9973C46.0837 39.6966 46.1714 39.3624 45.6433 39.4293C42.7588 39.7968 40.2834 38.7505 37.9791 37.1528C37.2841 36.6703 37.3008 36.6578 37.2006 37.4807C37.0754 38.4957 36.8187 39.4856 36.349 40.3879C36.0652 40.9309 36.1716 41.2358 36.5849 41.6452C42.4979 47.5202 48.3796 53.4224 54.3031 59.2869C55.0587 60.0346 55.2653 60.6925 54.804 61.6908C54.1215 63.1737 53.9191 64.786 53.9545 66.4172C53.9671 66.9685 53.7563 67.3842 53.247 67.6097C52.7982 67.8081 52.3766 67.7204 52.0155 67.3988C51.6774 67.098 51.6106 66.6887 51.6085 66.2584C51.6002 64.6315 51.8131 63.0338 52.3704 61.5029C52.5394 61.035 52.4664 60.7489 52.1074 60.4231C51.4917 59.8634 50.901 59.2723 50.3395 58.6562C50.039 58.3283 49.7927 58.2928 49.4024 58.4975C48.4569 58.9966 47.4488 59.3287 46.4052 59.5793C44.9546 59.9281 43.5582 59.5522 42.1535 59.3266C41.1016 59.1595 40.1916 59.358 39.4068 60.0848C36.5974 62.6871 33.9717 65.4773 31.2292 68.1486C30.9912 68.3804 31.0371 68.5788 31.129 68.8399C31.6925 70.4605 31.3064 71.8536 30.1042 73.0503C28.2048 74.9446 26.3138 76.8493 24.4061 78.7332C22.7176 80.4019 20.4467 80.4312 18.7707 78.7666C13.321 73.3511 7.88177 67.923 2.45506 62.4845C0.776955 60.8032 0.795739 58.5372 2.4655 56.8496C4.37111 54.924 6.29968 53.0214 8.21364 51.1041C9.37203 49.9429 10.7391 49.6025 12.292 50.0891C12.6573 50.204 12.8973 50.2165 13.1833 49.9199C15.139 47.8982 17.2241 46.006 19.0691 43.8757C20.2338 42.5328 21.2732 41.1043 21.9641 39.4501C22.4525 38.2827 22.7092 37.0671 22.6508 35.7973C22.5944 34.5379 22.6842 33.2953 23.1267 32.1048C23.2707 31.7142 23.1329 31.4887 22.8678 31.2297C21.8242 30.2105 20.7786 29.1913 19.7767 28.1345C19.3989 27.7356 19.0796 27.6792 18.5599 27.8526C11.8036 30.1103 4.45877 26.9399 1.45947 20.5114C0.804088 19.1058 0.509794 17.6021 0.175842 16.1088V13.1389C0.359516 12.9509 0.303161 12.7003 0.342818 12.4748C0.495183 11.6289 0.65381 10.7851 1.11717 10.0374C1.82055 8.90129 2.97895 8.59846 4.1436 9.25007C4.6487 9.53411 5.04736 9.94138 5.45227 10.3507C7.41007 12.3306 9.36368 14.3127 11.3444 16.2696C12.436 17.3473 13.7614 17.6209 15.235 17.2387C16.5123 16.9066 17.2136 16.0336 17.4578 14.7888C17.7396 13.3561 17.3263 12.1155 16.2848 11.088C14.2853 9.11432 12.2858 7.14067 10.282 5.1691C9.88966 4.78272 9.53274 4.37128 9.28437 3.87839C8.77509 2.86754 9.05478 1.76689 9.98567 1.11945C10.4595 0.789462 10.9959 0.601495 11.5511 0.444856C12.484 0.18379 13.4567 0.21303 14.3938 0H15.1744L15.1723 0.00626557ZM48.125 56.4946C47.9059 56.2649 47.7159 56.0581 47.5176 55.8597C43.6125 51.9583 39.7073 48.0549 35.7959 44.1598C35.4515 43.8152 35.1719 43.245 34.7127 43.2199C34.3265 43.199 34.1178 43.8068 33.7839 44.0908C33.2663 44.5315 32.6088 44.5608 32.158 44.1493C31.657 43.694 31.6299 43.0716 32.0995 42.4764C32.2435 42.2926 32.4126 42.1276 32.5691 41.9522C33.3894 41.027 34.051 40.0015 34.4497 38.8298C35.1176 36.8729 35.2721 34.9556 33.834 33.2201C33.2704 32.5392 33.2433 31.8918 33.7421 31.4177C34.2577 30.9269 34.9381 31.0062 35.5914 31.6516C36.4993 32.5476 37.3989 33.454 38.3006 34.3541C39.4861 35.5362 40.895 36.3529 42.4875 36.8374C43.7795 37.2321 45.0923 37.3741 46.3843 36.8165C47.622 36.2839 47.8328 35.4005 46.9729 34.4252C46.7829 34.21 46.5951 33.9949 46.3926 33.7923C42.8778 30.2732 39.363 26.754 35.8419 23.2432C35.1593 22.5623 34.5875 22.5686 33.8945 23.2599C31.5673 25.574 29.2484 27.8922 26.9295 30.2168C26.0049 31.1441 25.456 32.2719 25.1471 33.5417C24.859 34.728 25.0782 35.931 24.9571 37.1214C24.6691 39.9535 23.327 42.2989 21.6093 44.4751C19.6828 46.9166 17.3785 48.9989 15.187 51.1876C14.6986 51.6764 14.6464 51.9395 15.1765 52.4429C16.671 53.8568 18.1028 55.3355 19.5555 56.7912C19.9312 57.1671 20.1294 57.5911 19.9165 58.1299C19.735 58.5915 19.3843 58.8358 18.9084 58.8797C18.4242 58.9235 18.084 58.6374 17.7626 58.3137C15.9613 56.5071 14.1559 54.7026 12.3463 52.9023C11.3987 51.9604 10.6765 51.9583 9.73312 52.894C7.92352 54.6943 6.11809 56.4988 4.31475 58.3033C3.29829 59.3204 3.29411 60.0158 4.3064 61.0267C9.61206 66.3274 14.9198 71.6259 20.2275 76.9224C21.1835 77.8748 21.9432 77.8748 22.8991 76.9224C24.69 75.1409 26.4766 73.3552 28.2612 71.5675C29.2964 70.5316 29.2964 69.8256 28.2612 68.7897C26.2908 66.8182 24.3184 64.8529 22.346 62.8834C22.2166 62.7539 22.081 62.6307 21.9599 62.497C21.4381 61.9185 21.4131 61.2251 21.891 60.7552C22.3794 60.2748 23.0515 60.2915 23.6255 60.8575C25.3871 62.5952 27.1529 64.3286 28.8706 66.1081C29.3402 66.5926 29.5677 66.532 30.0061 66.0851C32.2665 63.7815 34.5979 61.5426 36.8416 59.2222C38.6971 57.3049 40.8115 56.4486 43.4643 57.1734C45.0756 57.614 46.5951 57.2778 48.1229 56.4946H48.125ZM14.7153 2.41016C13.9305 2.44984 13.0977 2.4937 12.2858 2.68793C12.0436 2.74432 11.6993 2.72761 11.6179 2.99912C11.5469 3.23721 11.8495 3.37506 12.0061 3.53169C13.68 5.20878 15.3644 6.87333 17.0404 8.54833C17.6102 9.1185 18.2176 9.65316 18.6934 10.3131C20.7326 13.1306 20.0439 17.2888 17.2679 18.9053C14.7549 20.3673 11.7055 19.9412 9.53483 17.788C7.53947 15.808 5.5629 13.8072 3.59676 11.7981C3.17097 11.3616 2.96225 11.347 2.82867 11.984C2.67839 12.6982 2.54898 13.4146 2.52603 14.1456C2.25469 22.7085 10.6557 28.571 18.6016 25.3422C19.4887 24.9808 20.1044 25.1124 20.7452 25.8016C21.8117 26.942 22.9472 28.0176 24.0492 29.1245C24.26 29.3354 24.3978 29.5234 24.7192 29.1871C26.1802 27.6667 27.66 26.1629 29.1691 24.6926C29.5677 24.3042 29.4676 24.1057 29.1315 23.7779C28.0837 22.7649 27.0631 21.7227 26.032 20.6931C25.0531 19.7136 25.0344 19.63 25.5395 18.379C28.6139 10.7413 23.0014 2.42687 14.7132 2.41642L14.7153 2.41016ZM48.4297 39.4105C48.4652 40.7012 49.0538 41.664 50.2289 42.184C51.4624 42.7312 52.6438 42.5307 53.6206 41.593C55.1213 40.1498 56.5948 38.6795 58.0434 37.1841C59.2706 35.9184 59.2456 34.02 58.0434 32.8358C56.8349 31.6474 54.9689 31.6411 53.6936 32.8755C52.218 34.304 50.7737 35.7702 49.3272 37.228C48.7366 37.8253 48.4151 38.5479 48.4297 39.4063V39.4105ZM61.2201 38.1135C60.8172 38.101 60.2245 38.339 59.7423 38.8194C57.8409 40.7095 55.929 42.5934 54.0568 44.5127C53.0988 45.4964 53.1405 47.0043 54.0631 47.9755C54.9981 48.9571 56.5093 49.1137 57.5111 48.1635C59.5482 46.2274 61.5332 44.2329 63.4763 42.2007C64.2006 41.4447 64.2549 40.4547 63.7727 39.5024C63.3094 38.5855 62.5392 38.126 61.2201 38.1135ZM51.2788 24.8514C50.1746 24.8472 49.465 25.1354 48.8827 25.7056C47.7869 26.7791 46.7141 27.8776 45.6141 28.947C45.3261 29.2268 45.3136 29.3981 45.6058 29.6905C46.8393 30.9206 48.0833 32.1424 49.2041 33.4811C49.4024 33.7192 49.5234 33.7318 49.7426 33.5083C50.9448 32.2844 52.2096 31.1148 53.3576 29.8408C54.2134 28.8906 54.3198 27.721 53.7542 26.5598C53.2032 25.432 52.2493 24.8827 51.2808 24.8493L51.2788 24.8514ZM48.077 21.8564C48.0081 20.6075 47.43 19.6259 46.2444 19.1246C45.0443 18.6171 43.8797 18.78 42.9154 19.6969C41.8029 20.7537 40.7468 21.8689 39.6426 22.9341C39.3212 23.2432 39.3254 23.427 39.6447 23.7361C40.8407 24.8952 42.0179 26.0711 43.1804 27.2636C43.481 27.5727 43.673 27.6061 43.9903 27.2782C45.038 26.1922 46.1171 25.1396 47.1837 24.0702C47.7848 23.4688 48.054 22.7294 48.077 21.8564Z" fill="#374957"></path></svg>